<?xml version="1.0" standalone="no"?>
<!DOCTYPE svg PUBLIC "-//W3C//DTD SVG 1.1//EN" "http://www.w3.org/Graphics/SVG/1.1/DTD/svg11.dtd" >
<svg>
<metadata>
Created by FontForge 20090622 at Wed Jan 10 06:37:35 2018
 By deploy user
Copyright &#194;&#169; 1995 ParaGraph Intl., &#194;&#169; 1998 ParaType Inc., ParaType Ltd. All rights reserved.
</metadata>
<defs>
<font id="FuturaPT-Light" horiz-adv-x="500" >
  <font-face 
    font-family="Futura PT Light"
    font-weight="300"
    font-stretch="normal"
    units-per-em="1000"
    panose-1="2 11 4 2 2 2 4 2 3 3"
    ascent="763"
    descent="-237"
    x-height="408"
    cap-height="667"
    bbox="-298 -250 1018 900"
    underline-thickness="50"
    underline-position="-50"
    unicode-range="U+0020-U+FB02"
  />
<missing-glyph horiz-adv-x="233" 
 />
    <glyph glyph-name="afii10017.var.accented" unicode="&#x410;`" horiz-adv-x="586" 
d="M524 0l-89 219h-284l-89 -219h-48l281 687l277 -687h-48zM167 259h252l-125 316zM359 854l50 -25l-134 -126l-32 18z" />
    <glyph glyph-name="afii10022.var.accented" unicode="&#x415;`" horiz-adv-x="464" 
d="M410 667v-40h-276v-242h270v-40h-270v-305h276v-40h-320v667h320zM298 854l50 -25l-134 -126l-32 18z" />
    <glyph glyph-name="afii10026.var.accented" unicode="&#x418;`" horiz-adv-x="700" 
d="M566 0v556l-476 -573v684h44v-566l476 573v-674h-44zM416 854l50 -25l-134 -126l-32 18z" />
    <glyph glyph-name="afii10032.var.accented" unicode="&#x41e;`" horiz-adv-x="800" 
d="M400 676q146 0 246 -100t100 -244t-100 -243.5t-246 -99.5t-246 99.5t-100 243.5t100 244t246 100zM400 29q128 0 214 87.5t86 215.5q0 129 -86 216.5t-214 87.5t-214 -87.5t-86 -216.5q0 -128 86 -215.5t214 -87.5zM466 854l50 -25l-134 -126l-32 18z" />
    <glyph glyph-name="afii10037.var.accented" unicode="&#x423;`" horiz-adv-x="550" 
d="M14 667h50l231 -432l195 432h46l-305 -667h-46l85 186zM341 854l50 -25l-134 -126l-32 18z" />
    <glyph glyph-name="afii10045.var.accented" unicode="&#x42b;`" horiz-adv-x="690" 
d="M90 0v667h44v-287h116q230 0 230 -183q0 -83 -53.5 -140t-162.5 -57h-174zM134 340v-300h112q101 0 146 44q42 40 42 113q0 87 -69 123q-39 20 -127 20h-104zM556 667h44v-667h-44v667zM411 854l50 -25l-134 -126l-32 18z" />
    <glyph glyph-name="afii10047.var.accented" unicode="&#x42d;`" horiz-adv-x="678" 
d="M54 72v58q48 -52 108 -76.5t116 -24.5q114 0 205 81t95 214h-444v40h442q-11 118 -96.5 195t-200.5 77q-65 0 -123.5 -27.5t-101.5 -77.5v58q92 87 224 87q144 0 245 -100t101 -244q0 -141 -100 -242t-248 -101q-128 0 -222 83zM365 854l50 -25l-134 -126l-32 18z" />
    <glyph glyph-name="afii10048.var.accented" unicode="&#x42e;`" horiz-adv-x="960" 
d="M134 372h102q15 132 110 218t224 86q142 0 239 -100t97 -244t-97 -243.5t-239 -99.5t-238 100t-98 243h-100v-332h-44v667h44v-295zM570 29q125 0 207.5 87.5t82.5 215.5t-83 216t-207 88t-207 -88t-83 -216t82.5 -215.5t207.5 -87.5zM546 854l50 -25l-134 -126l-32 18z
" />
    <glyph glyph-name="afii10049.var.accented" unicode="&#x42f;`" horiz-adv-x="470" 
d="M34 0l202 299q-38 1 -75 15q-13 5 -26.5 13.5t-34 27t-33.5 52t-13 76.5q0 59 26 98.5t61 59.5q44 26 125 26h114v-667h-44v299h-50l-200 -299h-52zM336 627h-70q-58 0 -91 -16q-35 -16 -55 -50t-20 -78q0 -70 44 -109q39 -35 116 -35h76v288zM301 854l50 -25l-134 -126
l-32 18z" />
    <glyph glyph-name="afii10023.var.accented" unicode="&#x401;`" horiz-adv-x="464" 
d="M410 667v-40h-276v-242h270v-40h-270v-305h276v-40h-320v667h320zM103 780q0 16 11 27t27 11t27 -11t11 -27t-11 -27t-27 -11t-27 11t-11 27zM319 780q0 16 11 27t27 11t27 -11t11 -27t-11 -27t-27 -11t-27 11t-11 27zM282 854l44 -25l-134 -126l-26 18z" />
    <glyph glyph-name="afii10065.var.accented" unicode="&#x430;`" horiz-adv-x="516" 
d="M404 337v71h40v-408h-40v73q-55 -84 -159 -84q-83 0 -141 59t-58 156q0 95 55 154t144 59q102 0 159 -80zM247 379q-65 0 -112 -46.5t-47 -125.5q0 -73 43 -126.5t117 -53.5q73 0 115.5 52.5t42.5 127.5q0 83 -49 127.5t-110 44.5zM313 620l43 -25l-105 -128l-30 16z" />
    <glyph glyph-name="afii10070.var.accented" unicode="&#x435;`" horiz-adv-x="483" 
d="M437 199h-349q0 -76 47.5 -124t114.5 -48q48 0 85 25.5t57 67.5l34 -20q-23 -44 -67 -77.5t-112 -33.5q-93 0 -147 60.5t-54 152.5q0 101 58.5 158t139.5 57q83 0 138 -61t55 -157zM91 237h304q-8 62 -49.5 102t-101.5 40q-61 0 -103 -40.5t-50 -101.5zM296 620l43 -25
l-105 -128l-30 16z" />
    <glyph glyph-name="afii10074.var.accented" unicode="&#x438;`" horiz-adv-x="474" 
d="M72 408h40v-327l290 350v-431h-40v325l-290 -350v433zM292 620l43 -25l-105 -128l-30 16z" />
    <glyph glyph-name="afii10080.var.accented" unicode="&#x43e;`" horiz-adv-x="520" 
d="M260 417q91 0 152.5 -61.5t61.5 -152.5t-61.5 -152.5t-152.5 -61.5t-152.5 61.5t-61.5 152.5t61.5 152.5t152.5 61.5zM260 27q73 0 122.5 51t49.5 125t-49.5 125t-122.5 51t-122.5 -51t-49.5 -125t49.5 -125t122.5 -51zM315 620l43 -25l-105 -128l-30 16z" />
    <glyph glyph-name="afii10085.var.accented" unicode="&#x443;`" horiz-adv-x="428" 
d="M106 -230l96 223l-194 415h46l171 -363l149 363h46l-268 -638h-46zM269 620l43 -25l-105 -128l-30 16z" />
    <glyph glyph-name="afii10093.var.accented" unicode="&#x44b;`" 
d="M72 408h40v-170h97q70 0 104 -38q29 -32 29 -81q0 -55 -36 -88q-33 -31 -98 -31h-136v408zM112 38h96q42 0 64 19q28 23 28 62q0 41 -29 63q-24 18 -65 18h-94v-162zM388 408h40v-408h-40v408zM305 620l43 -25l-105 -128l-30 16z" />
    <glyph glyph-name="afii10095.var.accented" unicode="&#x44d;`" horiz-adv-x="412" 
d="M38 10v42q45 -25 110 -25q83 0 132 53q41 43 44 110h-239v38h239q-8 74 -67 118q-46 33 -112 33q-63 0 -103 -21v40q50 19 103 19q95 0 153 -51q68 -59 68 -161q0 -99 -61 -158q-60 -58 -157 -58q-67 0 -110 21zM231 620l43 -25l-105 -128l-30 16z" />
    <glyph glyph-name="afii10096.var.accented" unicode="&#x44e;`" horiz-adv-x="640" 
d="M112 228h70q9 82 66.5 135.5t139.5 53.5q88 0 147 -61.5t59 -152.5t-59 -152.5t-147 -61.5q-82 0 -142 55.5t-64 145.5h-70v-190h-40v408h40v-180zM388 27q70 0 117 50.5t47 125.5t-47 125.5t-117 50.5t-117 -50.5t-47 -125.5t47 -125.5t117 -50.5zM375 620l43 -25
l-105 -128l-30 16z" />
    <glyph glyph-name="afii10097.var.accented" unicode="&#x44f;`" horiz-adv-x="386" 
d="M28 0l130 178q-47 2 -80 30q-34 30 -34 81q0 59 37 90q33 29 97 29h136v-408h-40v176h-70l-128 -176h-48zM274 214v156h-96q-42 0 -65 -18q-27 -23 -27 -62q0 -38 26 -58q24 -18 66 -18h96zM248 620l43 -25l-105 -128l-30 16z" />
    <glyph glyph-name="afii10071.var.accented" unicode="&#x451;`" horiz-adv-x="483" 
d="M437 199h-349q-3 -73 47 -125q45 -47 115 -47q48 0 86 26q36 26 56 67l34 -20q-28 -50 -70 -79q-46 -32 -109 -32q-85 0 -142 55q-59 57 -59 158t61 160q56 55 137 55q80 0 133 -53q62 -62 60 -165zM91 237h304q-8 61 -46 99q-43 43 -105 43q-60 0 -106 -44
q-40 -40 -47 -98zM115 526q0 15 10.5 25.5t25.5 10.5t25.5 -10.5t10.5 -25.5t-10.5 -25.5t-25.5 -10.5t-25.5 10.5t-10.5 25.5zM301 526q0 15 10.5 25.5t25.5 10.5t25.5 -10.5t10.5 -25.5t-10.5 -25.5t-25.5 -10.5t-25.5 10.5t-10.5 25.5zM280 620l37 -25l-105 -128l-24 16z
" />
    <glyph glyph-name="fi" unicode="fi" horiz-adv-x="442" 
d="M214 370h-102v-370h-40v370h-46v38h46v163q0 75 22 109q42 61 127 61t127 -61q22 -34 22 -109v-17h-40v17q0 60 -17 88q-26 44 -92 44q-65 0 -92 -44q-17 -28 -17 -88v-163h102v-38zM330 408h40v-408h-40v408z" />
    <glyph glyph-name="fl" unicode="fl" horiz-adv-x="442" 
d="M214 370h-102v-370h-40v370h-46v38h46v163q0 75 22 109q42 61 127 61t127 -61q22 -34 22 -109v-571h-40v571q0 60 -17 88q-27 44 -92 44t-92 -44q-17 -27 -17 -88v-163h102v-38z" />
    <glyph glyph-name=".notdef" horiz-adv-x="233" 
 />
    <glyph glyph-name=".null" horiz-adv-x="0" 
 />
    <glyph glyph-name="nonmarkingreturn" horiz-adv-x="333" 
 />
    <glyph glyph-name="space" unicode=" " horiz-adv-x="233" 
 />
    <glyph glyph-name="exclam" unicode="!" horiz-adv-x="260" 
d="M152 119h-44v548h44v-548zM93 30q0 16 10.5 26.5t26.5 10.5t26.5 -10.5t10.5 -26.5t-10.5 -26.5t-26.5 -10.5t-26.5 10.5t-10.5 26.5z" />
    <glyph glyph-name="quotedbl" unicode="&#x22;" horiz-adv-x="280" 
d="M104 667l-7 -269h-30l-7 269h44zM220 667l-7 -269h-30l-7 269h44z" />
    <glyph glyph-name="numbersign" unicode="#" horiz-adv-x="600" 
d="M375 0h-40l33 221h-164l-33 -221h-40l33 221h-118l6 38h118l24 161h-118l6 38h118l32 209h40l-32 -209h164l32 209h40l-32 -209h118l-6 -38h-118l-24 -161h118l-6 -38h-118zM374 259l24 161h-164l-24 -161h164z" />
    <glyph glyph-name="dollar" unicode="$" horiz-adv-x="548" 
d="M443 581l-32 -27q-5 12 -13.5 25t-34 32.5t-56.5 24.5v-270q70 -32 99 -53q71 -49 71 -129q0 -68 -47 -124t-123 -68v-99h-40v96q-93 0 -153 70q-29 34 -43 73l38 18q12 -36 36 -64q44 -55 122 -57v310l-25 12q-48 23 -72 40.5t-39 42.5q-21 35 -21 76q0 68 44 115.5
t113 50.5v89h40v-89q93 -11 136 -95zM307 319v-287q56 12 90 55t34 96q0 65 -65 105zM267 386v250q-51 -3 -81 -40t-30 -84q0 -44 27 -73.5t84 -52.5z" />
    <glyph glyph-name="percent" unicode="%" horiz-adv-x="608" 
d="M169 673q61 0 98 -37t37 -94t-37 -94t-98 -37t-98 37t-37 94t37 94t98 37zM169 447q45 0 70 29t25 66t-25 66t-70 29t-70 -29t-25 -66t25 -66t70 -29zM92 1l394 681l30 -16l-394 -681zM439 256q61 0 98 -37t37 -94t-37 -94t-98 -37t-98 37t-37 94t37 94t98 37zM439 30
q45 0 70 29t25 66t-25 66t-70 29t-70 -29t-25 -66t25 -66t70 -29z" />
    <glyph glyph-name="ampersand" unicode="&#x26;" horiz-adv-x="628" 
d="M567 259l32 -27q-39 -53 -85 -97l100 -135h-56l-77 105q-76 -63 -118 -85q-65 -33 -124 -33q-73 0 -121 46q-52 50 -52 126q0 73 44 126q27 33 84 71l71 46q-39 61 -53 89.5t-14 58.5q0 54 38 92q36 37 92 37q49 0 85 -33q37 -34 37 -91q0 -58 -49 -107q-24 -24 -75 -58
l163 -220q34 34 78 89zM456 140l-167 228l-63 -41q-59 -38 -85 -73q-29 -40 -29 -92q0 -60 35 -97q36 -38 93 -38q55 0 117 36q49 27 99 77zM301 424q50 32 74 57q31 33 31 73q0 37 -23 60t-58 23q-32 0 -55 -22q-28 -26 -28 -67q0 -16 7 -34.5t13.5 -29.5t20.5 -32.5z" />
    <glyph glyph-name="quotesingle" unicode="'" horiz-adv-x="164" 
d="M104 667l-7 -269h-30l-7 269h44z" />
    <glyph glyph-name="parenleft" unicode="(" horiz-adv-x="282" 
d="M146 290q0 -106 21 -232q16 -103 45 -195l-38 -23q-27 76 -48 183q-26 134 -26 267q0 134 26 267q21 107 48 183l38 -23q-28 -86 -45 -195q-21 -130 -21 -232z" />
    <glyph glyph-name="parenright" unicode=")" horiz-adv-x="282" 
d="M108 -160l-38 23q29 92 45 195q21 126 21 232q0 102 -21 232q-17 109 -45 195l38 23q27 -76 48 -183q26 -133 26 -267q0 -133 -26 -267q-21 -107 -48 -183z" />
    <glyph glyph-name="asterisk" unicode="*" horiz-adv-x="548" 
d="M130 640l125 -44l-3 133h44l-3 -133l125 44l14 -41l-128 -38l81 -106l-35 -25l-76 110l-76 -110l-35 25l81 106l-128 38z" />
    <glyph glyph-name="plus" unicode="+" 
d="M33 310v38h197v182h40v-182h197v-38h-197v-182h-40v182h-197z" />
    <glyph glyph-name="comma" unicode="," horiz-adv-x="228" 
d="M38 -137l60 202l40 -12l-74 -200z" />
    <glyph glyph-name="hyphen" unicode="-" horiz-adv-x="300" 
d="M50 184v46h200v-46h-200z" />
    <glyph glyph-name="period" unicode="." horiz-adv-x="202" 
d="M64 30q0 16 10.5 26.5t26.5 10.5t26.5 -10.5t10.5 -26.5t-10.5 -26.5t-26.5 -10.5t-26.5 10.5t-10.5 26.5z" />
    <glyph glyph-name="slash" unicode="/" horiz-adv-x="576" 
d="M20 -158l504 901l32 -16l-504 -901z" />
    <glyph glyph-name="zero" unicode="0" horiz-adv-x="548" 
d="M274 676q90 0 157 -81q85 -101 85 -262t-85 -262q-69 -82 -157 -82t-157 82q-85 101 -85 262t85 262q67 81 157 81zM274 29q69 0 124 68q72 89 72 236t-72 236q-54 67 -124 67t-124 -67q-72 -89 -72 -236t72 -236q55 -68 124 -68z" />
    <glyph glyph-name="one" unicode="1" horiz-adv-x="548" 
d="M272 0v627h-104l20 40h128v-667h-44z" />
    <glyph glyph-name="two" unicode="2" horiz-adv-x="548" 
d="M471 0h-411l256 282q53 60 73 90q39 60 39 114q0 64 -43.5 107t-111.5 43q-72 0 -115 -49q-39 -43 -39 -109h-44q0 85 53 140q56 58 148 58q86 0 142 -54.5t56 -135.5q0 -71 -48 -137q-23 -32 -59 -72l-214 -237h318v-40z" />
    <glyph glyph-name="three" unicode="3" horiz-adv-x="548" 
d="M76 162h44q2 -39 22 -71q19 -27 52 -44.5t66 -17.5q61 0 105.5 46t44.5 109q0 82 -63 122q-31 20 -85 20v40q54 0 90 31q49 41 49 109q0 56 -34 93t-94 37q-62 0 -96 -39q-32 -35 -34 -89h-42q1 71 49 120q47 48 123 48q80 0 127 -48t47 -119q0 -50 -25 -94.5t-80 -66.5
q53 -17 83.5 -61t30.5 -102q0 -83 -57 -139.5t-139 -56.5q-47 0 -91 23t-69 64q-24 39 -24 86z" />
    <glyph glyph-name="four" unicode="4" horiz-adv-x="548" 
d="M415 689v-522h93v-40h-93v-127h-44v127h-359zM90 167h281v392z" />
    <glyph glyph-name="five" unicode="5" horiz-adv-x="548" 
d="M470 667v-40h-224l-56 -180q24 6 45 6q105 0 168.5 -65t63.5 -166q0 -105 -68.5 -169t-168.5 -64q-136 0 -200 110l39 16q58 -86 162 -86q83 0 136.5 54t53.5 138q0 85 -52.5 138.5t-135.5 53.5q-57 0 -104 -29l86 283h255z" />
    <glyph glyph-name="six" unicode="6" horiz-adv-x="548" 
d="M301 676l34 -26l-148 -210q43 18 91 18q100 0 166 -66t66 -167t-67 -168.5t-171 -67.5q-102 0 -169 66.5t-67 170.5q0 73 43 136zM273 29q82 0 136.5 56t54.5 139q0 85 -54 139.5t-137 54.5t-137 -55t-54 -139t54.5 -139.5t136.5 -55.5z" />
    <glyph glyph-name="seven" unicode="7" horiz-adv-x="548" 
d="M22 14l432 613h-405v40h483l-477 -678z" />
    <glyph glyph-name="eight" unicode="8" horiz-adv-x="548" 
d="M358 346q52 -20 80.5 -66t28.5 -103q0 -85 -56 -136.5t-137 -51.5t-137 51.5t-56 136.5q0 57 28.5 103t80.5 66q-93 49 -93 154q0 75 51 125.5t126 50.5t126 -50.5t51 -125.5q0 -105 -93 -154zM274 365q54 0 92.5 38.5t38.5 96.5q0 59 -38 97.5t-93 38.5t-93 -38.5
t-38 -97.5q0 -58 38.5 -96.5t92.5 -38.5zM274 29q66 0 106.5 42.5t40.5 105.5q0 66 -41 108t-106 42t-106 -42t-41 -108q0 -63 40.5 -105.5t106.5 -42.5z" />
    <glyph glyph-name="nine" unicode="9" horiz-adv-x="548" 
d="M247 -11l-34 26l148 211q-43 -18 -91 -18q-100 0 -166 66t-66 167t67 168t171 67q102 0 169 -67t67 -169q0 -73 -43 -136zM275 636q-82 0 -136.5 -56t-54.5 -138q0 -85 54.5 -139.5t136.5 -54.5q83 0 137 55t54 139q0 83 -54.5 138.5t-136.5 55.5z" />
    <glyph glyph-name="colon" unicode=":" horiz-adv-x="202" 
d="M64 380q0 16 10.5 26.5t26.5 10.5t26.5 -10.5t10.5 -26.5t-10.5 -26.5t-26.5 -10.5t-26.5 10.5t-10.5 26.5zM64 26q0 16 10.5 26.5t26.5 10.5t26.5 -10.5t10.5 -26.5t-10.5 -26.5t-26.5 -10.5t-26.5 10.5t-10.5 26.5z" />
    <glyph glyph-name="semicolon" unicode=";" horiz-adv-x="228" 
d="M66 380q0 16 10.5 26.5t26.5 10.5t26.5 -10.5t10.5 -26.5t-10.5 -26.5t-26.5 -10.5t-26.5 10.5t-10.5 26.5zM38 -137l60 202l40 -12l-74 -200z" />
    <glyph glyph-name="less" unicode="&#x3c;" 
d="M33 347l434 192v-41l-390 -170l390 -170v-41l-434 192v38z" />
    <glyph glyph-name="equal" unicode="=" 
d="M33 381v38h434v-38h-434zM33 239v38h434v-38h-434z" />
    <glyph glyph-name="greater" unicode="&#x3e;" 
d="M467 309l-434 -192v41l390 170l-390 170v41l434 -192v-38z" />
    <glyph glyph-name="question" unicode="?" horiz-adv-x="466" 
d="M330 260h40q0 -53 -21 -88q-34 -58 -114 -58q-62 0 -101 36q-40 37 -40 101q0 62 44 99q10 8 22.5 14t20.5 9t26 8t23 7q4 1 16 4.5t17.5 5.5l15.5 5.5t16 7t13 8.5t13 11q25 29 25 82q0 57 -30 90q-31 34 -85 34t-85 -34q-28 -30 -28 -90q0 -20 7 -40h-44q-7 22 -7 46
q0 74 44 116q46 42 116 42q74 0 117 -45q41 -42 41 -117q0 -65 -36 -106q-32 -35 -89 -51l-25.5 -6.5t-27 -7.5t-22 -8t-20.5 -12q-34 -27 -34 -74q0 -41 25 -68q27 -29 71 -29q54 0 79 36q17 24 17 72zM197 26q0 16 10.5 26.5t26.5 10.5t26.5 -10.5t10.5 -26.5t-10.5 -26.5
t-26.5 -10.5t-26.5 10.5t-10.5 26.5z" />
    <glyph glyph-name="at" unicode="@" horiz-adv-x="732" 
d="M489 413l15 78h32q-50 -257 -50 -271q0 -21 12 -37t35 -16q52 0 90.5 63t38.5 148q0 119 -82 192.5t-203 73.5q-132 0 -221.5 -90t-89.5 -221q0 -96 50.5 -177t137.5 -115q61 -24 139 -24q106 0 185 38l37 18l12 -29q-58 -30 -119 -44q-59 -13 -116 -13q-157 0 -258.5 97
t-101.5 247q0 145 100 244t245 99q131 0 223 -82.5t92 -213.5q0 -101 -49.5 -170t-110.5 -69q-32 0 -51.5 19t-19.5 54q-20 -36 -54 -55.5t-72 -19.5q-63 0 -101 46.5t-38 114.5q0 85 49.5 145.5t125.5 60.5q11 0 22 -2t32.5 -9t38.5 -27.5t25 -52.5zM340 169
q54 0 92.5 51.5t38.5 135.5q0 15 -2.5 29.5t-11 37t-30 36t-53.5 13.5q-65 0 -104 -51.5t-39 -121.5q0 -61 32.5 -95.5t76.5 -34.5z" />
    <glyph glyph-name="A" unicode="A" horiz-adv-x="586" 
d="M524 0l-89 219h-284l-89 -219h-48l281 687l277 -687h-48zM167 259h252l-125 316z" />
    <glyph glyph-name="B" unicode="B" horiz-adv-x="534" 
d="M90 0v667h146q86 0 135 -45.5t49 -121.5q0 -98 -78 -146q64 -10 101 -56t37 -111q0 -86 -57.5 -136.5t-149.5 -50.5h-183zM134 627v-262h106q57 0 91 28q44 36 44 102q0 67 -45 104q-36 28 -111 28h-85zM134 325v-285h112q31 0 49 1.5t46.5 10.5t49.5 28q43 38 43 102
q0 91 -71 124q-43 19 -125 19h-104z" />
    <glyph glyph-name="C" unicode="C" horiz-adv-x="678" 
d="M624 589v-58q-43 50 -101.5 77.5t-123.5 27.5q-127 0 -213 -89t-86 -217q0 -71 27.5 -130t72 -95.5t96.5 -56t104 -19.5q56 0 116 24.5t108 76.5v-58q-94 -83 -222 -83q-148 0 -248 101t-100 242q0 144 101 244t245 100q132 0 224 -87z" />
    <glyph glyph-name="D" unicode="D" horiz-adv-x="618" 
d="M222 0h-132v667h132q153 0 246 -93q49 -49 72.5 -114t23.5 -127q0 -61 -23 -125.5t-73 -114.5q-93 -93 -246 -93zM134 627v-587h87q132 0 214.5 81.5t82.5 211.5q0 129 -83 211.5t-214 82.5h-87z" />
    <glyph glyph-name="E" unicode="E" horiz-adv-x="464" 
d="M410 667v-40h-276v-242h270v-40h-270v-305h276v-40h-320v667h320z" />
    <glyph glyph-name="F" unicode="F" horiz-adv-x="406" 
d="M360 667v-40h-226v-242h220v-40h-220v-345h-44v667h270z" />
    <glyph glyph-name="G" unicode="G" horiz-adv-x="772" 
d="M438 280v40h280q0 -132 -68 -219q-88 -112 -251 -112q-148 0 -246.5 97t-98.5 246q0 147 100.5 245.5t247.5 98.5q115 0 209 -72q46 -36 80 -84l-35 -28q-24 41 -64 74q-84 70 -191 70q-128 0 -214.5 -89t-86.5 -217q0 -126 85 -213.5t213 -87.5q79 0 140.5 33.5
t91.5 79.5q40 62 44 138h-236z" />
    <glyph glyph-name="H" unicode="H" horiz-adv-x="672" 
d="M134 667v-283h404v283h44v-667h-44v344h-404v-344h-44v667h44z" />
    <glyph glyph-name="I" unicode="I" horiz-adv-x="224" 
d="M90 667h44v-667h-44v667z" />
    <glyph glyph-name="J" unicode="J" horiz-adv-x="263" 
d="M129 667h44v-537q0 -76 -33 -110q-31 -31 -83 -31q-42 0 -73 25q-22 18 -39 45l31 26q13 -25 31 -38q24 -18 52 -18q29 0 48 19q22 22 22 75v544z" />
    <glyph glyph-name="K" unicode="K" horiz-adv-x="540" 
d="M134 667v-314l315 314h58l-323 -319l342 -348h-60l-314 318l-18 -17v-301h-44v667h44z" />
    <glyph glyph-name="L" unicode="L" horiz-adv-x="334" 
d="M90 667h44v-627h186v-40h-230v667z" />
    <glyph glyph-name="M" unicode="M" horiz-adv-x="896" 
d="M127 0h-44l76 690l289 -617l289 617l76 -690h-44l-59 536q-261 -560 -262 -560l-262 560z" />
    <glyph glyph-name="N" unicode="N" horiz-adv-x="784" 
d="M134 0h-44v674l560 -586v579h44v-684l-560 586v-569z" />
    <glyph glyph-name="O" unicode="O" horiz-adv-x="800" 
d="M400 676q146 0 246 -100t100 -244t-100 -243.5t-246 -99.5q-147 0 -246.5 99.5t-99.5 243.5t100 244t246 100zM400 29q128 0 214 87.5t86 215.5q0 129 -86 216.5t-214 87.5t-214 -87.5t-86 -216.5q0 -128 86 -215.5t214 -87.5z" />
    <glyph glyph-name="P" unicode="P" horiz-adv-x="446" 
d="M220 317h-86v-317h-44v667h129q85 0 140 -45.5t55 -128.5q0 -82 -53 -129t-141 -47zM134 627v-270h88q66 0 106 36.5t40 98.5q0 63 -40.5 99t-112.5 36h-81z" />
    <glyph glyph-name="Q" unicode="Q" horiz-adv-x="800" 
d="M736 0h-58l-59 64q-95 -75 -219 -75q-146 0 -246 99.5t-100 243.5t100 244t246 100q145 0 245.5 -100t100.5 -244q0 -139 -96 -240zM400 29q108 0 191 65l-167 179h58l139 -150q79 86 79 209q0 128 -86 216t-214 88t-214 -87.5t-86 -216.5q0 -128 86 -215.5t214 -87.5z
" />
    <glyph glyph-name="R" unicode="R" horiz-adv-x="468" 
d="M420 0h-50l-216 315h-20v-315h-44v667h96q91 0 141 -34q69 -48 69 -143q0 -55 -27 -98.5t-85 -63.5q-38 -13 -82 -13zM134 627v-272h64q71 0 111.5 36t40.5 100q0 84 -59 116q-35 20 -102 20h-55z" />
    <glyph glyph-name="S" unicode="S" horiz-adv-x="514" 
d="M426 581l-32 -27q-42 82 -131 82q-57 0 -90.5 -36t-33.5 -88q0 -26 7.5 -45t27 -35t34.5 -24.5t48 -24.5q108 -52 133 -70q71 -49 71 -129q0 -83 -61 -139t-147 -56q-95 0 -155 70q-29 34 -43 73l38 18q12 -36 36 -64q45 -57 125 -57q68 0 114.5 44t46.5 110
q0 65 -65 105q-29 17 -113 58q-55 27 -80.5 44t-41.5 44q-21 35 -21 76q0 65 44 115.5t127 50.5q51 0 94 -24.5t68 -70.5z" />
    <glyph glyph-name="T" unicode="T" horiz-adv-x="418" 
d="M404 627h-173v-627h-44v627h-173v40h390v-40z" />
    <glyph glyph-name="U" unicode="U" horiz-adv-x="634" 
d="M90 667h44v-417q0 -53 5.5 -84.5t22.5 -59.5q26 -42 69.5 -59.5t85.5 -17.5t85.5 17.5t69.5 59.5q17 28 22.5 59.5t5.5 84.5v417h44v-417q0 -62 -7 -99t-31 -72q-62 -90 -189 -90t-189 90q-24 35 -31 72t-7 99v417z" />
    <glyph glyph-name="V" unicode="V" horiz-adv-x="510" 
d="M14 667h48l196 -568l190 568h48l-238 -694z" />
    <glyph glyph-name="W" unicode="W" horiz-adv-x="984" 
d="M14 667h48l184 -566l241 602l226 -602l209 566h48l-257 -692l-226 606l-248 -606z" />
    <glyph glyph-name="X" unicode="X" horiz-adv-x="470" 
d="M23 0l183 340l-175 327h48l151 -285l152 285h48l-174 -327l183 -340h-48l-161 300l-159 -300h-48z" />
    <glyph glyph-name="Y" unicode="Y" horiz-adv-x="516" 
d="M233 0v285l-219 382h50l192 -337l196 337h50l-225 -382v-285h-44z" />
    <glyph glyph-name="Z" unicode="Z" horiz-adv-x="554" 
d="M517 667l-406 -627h395v-40h-469l406 627h-367v40h441z" />
    <glyph glyph-name="bracketleft" unicode="[" horiz-adv-x="278" 
d="M238 689h-106v-809h106v-40h-150v889h150v-40z" />
    <glyph glyph-name="backslash" unicode="\" horiz-adv-x="576" 
d="M556 -158l-32 -16l-504 901l32 16z" />
    <glyph glyph-name="bracketright" unicode="]" horiz-adv-x="278" 
d="M40 -120h106v809h-106v40h150v-889h-150v40z" />
    <glyph glyph-name="asciicircum" unicode="^" 
d="M250 636l-167 -254h-46l186 285h54l186 -285h-46z" />
    <glyph glyph-name="underscore" unicode="_" 
d="M0 -116v38h500v-38h-500z" />
    <glyph glyph-name="grave" unicode="`" 
d="M248 467l-105 128l43 25l92 -137z" />
    <glyph glyph-name="a" unicode="a" horiz-adv-x="516" 
d="M404 337v71h40v-408h-40v73q-55 -84 -159 -84q-83 0 -141 59t-58 156q0 95 55 154t144 59q102 0 159 -80zM247 379q-65 0 -112 -46.5t-47 -125.5q0 -73 43 -126.5t117 -53.5q73 0 115.5 52.5t42.5 127.5q0 83 -49 127.5t-110 44.5z" />
    <glyph glyph-name="b" unicode="b" horiz-adv-x="516" 
d="M72 729h40v-392q59 80 160 80q90 0 144 -59.5t54 -150.5q0 -93 -54.5 -155.5t-145.5 -62.5q-46 0 -83 18.5t-51 34t-24 31.5v-73h-40v729zM269 27q75 0 117 51t42 129q0 81 -46 126.5t-112 45.5q-65 0 -112.5 -45t-47.5 -125q0 -79 42 -130.5t117 -51.5z" />
    <glyph glyph-name="c" unicode="c" horiz-adv-x="442" 
d="M399 365v-53q-58 67 -141 67q-74 0 -122 -50.5t-48 -126.5q0 -82 51 -128.5t117 -46.5q81 0 148 73v-54q-64 -57 -149 -57q-92 0 -150.5 60.5t-58.5 151.5q0 93 58 154.5t154 61.5q79 0 141 -52z" />
    <glyph glyph-name="d" unicode="d" horiz-adv-x="516" 
d="M404 337v392h40v-729h-40v73q-55 -84 -158 -84q-83 0 -141.5 57.5t-58.5 159.5q0 104 59 157.5t141 53.5q102 0 158 -80zM246 379q-67 0 -112.5 -45t-45.5 -127q0 -85 47 -132.5t113 -47.5q65 0 111.5 47.5t46.5 132.5q0 74 -43 123t-117 49z" />
    <glyph glyph-name="e" unicode="e" horiz-adv-x="483" 
d="M437 199h-349q0 -76 47.5 -124t114.5 -48q48 0 85 25.5t57 67.5l34 -20q-23 -44 -67 -77.5t-112 -33.5q-93 0 -147 60.5t-54 152.5q0 101 58.5 158t139.5 57q83 0 138 -61t55 -157zM91 237h304q-8 62 -49.5 102t-101.5 40q-61 0 -103 -40.5t-50 -101.5z" />
    <glyph glyph-name="f" unicode="f" horiz-adv-x="214" 
d="M214 370h-102v-370h-40v370h-46v38h46v194q0 78 31 108.5t76 30.5q14 0 35 -6v-37q-13 5 -31 5q-32 0 -51.5 -22.5t-19.5 -86.5v-186h102v-38z" />
    <glyph glyph-name="g" unicode="g" horiz-adv-x="520" 
d="M408 408h40v-396q0 -115 -54.5 -178.5t-150.5 -63.5q-83 0 -139.5 46.5t-60.5 128.5h42q5 -63 48.5 -100t109.5 -37q45 0 78.5 18t49.5 41t25 56t10.5 51t1.5 38v58q-58 -81 -161 -81q-81 0 -141 57t-60 158q0 91 56 152t150 61q100 0 156 -80v71zM248 379
q-73 0 -116.5 -51.5t-43.5 -125.5q0 -75 43.5 -125t114.5 -50q74 0 119 51t45 128q0 73 -44.5 123t-117.5 50z" />
    <glyph glyph-name="h" unicode="h" horiz-adv-x="442" 
d="M72 0v729h40v-385q41 73 125 73q76 0 113 -57q20 -32 20 -103v-257h-40v257q0 57 -16 82q-24 40 -80 40q-68 0 -100 -57q-22 -39 -22 -110v-212h-40z" />
    <glyph glyph-name="i" unicode="i" horiz-adv-x="184" 
d="M72 408h40v-408h-40v408zM92 507q-15 0 -25.5 10.5t-10.5 26.5t10.5 26.5t25.5 10.5t25.5 -10.5t10.5 -26.5t-10.5 -26.5t-25.5 -10.5z" />
    <glyph glyph-name="j" unicode="j" horiz-adv-x="184" 
d="M72 408h40v-638h-40v638zM92 507q-15 0 -25.5 10.5t-10.5 26.5t10.5 26.5t25.5 10.5t25.5 -10.5t10.5 -26.5t-10.5 -26.5t-25.5 -10.5z" />
    <glyph glyph-name="k" unicode="k" horiz-adv-x="396" 
d="M72 729h40v-496l168 175h52l-172 -177l228 -231h-54l-201 202l-21 -21v-181h-40v729z" />
    <glyph glyph-name="l" unicode="l" horiz-adv-x="184" 
d="M72 729h40v-729h-40v729z" />
    <glyph glyph-name="m" unicode="m" horiz-adv-x="652" 
d="M72 0v408h40v-51q35 60 106 60q86 0 114 -74q35 74 121 74q58 0 92 -34q35 -35 35 -111v-272h-40v272q0 59 -24 84q-22 23 -61 23q-30 0 -52.5 -12t-33 -27t-16 -37t-6.5 -33t-1 -24v-246h-40v262q0 117 -90 117q-51 0 -77.5 -39.5t-26.5 -103.5v-236h-40z" />
    <glyph glyph-name="n" unicode="n" horiz-adv-x="442" 
d="M72 0v408h40v-64q41 73 125 73q76 0 113 -57q20 -32 20 -103v-257h-40v257q0 57 -16 82q-24 40 -80 40q-68 0 -100 -57q-22 -39 -22 -110v-212h-40z" />
    <glyph glyph-name="o" unicode="o" horiz-adv-x="520" 
d="M260 417q91 0 152.5 -61.5t61.5 -152.5t-61.5 -152.5t-152.5 -61.5t-152.5 61.5t-61.5 152.5t61.5 152.5t152.5 61.5zM260 27q73 0 122.5 51t49.5 125t-49.5 125t-122.5 51t-122.5 -51t-49.5 -125t49.5 -125t122.5 -51z" />
    <glyph glyph-name="p" unicode="p" horiz-adv-x="516" 
d="M112 73v-303h-40v638h40v-71q59 80 160 80q90 0 144 -59.5t54 -150.5q0 -93 -54.5 -155.5t-145.5 -62.5q-46 0 -83 18.5t-51 34t-24 31.5zM269 27q75 0 117 51t42 129q0 81 -46 126.5t-112 45.5q-65 0 -112.5 -45t-47.5 -125q0 -79 42 -130.5t117 -51.5z" />
    <glyph glyph-name="q" unicode="q" horiz-adv-x="516" 
d="M444 -230h-40v303q-55 -84 -158 -84q-83 0 -141.5 57.5t-58.5 159.5q0 104 59 157.5t141 53.5q102 0 158 -80v71h40v-638zM246 379q-67 0 -112.5 -45t-45.5 -127q0 -85 47 -132.5t113 -47.5q65 0 111.5 47.5t46.5 132.5q0 74 -43 123t-117 49z" />
    <glyph glyph-name="r" unicode="r" horiz-adv-x="260" 
d="M72 0v408h40v-53q27 62 90 62q24 0 43 -10l-20 -36q-11 8 -30 8q-29 0 -47.5 -16.5t-25 -46t-8.5 -49.5t-2 -48v-219h-40z" />
    <glyph glyph-name="s" unicode="s" horiz-adv-x="334" 
d="M280 351l-34 -18q-20 46 -71 46q-32 0 -50.5 -20t-18.5 -45q0 -19 11 -32.5t23 -20t38 -16.5q4 -1 19.5 -7.5l20.5 -8.5t17.5 -7.5t18.5 -10t14.5 -11.5t14.5 -15q21 -26 21 -66q0 -65 -39.5 -97.5t-93.5 -32.5q-52 0 -90 29t-51 79l39 12q10 -39 38.5 -60.5t63.5 -21.5
q39 0 65 25.5t26 64.5q0 32 -20 49.5t-71 38.5q-70 29 -89 54q-18 24 -18 53q0 46 31 75.5t78 29.5q78 0 107 -66z" />
    <glyph glyph-name="t" unicode="t" horiz-adv-x="194" 
d="M186 370h-71v-370h-40v370h-45v38h45v146h40v-146h71v-38z" />
    <glyph glyph-name="u" unicode="u" horiz-adv-x="438" 
d="M72 408h40v-246q0 -71 26 -102q28 -33 81 -33t81 33q26 31 26 102v246h40v-257q0 -72 -31 -112q-39 -50 -116 -50t-116 50q-31 40 -31 112v257z" />
    <glyph glyph-name="v" unicode="v" horiz-adv-x="390" 
d="M8 408h44l144 -339l142 339h44l-186 -433z" />
    <glyph glyph-name="w" unicode="w" horiz-adv-x="672" 
d="M8 408h44l141 -337l141 362l141 -362l145 337h44l-189 -433l-141 362l-141 -362z" />
    <glyph glyph-name="x" unicode="x" horiz-adv-x="400" 
d="M8 0l165 214l-151 194h49l129 -168l127 168h49l-148 -194l164 -214h-49l-143 188l-143 -188h-49z" />
    <glyph glyph-name="y" unicode="y" horiz-adv-x="428" 
d="M106 -230l96 223l-194 415h46l171 -363l149 363h46l-268 -638h-46z" />
    <glyph glyph-name="z" unicode="z" horiz-adv-x="452" 
d="M434 408l-330 -370h328v-38h-414l334 370h-282v38h364z" />
    <glyph glyph-name="braceleft" unicode="{" horiz-adv-x="278" 
d="M40 270v29q26 7 39.5 24t16.5 33.5t3 42.5v194q0 73 31 104q32 32 98 32h12v-40q-57 0 -78 -24q-19 -21 -19 -75v-194q0 -48 -13.5 -73.5t-50.5 -38.5q64 -23 64 -116v-182q0 -62 19 -83q20 -23 78 -23v-40h-9q-71 0 -102 34q-30 33 -30 120v176q0 17 -1.5 29t-6.5 28.5
t-18 27t-33 15.5z" />
    <glyph glyph-name="bar" unicode="|" 
d="M230 -250v1000h40v-1000h-40z" />
    <glyph glyph-name="braceright" unicode="}" horiz-adv-x="278" 
d="M238 299v-29q-20 -5 -33 -15.5t-18 -27t-6.5 -28.5t-1.5 -29v-176q0 -87 -30 -120q-31 -34 -102 -34h-9v40q58 0 78 23q19 21 19 83v182q0 93 64 116q-37 13 -50.5 38.5t-13.5 73.5v194q0 54 -19 75q-21 24 -78 24v40h12q66 0 98 -32q31 -31 31 -104v-194q0 -26 3 -42.5
t16.5 -33.5t39.5 -24z" />
    <glyph glyph-name="asciitilde" unicode="~" 
d="M39 195l-27 16q18 38 47 67q37 35 85 35q37 0 113 -40q72 -37 103 -37q38 0 65 27q19 19 36 51l27 -16q-18 -36 -39 -58q-40 -42 -95 -42q-44 0 -138 52q-46 25 -75 25q-37 0 -64 -26q-22 -21 -38 -54z" />
    <glyph glyph-name="uni00A0" unicode="&#xa0;" horiz-adv-x="233" 
 />
    <glyph glyph-name="exclamdown" unicode="&#xa1;" horiz-adv-x="260" 
d="M108 318h44v-548h-44v548zM167 407q0 -16 -10.5 -26.5t-26.5 -10.5t-26.5 10.5t-10.5 26.5t10.5 26.5t26.5 10.5t26.5 -10.5t10.5 -26.5z" />
    <glyph glyph-name="cent" unicode="&#xa2;" horiz-adv-x="548" 
d="M319 655v-102q68 0 129 -51v-53q-58 62 -129 66v-350q76 3 134 72v-54q-61 -53 -134 -56v-114h-38v114q-83 11 -134.5 69.5t-51.5 141.5q0 86 51.5 144.5t134.5 69.5v103h38zM281 165v349q-71 -13 -107.5 -63.5t-36.5 -111.5q0 -60 37.5 -111.5t106.5 -62.5z" />
    <glyph glyph-name="sterling" unicode="&#xa3;" horiz-adv-x="548" 
d="M97 273v40h98l-21 35q-26 44 -40 70q-23 46 -23 84q0 72 51 122q52 50 128 50q70 0 116 -45q53 -53 53 -140h-44q0 75 -42 113q-35 32 -84 32q-58 0 -96 -39q-36 -37 -36 -88q0 -39 27 -89q10 -19 46 -77l17 -28h121v-40h-108q22 -44 22 -88q0 -55 -46 -115l65 -22
q51 -17 72 -17q33 0 57 21t37 48l36 -22q-19 -37 -52 -64t-73 -27q-12 0 -28 3.5t-27 7l-34 11t-31 10.5q-51 17 -74 17q-41 0 -91 -46l-24 32q53 57 119 57q50 52 50 106q0 44 -27 88h-114z" />
    <glyph glyph-name="currency" unicode="&#xa4;" horiz-adv-x="548" 
d="M40 90l-24 25l90 89q-56 62 -56 146q0 83 53 143l-90 90l24 24l90 -89q61 56 147 56t147 -56l90 89l24 -24l-90 -90q54 -59 54 -144q0 -78 -55 -143l91 -91l-24 -24l-91 91q-60 -55 -144 -55t-146 53zM461 350q0 77 -55 132.5t-132 55.5t-131.5 -55.5t-54.5 -132.5
t54.5 -132t131.5 -55t132 55t55 132z" />
    <glyph glyph-name="yen" unicode="&#xa5;" horiz-adv-x="548" 
d="M500 391h-145l-61 -103h206v-40h-207v-248h-44v248h-200v40h198l-59 103h-139v40h116l-134 236h51l190 -335l194 335h51l-139 -236h122v-40z" />
    <glyph glyph-name="brokenbar" unicode="&#xa6;" 
d="M230 390v360h40v-360h-40zM230 -250v360h40v-360h-40z" />
    <glyph glyph-name="section" unicode="&#xa7;" horiz-adv-x="548" 
d="M116 13h44q0 -72 28 -101q32 -32 88 -32q53 0 84 31t31 79q0 52 -33 83q-27 26 -104 47q-73 20 -106 50q-48 44 -48 116q0 63 33 105q31 40 80 58q-43 20 -67 49q-29 36 -29 87q0 69 44 113q44 42 118 42q80 0 122 -43q41 -42 41 -129h-44v9q0 64 -33 95q-30 28 -83 28
q-56 0 -88 -30q-31 -28 -31 -78q0 -46 31 -76q12 -12 48.5 -29t55.5 -22q72 -21 108 -57q42 -42 42 -116q0 -61 -30 -99q-27 -36 -74 -54q45 -22 69 -57q24 -36 24 -87q0 -71 -40 -111q-43 -44 -123 -44q-76 0 -114 36q-44 42 -44 137zM274 421q-57 0 -94 -38
q-34 -35 -34 -92q0 -59 34 -91q39 -37 94 -37t94 39q34 36 34 90q0 58 -35 93q-34 36 -93 36z" />
    <glyph glyph-name="dieresis" unicode="&#xa8;" 
d="M131 526q0 15 10.5 25.5t25.5 10.5t25.5 -10.5t10.5 -25.5t-10.5 -25.5t-25.5 -10.5t-25.5 10.5t-10.5 25.5zM297 526q0 15 10.5 25.5t25.5 10.5t25.5 -10.5t10.5 -25.5t-10.5 -25.5t-25.5 -10.5t-25.5 10.5t-10.5 25.5z" />
    <glyph glyph-name="copyright" unicode="&#xa9;" horiz-adv-x="740" 
d="M27 333q0 143 100.5 243.5t242.5 100.5t242.5 -100.5t100.5 -243.5q0 -142 -100.5 -242.5t-242.5 -100.5t-242.5 100.5t-100.5 242.5zM679 333q0 129 -91 221.5t-218 92.5t-218 -92.5t-91 -221.5t91 -221t218 -92t218 92t91 221zM513 474v-53q-50 68 -130 68
q-69 0 -113.5 -45.5t-44.5 -115.5q0 -68 45.5 -113t113.5 -45q77 0 129 65v-52q-60 -49 -129 -49q-84 0 -140.5 55.5t-56.5 139.5q0 85 56.5 140.5t140.5 55.5q74 0 129 -51z" />
    <glyph glyph-name="ordfeminine" unicode="&#xaa;" horiz-adv-x="338" 
d="M266 615v46h26v-268h-26v48q-16 -24 -41 -38q-28 -16 -62 -16q-58 0 -94 36q-39 39 -39 104q0 66 39 105q35 35 96 35q34 0 60 -15q24 -13 41 -37zM163 643q-48 0 -76 -30q-29 -31 -29 -85q0 -58 34 -90q29 -27 71 -27q43 0 71 28q34 34 34 90q0 53 -32 85q-29 29 -73 29
zM37 325h255v-34h-255v34z" />
    <glyph glyph-name="guillemotleft" unicode="&#xab;" horiz-adv-x="348" 
d="M80 207l108 -126l-26 -24l-130 150l130 150l26 -24zM186 207l108 -126l-26 -24l-130 150l130 150l26 -24z" />
    <glyph glyph-name="logicalnot" unicode="&#xac;" 
d="M467 0h-40v229h-394v38h434v-267z" />
    <glyph glyph-name="uni00AD" unicode="&#xad;" horiz-adv-x="300" 
d="M50 184v46h200v-46h-200z" />
    <glyph glyph-name="registered" unicode="&#xae;" horiz-adv-x="740" 
d="M27 333q0 143 100.5 243.5t242.5 100.5t242.5 -100.5t100.5 -243.5q0 -142 -100.5 -242.5t-242.5 -100.5t-242.5 100.5t-100.5 242.5zM679 333q0 129 -91 221.5t-218 92.5t-218 -92.5t-91 -221.5t91 -221t218 -92t218 92t91 221zM495 135h-40l-117 171h-7v-171h-34v370
h62q61 0 89.5 -23.5t28.5 -77.5q0 -66 -64 -91q-10 -4 -19.5 -5.5t-13.5 -1.5h-4zM331 474v-137h34q77 0 77 68q0 24 -8 39t-23 21t-25 7.5t-26 1.5h-29z" />
    <glyph glyph-name="macron" unicode="&#xaf;" 
d="M115 493v39h270v-39h-270z" />
    <glyph glyph-name="degree" unicode="&#xb0;" 
d="M250 667q60 0 97.5 -37t37.5 -94t-37.5 -94t-97.5 -37t-97.5 37t-37.5 94t37.5 94t97.5 37zM250 639q-46 0 -74.5 -29.5t-28.5 -73.5t28.5 -73.5t74.5 -29.5t74.5 29.5t28.5 73.5t-28.5 73.5t-74.5 29.5z" />
    <glyph glyph-name="plusminus" unicode="&#xb1;" 
d="M33 339v38h197v181h40v-181h197v-38h-197v-181h-40v181h-197zM33 76v38h434v-38h-434z" />
    <glyph glyph-name="twosuperior" unicode="&#xb2;" horiz-adv-x="330" 
d="M283 267h-246l146 169q32 38 41 53q21 33 21 70q0 34 -21.5 55.5t-58.5 21.5q-39 0 -62 -25q-21 -23 -21 -57h-36q0 50 32 84t88 34q52 0 85.5 -32t33.5 -81q0 -42 -26 -83q-2 -2 -9 -12l-13 -18.5t-10 -12.5l-110 -130h166v-36z" />
    <glyph glyph-name="threesuperior" unicode="&#xb3;" horiz-adv-x="330" 
d="M48 365h36q2 -22 12 -37q22 -30 62 -30q33 0 55.5 24t22.5 60q0 46 -40 65q-21 10 -56 10v36q34 0 58 17q33 24 33 61q0 28 -17 46.5t-48 18.5t-49 -19q-18 -18 -18 -45h-36q2 43 29 72q25 28 74 28q48 0 76.5 -29t28.5 -71q0 -71 -63 -96q32 -10 50 -36t18 -61
q0 -51 -34 -84t-84 -33q-63 0 -96 52q-14 23 -14 51z" />
    <glyph glyph-name="acute" unicode="&#xb4;" 
d="M305 620l43 -25l-105 -128l-30 16z" />
    <glyph glyph-name="mu" unicode="&#xb5;" 
d="M112 -230h-40v638h40v-207q0 -94 39 -134t93 -40q59 0 101.5 50t42.5 136v195h40v-408h-40v90q-14 -37 -43 -64q-41 -37 -103 -37q-87 0 -130 81v-300z" />
    <glyph glyph-name="mu" unicode="&#x3bc;" 
d="M112 -230h-40v638h40v-207q0 -94 39 -134t93 -40q59 0 101.5 50t42.5 136v195h40v-408h-40v90q-14 -37 -43 -64q-41 -37 -103 -37q-87 0 -130 81v-300z" />
    <glyph glyph-name="paragraph" unicode="&#xb6;" horiz-adv-x="531" 
d="M257 -95h-36v406h-9q-99 0 -150 54q-44 46 -44 122q0 83 55 132q54 48 159 48h231v-33h-53v-729h-36v729h-117v-729z" />
    <glyph glyph-name="periodcentered" unicode="&#xb7;" horiz-adv-x="200" 
d="M52 340q0 20 14 34t34 14t34 -14t14 -34t-14 -34t-34 -14t-34 14t-14 34z" />
    <glyph glyph-name="cedilla" unicode="&#xb8;" 
d="M268 -50l46 -20l-100 -124l-28 16z" />
    <glyph glyph-name="onesuperior" unicode="&#xb9;" horiz-adv-x="330" 
d="M152 267v364h-62l12 36h88v-400h-38z" />
    <glyph glyph-name="ordmasculine" unicode="&#xba;" horiz-adv-x="342" 
d="M174 667q61 0 100 -42q38 -41 38 -97q0 -60 -37 -99q-39 -42 -105 -42q-61 0 -100 39q-40 40 -40 100t38 100q39 41 106 41zM37 325h267v-34h-267v34zM170 643q-46 0 -79 -33t-33 -83t35 -85q32 -31 76 -31q47 0 79 30q36 34 36 86q0 53 -35 86q-32 30 -79 30z" />
    <glyph glyph-name="guillemotright" unicode="&#xbb;" horiz-adv-x="348" 
d="M162 207l-108 126l26 24l130 -150l-130 -150l-26 24zM268 207l-108 126l26 24l130 -150l-130 -150l-26 24z" />
    <glyph glyph-name="onequarter" unicode="&#xbc;" horiz-adv-x="760" 
d="M152 267v364h-62l12 36h88v-400h-38zM188 1l394 681l30 -16l-394 -681zM680 413v-301h56v-36h-56v-76h-38v76h-204zM508 112h134v190z" />
    <glyph glyph-name="onehalf" unicode="&#xbd;" horiz-adv-x="760" 
d="M152 267v364h-62l12 36h88v-400h-38zM158 1l394 681l30 -16l-394 -681zM713 0h-246l146 169q33 38 41 53q21 33 21 70q0 34 -21.5 55.5t-58.5 21.5q-39 0 -62 -25q-21 -23 -21 -57h-36q0 50 32 84t88 34q52 0 85.5 -32t33.5 -81q0 -42 -26 -83q-2 -2 -9 -12l-13 -18.5
t-10 -12.5l-110 -130h166v-36z" />
    <glyph glyph-name="threequarters" unicode="&#xbe;" horiz-adv-x="760" 
d="M48 365h36q2 -22 12 -37q22 -30 62 -30q33 0 55.5 24t22.5 60q0 46 -40 65q-21 10 -56 10v36q34 0 58 17q33 24 33 61q0 28 -17 46.5t-48 18.5t-49 -19q-18 -18 -18 -45h-36q2 43 29 72q25 28 74 28q48 0 76.5 -29t28.5 -71q0 -71 -63 -96q32 -10 50 -36t18 -61
q0 -51 -34 -84t-84 -33q-63 0 -96 52q-14 23 -14 51zM208 1l394 681l30 -16l-394 -681zM680 413v-301h56v-36h-56v-76h-38v76h-204zM508 112h134v190z" />
    <glyph glyph-name="questiondown" unicode="&#xbf;" horiz-adv-x="466" 
d="M136 174h-40q0 53 21 88q34 58 114 58q62 0 101 -36q40 -37 40 -101q0 -62 -44 -99q-27 -23 -92 -38q-67 -16 -91 -42q-25 -29 -25 -82q0 -57 30 -90q31 -34 85 -34t85 34q28 30 28 90q0 20 -7 40h44q7 -22 7 -46q0 -74 -44 -116q-46 -42 -116 -42q-74 0 -117 45
q-41 42 -41 117q0 65 36 106q32 35 89 51l25.5 6.5t27 7.5t22 8t20.5 12q34 27 34 74q0 41 -25 68q-27 29 -71 29q-54 0 -79 -36q-17 -24 -17 -72zM269 407q0 -16 -10.5 -26.5t-26.5 -10.5t-26.5 10.5t-10.5 26.5t10.5 26.5t26.5 10.5t26.5 -10.5t10.5 -26.5z" />
    <glyph glyph-name="Agrave" unicode="&#xc0;" horiz-adv-x="586" 
d="M524 0l-89 219h-284l-89 -219h-48l281 687l277 -687h-48zM167 259h252l-125 316zM311 703l-134 126l50 25l116 -133z" />
    <glyph glyph-name="Aacute" unicode="&#xc1;" horiz-adv-x="586" 
d="M524 0l-89 219h-284l-89 -219h-48l281 687l277 -687h-48zM167 259h252l-125 316zM359 854l50 -25l-134 -126l-32 18z" />
    <glyph glyph-name="Acircumflex" unicode="&#xc2;" horiz-adv-x="586" 
d="M524 0l-89 219h-284l-89 -219h-48l281 687l277 -687h-48zM167 259h252l-125 316zM293 786l-96 -64l-34 27l130 90l130 -90l-34 -27z" />
    <glyph glyph-name="Atilde" unicode="&#xc3;" horiz-adv-x="586" 
d="M524 0l-89 219h-284l-89 -219h-48l281 687l277 -687h-48zM167 259h252l-125 316zM192 717l-29 22q11 25 23 38q20 22 45 22q22 0 64 -17q47 -18 59 -18q13 0 25 12q11 13 15 26l29 -22q-9 -27 -28 -43q-19 -17 -46 -17q-18 0 -58 17q-43 18 -58 18q-17 0 -28 -14
q-6 -7 -13 -24z" />
    <glyph glyph-name="Adieresis" unicode="&#xc4;" horiz-adv-x="586" 
d="M524 0l-89 219h-284l-89 -219h-48l281 687l277 -687h-48zM167 259h252l-125 316zM162 780q0 16 11 27t27 11t27 -11t11 -27t-11 -27t-27 -11t-27 11t-11 27zM348 780q0 16 11 27t27 11t27 -11t11 -27t-11 -27t-27 -11t-27 11t-11 27z" />
    <glyph glyph-name="Aring" unicode="&#xc5;" horiz-adv-x="586" 
d="M524 0l-89 219h-284l-89 -219h-48l281 687l277 -687h-48zM167 259h252l-125 316zM213 787q0 33 23.5 56.5t56.5 23.5t56.5 -23.5t23.5 -56.5t-23.5 -56.5t-56.5 -23.5t-56.5 23.5t-23.5 56.5zM252 787q0 -18 11.5 -29.5t29.5 -11.5t29.5 11.5t11.5 29.5t-11.5 29.5
t-29.5 11.5t-29.5 -11.5t-11.5 -29.5z" />
    <glyph glyph-name="AE" unicode="&#xc6;" horiz-adv-x="852" 
d="M523 0l-89 219h-285l-87 -219h-48l269 667h289l17 -40h-275l99 -242h268l17 -40h-268l124 -305h273l18 -40h-322zM165 259h252l-127 314z" />
    <glyph glyph-name="Ccedilla" unicode="&#xc7;" horiz-adv-x="678" 
d="M624 589v-58q-43 50 -101.5 77.5t-123.5 27.5q-127 0 -213 -89t-86 -217q0 -71 27.5 -130t72 -95.5t96.5 -56t104 -19.5q56 0 116 24.5t108 76.5v-58q-94 -83 -222 -83q-148 0 -248 101t-100 242q0 144 101 244t245 100q132 0 224 -87zM390 -50l46 -26l-108 -126l-30 18z
" />
    <glyph glyph-name="Egrave" unicode="&#xc8;" horiz-adv-x="464" 
d="M410 667v-40h-276v-242h270v-40h-270v-305h276v-40h-320v667h320zM278 703l-134 126l50 25l116 -133z" />
    <glyph glyph-name="Eacute" unicode="&#xc9;" horiz-adv-x="464" 
d="M410 667v-40h-276v-242h270v-40h-270v-305h276v-40h-320v667h320zM316 854l50 -25l-134 -126l-32 18z" />
    <glyph glyph-name="Ecircumflex" unicode="&#xca;" horiz-adv-x="464" 
d="M410 667v-40h-276v-242h270v-40h-270v-305h276v-40h-320v667h320zM250 786l-96 -64l-34 27l130 90l130 -90l-34 -27z" />
    <glyph glyph-name="Edieresis" unicode="&#xcb;" horiz-adv-x="464" 
d="M410 667v-40h-276v-242h270v-40h-270v-305h276v-40h-320v667h320zM119 780q0 16 11 27t27 11t27 -11t11 -27t-11 -27t-27 -11t-27 11t-11 27zM305 780q0 16 11 27t27 11t27 -11t11 -27t-11 -27t-27 -11t-27 11t-11 27z" />
    <glyph glyph-name="Igrave" unicode="&#xcc;" horiz-adv-x="224" 
d="M90 667h44v-667h-44v667zM110 703l-105 134l56 17l90 -136z" />
    <glyph glyph-name="Iacute" unicode="&#xcd;" horiz-adv-x="224" 
d="M90 667h44v-667h-44v667zM162 854l57 -17l-106 -134l-40 15z" />
    <glyph glyph-name="Icircumflex" unicode="&#xce;" horiz-adv-x="224" 
d="M90 667h44v-667h-44v667zM112 782l-80 -60l-35 28l115 89l115 -89l-35 -27z" />
    <glyph glyph-name="Idieresis" unicode="&#xcf;" horiz-adv-x="224" 
d="M90 667h44v-667h-44v667zM10 780q0 16 11 27t27 11t27 -11t11 -27t-11 -27t-27 -11t-27 11t-11 27zM138 780q0 16 11 27t27 11t27 -11t11 -27t-11 -27t-27 -11t-27 11t-11 27z" />
    <glyph glyph-name="Eth" unicode="&#xd0;" horiz-adv-x="618" 
d="M222 0h-132v345h-90v40h90v282h132q153 0 246 -93q49 -49 72.5 -114t23.5 -127q0 -61 -23 -125.5t-73 -114.5q-93 -93 -246 -93zM134 627v-242h136v-40h-136v-305h87q132 0 214.5 81.5t82.5 211.5q0 129 -83 211.5t-214 82.5h-87z" />
    <glyph glyph-name="Ntilde" unicode="&#xd1;" horiz-adv-x="784" 
d="M134 0h-44v674l560 -586v579h44v-684l-560 586v-569zM291 717l-29 22q11 25 23 38q20 22 45 22q22 0 64 -17q47 -18 59 -18q13 0 25 12q11 13 15 26l29 -22q-9 -27 -28 -43q-19 -17 -46 -17q-18 0 -58 17q-43 18 -58 18q-17 0 -28 -14q-6 -7 -13 -24z" />
    <glyph glyph-name="Ograve" unicode="&#xd2;" horiz-adv-x="800" 
d="M400 676q146 0 246 -100t100 -244t-100 -243.5t-246 -99.5q-147 0 -246.5 99.5t-99.5 243.5t100 244t246 100zM400 29q128 0 214 87.5t86 215.5q0 129 -86 216.5t-214 87.5t-214 -87.5t-86 -216.5q0 -128 86 -215.5t214 -87.5zM418 703l-134 126l50 25l116 -133z" />
    <glyph glyph-name="Oacute" unicode="&#xd3;" horiz-adv-x="800" 
d="M400 676q146 0 246 -100t100 -244t-100 -243.5t-246 -99.5q-147 0 -246.5 99.5t-99.5 243.5t100 244t246 100zM400 29q128 0 214 87.5t86 215.5q0 129 -86 216.5t-214 87.5t-214 -87.5t-86 -216.5q0 -128 86 -215.5t214 -87.5zM466 854l50 -25l-134 -126l-32 18z" />
    <glyph glyph-name="Ocircumflex" unicode="&#xd4;" horiz-adv-x="800" 
d="M400 676q146 0 246 -100t100 -244t-100 -243.5t-246 -99.5q-147 0 -246.5 99.5t-99.5 243.5t100 244t246 100zM400 29q128 0 214 87.5t86 215.5q0 129 -86 216.5t-214 87.5t-214 -87.5t-86 -216.5q0 -128 86 -215.5t214 -87.5zM400 786l-96 -64l-34 27l130 90l130 -90
l-34 -27z" />
    <glyph glyph-name="Otilde" unicode="&#xd5;" horiz-adv-x="800" 
d="M400 676q146 0 246 -100t100 -244t-100 -243.5t-246 -99.5q-147 0 -246.5 99.5t-99.5 243.5t100 244t246 100zM400 29q128 0 214 87.5t86 215.5q0 129 -86 216.5t-214 87.5t-214 -87.5t-86 -216.5q0 -128 86 -215.5t214 -87.5zM299 717l-29 22q11 25 23 38q20 22 45 22
q22 0 64 -17q47 -18 59 -18q13 0 25 12q11 13 15 26l29 -22q-9 -27 -28 -43q-19 -17 -46 -17q-18 0 -58 17q-43 18 -58 18q-17 0 -28 -14q-6 -7 -13 -24z" />
    <glyph glyph-name="Odieresis" unicode="&#xd6;" horiz-adv-x="800" 
d="M400 676q146 0 246 -100t100 -244t-100 -243.5t-246 -99.5q-147 0 -246.5 99.5t-99.5 243.5t100 244t246 100zM400 29q128 0 214 87.5t86 215.5q0 129 -86 216.5t-214 87.5t-214 -87.5t-86 -216.5q0 -128 86 -215.5t214 -87.5zM269 780q0 16 11 27t27 11t27 -11t11 -27
t-11 -27t-27 -11t-27 11t-11 27zM455 780q0 16 11 27t27 11t27 -11t11 -27t-11 -27t-27 -11t-27 11t-11 27z" />
    <glyph glyph-name="multiply" unicode="&#xd7;" 
d="M67 173l156 156l-156 156l27 27l156 -156l156 156l27 -27l-156 -156l156 -156l-27 -27l-156 156l-156 -156z" />
    <glyph glyph-name="Oslash" unicode="&#xd8;" horiz-adv-x="800" 
d="M64 21l79 79q-89 99 -89 232q0 144 100.5 244t245.5 100q134 0 231 -86l78 79l27 -27l-78 -78q88 -99 88 -232q0 -144 -100.5 -243.5t-245.5 -99.5q-135 0 -231 85l-78 -79zM628 533l-429 -430q86 -74 201 -74q128 0 214 87.5t86 215.5q0 117 -72 201zM173 130l428 431
q-84 75 -201 75q-128 0 -214 -88t-86 -216q0 -114 73 -202z" />
    <glyph glyph-name="Ugrave" unicode="&#xd9;" horiz-adv-x="634" 
d="M90 667h44v-417q0 -53 5.5 -84.5t22.5 -59.5q26 -42 69.5 -59.5t85.5 -17.5t85.5 17.5t69.5 59.5q17 28 22.5 59.5t5.5 84.5v417h44v-417q0 -62 -7 -99t-31 -72q-62 -90 -189 -90t-189 90q-24 35 -31 72t-7 99v417zM335 703l-134 126l50 25l116 -133z" />
    <glyph glyph-name="Uacute" unicode="&#xda;" horiz-adv-x="634" 
d="M90 667h44v-417q0 -53 5.5 -84.5t22.5 -59.5q26 -42 69.5 -59.5t85.5 -17.5t85.5 17.5t69.5 59.5q17 28 22.5 59.5t5.5 84.5v417h44v-417q0 -62 -7 -99t-31 -72q-62 -90 -189 -90t-189 90q-24 35 -31 72t-7 99v417zM383 854l50 -25l-134 -126l-32 18z" />
    <glyph glyph-name="Ucircumflex" unicode="&#xdb;" horiz-adv-x="634" 
d="M90 667h44v-417q0 -53 5.5 -84.5t22.5 -59.5q26 -42 69.5 -59.5t85.5 -17.5t85.5 17.5t69.5 59.5q17 28 22.5 59.5t5.5 84.5v417h44v-417q0 -62 -7 -99t-31 -72q-62 -90 -189 -90t-189 90q-24 35 -31 72t-7 99v417zM317 786l-96 -64l-34 27l130 90l130 -90l-34 -27z" />
    <glyph glyph-name="Udieresis" unicode="&#xdc;" horiz-adv-x="634" 
d="M90 667h44v-417q0 -53 5.5 -84.5t22.5 -59.5q26 -42 69.5 -59.5t85.5 -17.5t85.5 17.5t69.5 59.5q17 28 22.5 59.5t5.5 84.5v417h44v-417q0 -62 -7 -99t-31 -72q-62 -90 -189 -90t-189 90q-24 35 -31 72t-7 99v417zM186 780q0 16 11 27t27 11t27 -11t11 -27t-11 -27
t-27 -11t-27 11t-11 27zM372 780q0 16 11 27t27 11t27 -11t11 -27t-11 -27t-27 -11t-27 11t-11 27z" />
    <glyph glyph-name="Yacute" unicode="&#xdd;" horiz-adv-x="516" 
d="M233 0v285l-219 382h50l192 -337l196 337h50l-225 -382v-285h-44zM324 854l50 -25l-134 -126l-32 18z" />
    <glyph glyph-name="Thorn" unicode="&#xde;" horiz-adv-x="446" 
d="M90 0v667h44v-120h85q85 0 140 -45.5t55 -128.5q0 -82 -53 -129t-141 -47h-86v-197h-44zM134 507v-270h88q66 0 106 36.5t40 98.5q0 63 -40.5 99t-112.5 36h-81z" />
    <glyph glyph-name="germandbls" unicode="&#xdf;" horiz-adv-x="481" 
d="M113 0h-40v370h-69v38h69v164q0 90 41 131q38 38 105 38q58 0 95 -32q48 -41 48 -125q0 -55 -23 -91q-21 -31 -55 -47q53 -18 97 -58q62 -58 62 -152q0 -99 -65 -165q-66 -68 -168 -76v40q89 8 144 68q47 52 47 126q0 81 -50 133q-53 57 -141 63v35q49 2 77 30
q33 31 33 89q0 61 -27 93q-28 31 -76 31t-74 -27q-30 -31 -30 -98v-578z" />
    <glyph glyph-name="agrave" unicode="&#xe0;" horiz-adv-x="516" 
d="M404 337v71h40v-408h-40v73q-55 -84 -159 -84q-83 0 -141 59t-58 156q0 95 55 154t144 59q102 0 159 -80zM247 379q-65 0 -112 -46.5t-47 -125.5q0 -73 43 -126.5t117 -53.5q73 0 115.5 52.5t42.5 127.5q0 83 -49 127.5t-110 44.5zM268 467l-105 128l43 25l92 -137z" />
    <glyph glyph-name="aacute" unicode="&#xe1;" horiz-adv-x="516" 
d="M404 337v71h40v-408h-40v73q-55 -84 -159 -84q-83 0 -141 59t-58 156q0 95 55 154t144 59q102 0 159 -80zM247 379q-65 0 -112 -46.5t-47 -125.5q0 -73 43 -126.5t117 -53.5q73 0 115.5 52.5t42.5 127.5q0 83 -49 127.5t-110 44.5zM313 620l43 -25l-105 -128l-30 16z" />
    <glyph glyph-name="acircumflex" unicode="&#xe2;" horiz-adv-x="516" 
d="M404 337v71h40v-408h-40v73q-55 -84 -159 -84q-83 0 -141 59t-58 156q0 95 55 154t144 59q102 0 159 -80zM247 379q-65 0 -112 -46.5t-47 -125.5q0 -73 43 -126.5t117 -53.5q73 0 115.5 52.5t42.5 127.5q0 83 -49 127.5t-110 44.5zM259 535l-90 -68l-32 25l122 94
l122 -94l-32 -25z" />
    <glyph glyph-name="atilde" unicode="&#xe3;" horiz-adv-x="516" 
d="M404 337v71h40v-408h-40v73q-55 -84 -159 -84q-83 0 -141 59t-58 156q0 95 55 154t144 59q102 0 159 -80zM247 379q-65 0 -112 -46.5t-47 -125.5q0 -73 43 -126.5t117 -53.5q73 0 115.5 52.5t42.5 127.5q0 83 -49 127.5t-110 44.5zM168 487l-26 19q9 25 23 38
q19 19 46 19q22 0 72 -22q31 -13 47 -13t27 12q14 18 14 25l25 -20q-9 -24 -26 -40q-20 -17 -45 -17q-18 0 -58 17q-43 18 -59 18q-17 0 -28 -12q-9 -10 -12 -24z" />
    <glyph glyph-name="adieresis" unicode="&#xe4;" horiz-adv-x="516" 
d="M404 337v71h40v-408h-40v73q-55 -84 -159 -84q-83 0 -141 59t-58 156q0 95 55 154t144 59q102 0 159 -80zM247 379q-65 0 -112 -46.5t-47 -125.5q0 -73 43 -126.5t117 -53.5q73 0 115.5 52.5t42.5 127.5q0 83 -49 127.5t-110 44.5zM150 526q0 15 10.5 25.5t25.5 10.5
t25.5 -10.5t10.5 -25.5t-10.5 -25.5t-25.5 -10.5t-25.5 10.5t-10.5 25.5zM316 526q0 15 10.5 25.5t25.5 10.5t25.5 -10.5t10.5 -25.5t-10.5 -25.5t-25.5 -10.5t-25.5 10.5t-10.5 25.5z" />
    <glyph glyph-name="aring" unicode="&#xe5;" horiz-adv-x="516" 
d="M404 337v71h40v-408h-40v73q-55 -84 -159 -84q-83 0 -141 59t-58 156q0 95 55 154t144 59q102 0 159 -80zM247 379q-65 0 -112 -46.5t-47 -125.5q0 -73 43 -126.5t117 -53.5q73 0 115.5 52.5t42.5 127.5q0 83 -49 127.5t-110 44.5zM187 549q0 33 22 55t55 22t55 -22
t22 -55t-22 -55t-55 -22t-55 22t-22 55zM223 549q0 -18 11.5 -29.5t29.5 -11.5t29.5 11.5t11.5 29.5t-11.5 29.5t-29.5 11.5t-29.5 -11.5t-11.5 -29.5z" />
    <glyph glyph-name="ae" unicode="&#xe6;" horiz-adv-x="792" 
d="M747 198h-350q1 -76 46 -123.5t112 -47.5q94 0 147 92l34 -24q-68 -106 -182 -106q-116 0 -168 102q-17 -50 -61.5 -76t-107.5 -26q-82 0 -127 37.5t-45 89.5q0 49 42 89t137 40q83 0 131 -42q0 176 -142 176q-67 0 -139 -37v41q68 34 141 34q58 0 101 -29t62 -85
q26 53 72 83.5t103 30.5q79 0 135.5 -57t58.5 -162zM402 236h303q-9 62 -51.5 102.5t-101.5 40.5t-100.5 -41t-49.5 -102zM223 207q-66 0 -101 -26t-35 -65q0 -38 33.5 -63.5t96.5 -25.5q70 0 102.5 28.5t32.5 64.5q0 34 -31 60.5t-98 26.5z" />
    <glyph glyph-name="ccedilla" unicode="&#xe7;" horiz-adv-x="442" 
d="M399 365v-53q-58 67 -141 67q-74 0 -122 -50.5t-48 -126.5q0 -82 51 -128.5t117 -46.5q81 0 148 73v-54q-64 -57 -149 -57q-92 0 -150.5 60.5t-58.5 151.5q0 93 58 154.5t154 61.5q79 0 141 -52zM239 -50l46 -20l-100 -124l-28 16z" />
    <glyph glyph-name="egrave" unicode="&#xe8;" horiz-adv-x="483" 
d="M437 199h-349q0 -76 47.5 -124t114.5 -48q48 0 85 25.5t57 67.5l34 -20q-23 -44 -67 -77.5t-112 -33.5q-93 0 -147 60.5t-54 152.5q0 101 58.5 158t139.5 57q83 0 138 -61t55 -157zM91 237h304q-8 62 -49.5 102t-101.5 40q-61 0 -103 -40.5t-50 -101.5zM248 467l-105 128
l43 25l92 -137z" />
    <glyph glyph-name="eacute" unicode="&#xe9;" horiz-adv-x="483" 
d="M437 199h-349q0 -76 47.5 -124t114.5 -48q48 0 85 25.5t57 67.5l34 -20q-23 -44 -67 -77.5t-112 -33.5q-93 0 -147 60.5t-54 152.5q0 101 58.5 158t139.5 57q83 0 138 -61t55 -157zM91 237h304q-8 62 -49.5 102t-101.5 40q-61 0 -103 -40.5t-50 -101.5zM298 620l43 -25
l-105 -128l-30 16z" />
    <glyph glyph-name="ecircumflex" unicode="&#xea;" horiz-adv-x="483" 
d="M437 199h-349q0 -76 47.5 -124t114.5 -48q48 0 85 25.5t57 67.5l34 -20q-23 -44 -67 -77.5t-112 -33.5q-93 0 -147 60.5t-54 152.5q0 101 58.5 158t139.5 57q83 0 138 -61t55 -157zM91 237h304q-8 62 -49.5 102t-101.5 40q-61 0 -103 -40.5t-50 -101.5zM250 535l-90 -68
l-32 25l122 94l122 -94l-32 -25z" />
    <glyph glyph-name="edieresis" unicode="&#xeb;" horiz-adv-x="483" 
d="M437 199h-349q0 -76 47.5 -124t114.5 -48q48 0 85 25.5t57 67.5l34 -20q-23 -44 -67 -77.5t-112 -33.5q-93 0 -147 60.5t-54 152.5q0 101 58.5 158t139.5 57q83 0 138 -61t55 -157zM91 237h304q-8 62 -49.5 102t-101.5 40q-61 0 -103 -40.5t-50 -101.5zM124 526
q0 15 10.5 25.5t25.5 10.5t25.5 -10.5t10.5 -25.5t-10.5 -25.5t-25.5 -10.5t-25.5 10.5t-10.5 25.5zM290 526q0 15 10.5 25.5t25.5 10.5t25.5 -10.5t10.5 -25.5t-10.5 -25.5t-25.5 -10.5t-25.5 10.5t-10.5 25.5z" />
    <glyph glyph-name="igrave" unicode="&#xec;" horiz-adv-x="184" 
d="M72 408h40v-408h-40v408zM90 467l-105 128l43 25l92 -137z" />
    <glyph glyph-name="iacute" unicode="&#xed;" horiz-adv-x="184" 
d="M72 408h40v-408h-40v408zM147 620l43 -25l-105 -128l-30 16z" />
    <glyph glyph-name="icircumflex" unicode="&#xee;" horiz-adv-x="184" 
d="M72 408h40v-408h-40v408zM92 531l-70 -60l-30 26l100 86l100 -86l-30 -26z" />
    <glyph glyph-name="idieresis" unicode="&#xef;" horiz-adv-x="184" 
d="M72 408h40v-408h-40v408zM-27 526q0 15 10.5 25.5t25.5 10.5t25.5 -10.5t10.5 -25.5t-10.5 -25.5t-25.5 -10.5t-25.5 10.5t-10.5 25.5zM139 526q0 15 10.5 25.5t25.5 10.5t25.5 -10.5t10.5 -25.5t-10.5 -25.5t-25.5 -10.5t-25.5 10.5t-10.5 25.5z" />
    <glyph glyph-name="eth" unicode="&#xf0;" horiz-adv-x="516" 
d="M105 636l5 37q64 -7 115 -29q42 -17 87 -52l146 49l12 -35l-127 -42q45 -43 72 -93q55 -99 55 -233q0 -125 -65 -190q-59 -59 -146 -59q-89 0 -148 59q-65 65 -65 164q0 100 64 164q59 61 152 61q94 0 147 -78h2q-10 55 -39 104q-31 52 -73 86l-162 -53l-12 34l140 46
q-70 47 -160 60zM428 218q0 86 -53 137q-44 44 -113 44q-73 0 -121 -50q-53 -54 -53 -139q0 -80 49 -131q50 -52 122 -52q65 0 112 45q57 56 57 146z" />
    <glyph glyph-name="ntilde" unicode="&#xf1;" horiz-adv-x="442" 
d="M72 0v408h40v-64q41 73 125 73q76 0 113 -57q20 -32 20 -103v-257h-40v257q0 57 -16 82q-24 40 -80 40q-68 0 -100 -57q-22 -39 -22 -110v-212h-40zM120 487l-26 19q9 25 23 38q19 19 46 19q22 0 72 -22q31 -13 47 -13t27 12q14 18 14 25l25 -20q-9 -24 -26 -40
q-20 -17 -45 -17q-18 0 -58 17q-43 18 -59 18q-17 0 -28 -12q-9 -10 -12 -24z" />
    <glyph glyph-name="ograve" unicode="&#xf2;" horiz-adv-x="520" 
d="M260 417q91 0 152.5 -61.5t61.5 -152.5t-61.5 -152.5t-152.5 -61.5t-152.5 61.5t-61.5 152.5t61.5 152.5t152.5 61.5zM260 27q73 0 122.5 51t49.5 125t-49.5 125t-122.5 51t-122.5 -51t-49.5 -125t49.5 -125t122.5 -51zM278 467l-105 128l43 25l92 -137z" />
    <glyph glyph-name="oacute" unicode="&#xf3;" horiz-adv-x="520" 
d="M260 417q91 0 152.5 -61.5t61.5 -152.5t-61.5 -152.5t-152.5 -61.5t-152.5 61.5t-61.5 152.5t61.5 152.5t152.5 61.5zM260 27q73 0 122.5 51t49.5 125t-49.5 125t-122.5 51t-122.5 -51t-49.5 -125t49.5 -125t122.5 -51zM305 620l43 -25l-105 -128l-30 16z" />
    <glyph glyph-name="ocircumflex" unicode="&#xf4;" horiz-adv-x="520" 
d="M260 417q91 0 152.5 -61.5t61.5 -152.5t-61.5 -152.5t-152.5 -61.5t-152.5 61.5t-61.5 152.5t61.5 152.5t152.5 61.5zM260 27q73 0 122.5 51t49.5 125t-49.5 125t-122.5 51t-122.5 -51t-49.5 -125t49.5 -125t122.5 -51zM260 535l-90 -68l-32 25l122 94l122 -94l-32 -25z
" />
    <glyph glyph-name="otilde" unicode="&#xf5;" horiz-adv-x="520" 
d="M260 417q91 0 152.5 -61.5t61.5 -152.5t-61.5 -152.5t-152.5 -61.5t-152.5 61.5t-61.5 152.5t61.5 152.5t152.5 61.5zM260 27q73 0 122.5 51t49.5 125t-49.5 125t-122.5 51t-122.5 -51t-49.5 -125t49.5 -125t122.5 -51zM159 487l-26 19q9 25 23 38q19 19 46 19
q22 0 72 -22q31 -13 47 -13t27 12q14 18 14 25l25 -20q-9 -24 -26 -40q-20 -17 -45 -17q-18 0 -58 17q-43 18 -59 18q-17 0 -28 -12q-9 -10 -12 -24z" />
    <glyph glyph-name="odieresis" unicode="&#xf6;" horiz-adv-x="520" 
d="M260 417q91 0 152.5 -61.5t61.5 -152.5t-61.5 -152.5t-152.5 -61.5t-152.5 61.5t-61.5 152.5t61.5 152.5t152.5 61.5zM260 27q73 0 122.5 51t49.5 125t-49.5 125t-122.5 51t-122.5 -51t-49.5 -125t49.5 -125t122.5 -51zM141 526q0 15 10.5 25.5t25.5 10.5t25.5 -10.5
t10.5 -25.5t-10.5 -25.5t-25.5 -10.5t-25.5 10.5t-10.5 25.5zM307 526q0 15 10.5 25.5t25.5 10.5t25.5 -10.5t10.5 -25.5t-10.5 -25.5t-25.5 -10.5t-25.5 10.5t-10.5 25.5z" />
    <glyph glyph-name="divide" unicode="&#xf7;" 
d="M215 518q0 14 10.5 24.5t24.5 10.5t24.5 -10.5t10.5 -24.5t-10.5 -24.5t-24.5 -10.5t-24.5 10.5t-10.5 24.5zM215 140q0 14 10.5 24.5t24.5 10.5t24.5 -10.5t10.5 -24.5t-10.5 -24.5t-24.5 -10.5t-24.5 10.5t-10.5 24.5zM33 310v38h434v-38h-434z" />
    <glyph glyph-name="oslash" unicode="&#xf8;" horiz-adv-x="521" 
d="M40 13l54 53q-47 60 -47 137q0 91 61.5 152.5t152.5 61.5q80 0 136 -47l53 53l25 -25l-53 -52q53 -59 53 -143q0 -91 -61.5 -152.5t-152.5 -61.5q-83 0 -144 53l-52 -53zM394 317l-248 -246q47 -44 115 -44q73 0 122.5 51t49.5 125q0 66 -39 114zM123 95l246 247
q-47 37 -108 37q-73 0 -122.5 -51t-49.5 -125q0 -62 34 -108z" />
    <glyph glyph-name="ugrave" unicode="&#xf9;" horiz-adv-x="438" 
d="M72 408h40v-246q0 -71 26 -102q28 -33 81 -33t81 33q26 31 26 102v246h40v-257q0 -72 -31 -112q-39 -50 -116 -50t-116 50q-31 40 -31 112v257zM228 467l-105 128l43 25l92 -137z" />
    <glyph glyph-name="uacute" unicode="&#xfa;" horiz-adv-x="438" 
d="M72 408h40v-246q0 -71 26 -102q28 -33 81 -33t81 33q26 31 26 102v246h40v-257q0 -72 -31 -112q-39 -50 -116 -50t-116 50q-31 40 -31 112v257zM274 620l43 -25l-105 -128l-30 16z" />
    <glyph glyph-name="ucircumflex" unicode="&#xfb;" horiz-adv-x="438" 
d="M72 408h40v-246q0 -71 26 -102q28 -33 81 -33t81 33q26 31 26 102v246h40v-257q0 -72 -31 -112q-39 -50 -116 -50t-116 50q-31 40 -31 112v257zM219 535l-90 -68l-32 25l122 94l122 -94l-32 -25z" />
    <glyph glyph-name="udieresis" unicode="&#xfc;" horiz-adv-x="438" 
d="M72 408h40v-246q0 -71 26 -102q28 -33 81 -33t81 33q26 31 26 102v246h40v-257q0 -72 -31 -112q-39 -50 -116 -50t-116 50q-31 40 -31 112v257zM100 526q0 15 10.5 25.5t25.5 10.5t25.5 -10.5t10.5 -25.5t-10.5 -25.5t-25.5 -10.5t-25.5 10.5t-10.5 25.5zM266 526
q0 15 10.5 25.5t25.5 10.5t25.5 -10.5t10.5 -25.5t-10.5 -25.5t-25.5 -10.5t-25.5 10.5t-10.5 25.5z" />
    <glyph glyph-name="yacute" unicode="&#xfd;" horiz-adv-x="428" 
d="M106 -230l96 223l-194 415h46l171 -363l149 363h46l-268 -638h-46zM269 620l43 -25l-105 -128l-30 16z" />
    <glyph glyph-name="thorn" unicode="&#xfe;" horiz-adv-x="516" 
d="M112 73v-303h-40v959h40v-392q59 80 160 80q90 0 144 -59.5t54 -150.5q0 -93 -54.5 -155.5t-145.5 -62.5q-46 0 -83 18.5t-51 34t-24 31.5zM269 27q75 0 117 51t42 129q0 81 -46 126.5t-112 45.5q-65 0 -112.5 -45t-47.5 -125q0 -79 42 -130.5t117 -51.5z" />
    <glyph glyph-name="ydieresis" unicode="&#xff;" horiz-adv-x="428" 
d="M106 -230l96 223l-194 415h46l171 -363l149 363h46l-268 -638h-46zM95 526q0 15 10.5 25.5t25.5 10.5t25.5 -10.5t10.5 -25.5t-10.5 -25.5t-25.5 -10.5t-25.5 10.5t-10.5 25.5zM261 526q0 15 10.5 25.5t25.5 10.5t25.5 -10.5t10.5 -25.5t-10.5 -25.5t-25.5 -10.5
t-25.5 10.5t-10.5 25.5z" />
    <glyph glyph-name="Amacron" unicode="&#x100;" horiz-adv-x="586" 
d="M524 0l-89 219h-284l-89 -219h-48l281 687l277 -687h-48zM167 259h252l-125 316zM158 750v44h270v-44h-270z" />
    <glyph glyph-name="amacron" unicode="&#x101;" horiz-adv-x="516" 
d="M404 337v71h40v-408h-40v73q-55 -84 -159 -84q-83 0 -141 59t-58 156q0 95 55 154t144 59q102 0 159 -80zM247 379q-65 0 -112 -46.5t-47 -125.5q0 -73 43 -126.5t117 -53.5q73 0 115.5 52.5t42.5 127.5q0 83 -49 127.5t-110 44.5zM121 493v39h270v-39h-270z" />
    <glyph glyph-name="Abreve" unicode="&#x102;" horiz-adv-x="586" 
d="M524 0l-89 219h-284l-89 -219h-48l281 687l277 -687h-48zM167 259h252l-125 316zM166 826h40q6 -20 24 -34q24 -18 63 -18t63 18q18 14 24 34h40q-4 -33 -29 -58q-36 -36 -98 -36t-98 36q-25 25 -29 58z" />
    <glyph glyph-name="abreve" unicode="&#x103;" horiz-adv-x="516" 
d="M404 337v71h40v-408h-40v73q-55 -84 -159 -84q-83 0 -141 59t-58 156q0 95 55 154t144 59q102 0 159 -80zM247 379q-65 0 -112 -46.5t-47 -125.5q0 -73 43 -126.5t117 -53.5q73 0 115.5 52.5t42.5 127.5q0 83 -49 127.5t-110 44.5zM132 573h38q5 -22 25 -37
q26 -19 62 -19t62 19q20 15 25 37h38q-4 -33 -29 -58q-36 -36 -96 -36t-96 36q-25 25 -29 58z" />
    <glyph glyph-name="Aogonek" unicode="&#x104;" horiz-adv-x="586" 
d="M524 0l-89 219h-284l-89 -219h-48l281 687l277 -687q-27 -18 -46 -42q-22 -29 -22 -55q0 -22 15 -35.5t45 -13.5q23 0 52 9l-9 -37q-22 -8 -45 -8q-45 0 -72.5 23.5t-27.5 59.5q0 33 23 62q16 20 43 37h-4zM167 259h252l-125 316z" />
    <glyph glyph-name="aogonek" unicode="&#x105;" horiz-adv-x="516" 
d="M404 337v71h40v-408q-27 -18 -46 -42q-22 -29 -22 -55q0 -22 15 -35.5t45 -13.5q23 0 52 9l-9 -36q-20 -8 -45 -8q-47 0 -71.5 25t-24.5 57q0 33 23 62q16 20 43 37v73q-55 -84 -159 -84q-83 0 -141 59t-58 156q0 95 55 154t144 59q102 0 159 -80zM247 379
q-65 0 -112 -46.5t-47 -125.5q0 -73 43 -126.5t117 -53.5q73 0 115.5 52.5t42.5 127.5q0 83 -49 127.5t-110 44.5z" />
    <glyph glyph-name="Cacute" unicode="&#x106;" horiz-adv-x="678" 
d="M624 589v-58q-43 50 -101.5 77.5t-123.5 27.5q-127 0 -213 -89t-86 -217q0 -71 27.5 -130t72 -95.5t96.5 -56t104 -19.5q56 0 116 24.5t108 76.5v-58q-94 -83 -222 -83q-148 0 -248 101t-100 242q0 144 101 244t245 100q132 0 224 -87zM446 854l50 -25l-134 -126l-32 18z
" />
    <glyph glyph-name="cacute" unicode="&#x107;" horiz-adv-x="442" 
d="M399 365v-53q-58 67 -141 67q-74 0 -122 -50.5t-48 -126.5q0 -82 51 -128.5t117 -46.5q81 0 148 73v-54q-64 -57 -149 -57q-92 0 -150.5 60.5t-58.5 151.5q0 93 58 154.5t154 61.5q79 0 141 -52zM305 620l43 -25l-105 -128l-30 16z" />
    <glyph glyph-name="Ccircumflex" unicode="&#x108;" horiz-adv-x="678" 
d="M624 589v-58q-43 50 -101.5 77.5t-123.5 27.5q-127 0 -213 -89t-86 -217q0 -71 27.5 -130t72 -95.5t96.5 -56t104 -19.5q56 0 116 24.5t108 76.5v-58q-94 -83 -222 -83q-148 0 -248 101t-100 242q0 144 101 244t245 100q132 0 224 -87zM400 786l-96 -64l-34 27l130 90
l130 -90l-34 -27z" />
    <glyph glyph-name="ccircumflex" unicode="&#x109;" horiz-adv-x="442" 
d="M399 365v-53q-58 67 -141 67q-74 0 -122 -50.5t-48 -126.5q0 -82 51 -128.5t117 -46.5q81 0 148 73v-54q-64 -57 -149 -57q-92 0 -150.5 60.5t-58.5 151.5q0 93 58 154.5t154 61.5q79 0 141 -52zM260 535l-90 -68l-32 25l122 94l122 -94l-32 -25z" />
    <glyph glyph-name="Cdotaccent" unicode="&#x10a;" horiz-adv-x="678" 
d="M624 589v-58q-43 50 -101.5 77.5t-123.5 27.5q-127 0 -213 -89t-86 -217q0 -71 27.5 -130t72 -95.5t96.5 -56t104 -19.5q56 0 116 24.5t108 76.5v-58q-94 -83 -222 -83q-148 0 -248 101t-100 242q0 144 101 244t245 100q132 0 224 -87zM361 781q0 18 11.5 29.5t29.5 11.5
t29.5 -11.5t11.5 -29.5t-11.5 -29.5t-29.5 -11.5t-29.5 11.5t-11.5 29.5z" />
    <glyph glyph-name="cdotaccent" unicode="&#x10b;" horiz-adv-x="442" 
d="M399 365v-53q-58 67 -141 67q-74 0 -122 -50.5t-48 -126.5q0 -82 51 -128.5t117 -46.5q81 0 148 73v-54q-64 -57 -149 -57q-92 0 -150.5 60.5t-58.5 151.5q0 93 58 154.5t154 61.5q79 0 141 -52zM222 527q0 17 11 28t28 11t28 -11t11 -28t-11 -28t-28 -11t-28 11t-11 28z
" />
    <glyph glyph-name="Ccaron" unicode="&#x10c;" horiz-adv-x="678" 
d="M624 589v-58q-43 50 -101.5 77.5t-123.5 27.5q-127 0 -213 -89t-86 -217q0 -71 27.5 -130t72 -95.5t96.5 -56t104 -19.5q56 0 116 24.5t108 76.5v-58q-94 -83 -222 -83q-148 0 -248 101t-100 242q0 144 101 244t245 100q132 0 224 -87zM400 775l96 64l34 -27l-130 -90
l-130 90l34 27z" />
    <glyph glyph-name="ccaron" unicode="&#x10d;" horiz-adv-x="442" 
d="M399 365v-53q-58 67 -141 67q-74 0 -122 -50.5t-48 -126.5q0 -82 51 -128.5t117 -46.5q81 0 148 73v-54q-64 -57 -149 -57q-92 0 -150.5 60.5t-58.5 151.5q0 93 58 154.5t154 61.5q79 0 141 -52zM260 517l90 68l32 -26l-122 -94l-122 94l32 26z" />
    <glyph glyph-name="Dcaron" unicode="&#x10e;" horiz-adv-x="618" 
d="M222 0h-132v667h132q153 0 246 -93q49 -49 72.5 -114t23.5 -127q0 -61 -23 -125.5t-73 -114.5q-93 -93 -246 -93zM134 627v-587h87q132 0 214.5 81.5t82.5 211.5q0 129 -83 211.5t-214 82.5h-87zM230 775l96 64l34 -27l-130 -90l-130 90l34 27z" />
    <glyph glyph-name="dcaron" unicode="&#x10f;" horiz-adv-x="542" 
d="M404 337v392h40v-729h-40v73q-55 -84 -158 -84q-83 0 -141.5 57.5t-58.5 159.5q0 104 59 157.5t141 53.5q102 0 158 -80zM246 379q-67 0 -112.5 -45t-45.5 -127q0 -85 47 -132.5t113 -47.5q65 0 111.5 47.5t46.5 132.5q0 74 -43 123t-117 49zM482 520l46 160l44 -14
l-62 -156z" />
    <glyph glyph-name="Dcroat" unicode="&#x110;" horiz-adv-x="618" 
d="M222 0h-132v345h-90v40h90v282h132q153 0 246 -93q49 -49 72.5 -114t23.5 -127q0 -61 -23 -125.5t-73 -114.5q-93 -93 -246 -93zM134 627v-242h136v-40h-136v-305h87q132 0 214.5 81.5t82.5 211.5q0 129 -83 211.5t-214 82.5h-87z" />
    <glyph glyph-name="dcroat" unicode="&#x111;" horiz-adv-x="516" 
d="M404 337v225h-180v38h180v129h40v-129h72v-38h-72v-562h-40v73q-55 -84 -158 -84q-83 0 -141.5 57.5t-58.5 159.5q0 104 59 157.5t141 53.5q102 0 158 -80zM246 379q-67 0 -112.5 -45t-45.5 -127q0 -85 47 -132.5t113 -47.5q65 0 111.5 47.5t46.5 132.5q0 74 -43 123
t-117 49z" />
    <glyph glyph-name="Emacron" unicode="&#x112;" horiz-adv-x="464" 
d="M410 667v-40h-276v-242h270v-40h-270v-305h276v-40h-320v667h320zM115 750v44h270v-44h-270z" />
    <glyph glyph-name="emacron" unicode="&#x113;" horiz-adv-x="483" 
d="M437 199h-349q0 -76 47.5 -124t114.5 -48q48 0 85 25.5t57 67.5l34 -20q-23 -44 -67 -77.5t-112 -33.5q-93 0 -147 60.5t-54 152.5q0 101 58.5 158t139.5 57q83 0 138 -61t55 -157zM91 237h304q-8 62 -49.5 102t-101.5 40q-61 0 -103 -40.5t-50 -101.5zM108 493v39h270
v-39h-270z" />
    <glyph glyph-name="Edotaccent" unicode="&#x116;" horiz-adv-x="464" 
d="M410 667v-40h-276v-242h270v-40h-270v-305h276v-40h-320v667h320zM209 781q0 18 11.5 29.5t29.5 11.5t29.5 -11.5t11.5 -29.5t-11.5 -29.5t-29.5 -11.5t-29.5 11.5t-11.5 29.5z" />
    <glyph glyph-name="edotaccent" unicode="&#x117;" horiz-adv-x="483" 
d="M437 199h-349q0 -76 47.5 -124t114.5 -48q48 0 85 25.5t57 67.5l34 -20q-23 -44 -67 -77.5t-112 -33.5q-93 0 -147 60.5t-54 152.5q0 101 58.5 158t139.5 57q83 0 138 -61t55 -157zM91 237h304q-8 62 -49.5 102t-101.5 40q-61 0 -103 -40.5t-50 -101.5zM204 527
q0 17 11 28t28 11t28 -11t11 -28t-11 -28t-28 -11t-28 11t-11 28z" />
    <glyph glyph-name="Eogonek" unicode="&#x118;" horiz-adv-x="464" 
d="M410 667v-40h-276v-242h270v-40h-270v-305h276v-40h-40q-68 -45 -68 -96q0 -24 14 -36q15 -14 49 -14q27 0 49 9l-9 -37q-21 -8 -45 -8q-51 0 -78 28q-22 23 -22 55q0 33 23 62q16 20 43 37h-236v667h320z" />
    <glyph glyph-name="eogonek" unicode="&#x119;" horiz-adv-x="485" 
d="M439 199h-351q0 -76 47 -125q45 -47 115 -47q48 0 88 27q33 24 54 66l34 -20q-33 -62 -109 -102q-39 -20 -59 -43t-20 -52q0 -24 17 -37q15 -12 43 -12q21 0 52 9l-9 -36q-20 -8 -45 -8q-47 0 -73 26q-23 23 -23 56q0 25 16 51q13 21 34 37q-93 0 -147 56q-57 58 -57 157
t60 159q58 56 138 56t133 -51q62 -62 62 -167zM91 237h302q-9 65 -49 103q-40 39 -100 39q-64 0 -105 -42q-38 -38 -48 -100z" />
    <glyph glyph-name="Ecaron" unicode="&#x11a;" horiz-adv-x="464" 
d="M410 667v-40h-276v-242h270v-40h-270v-305h276v-40h-320v667h320zM250 775l96 64l34 -27l-130 -90l-130 90l34 27z" />
    <glyph glyph-name="ecaron" unicode="&#x11b;" horiz-adv-x="483" 
d="M437 199h-349q0 -76 47.5 -124t114.5 -48q48 0 85 25.5t57 67.5l34 -20q-23 -44 -67 -77.5t-112 -33.5q-93 0 -147 60.5t-54 152.5q0 101 58.5 158t139.5 57q83 0 138 -61t55 -157zM91 237h304q-8 62 -49.5 102t-101.5 40q-61 0 -103 -40.5t-50 -101.5zM243 517l90 68
l32 -26l-122 -94l-122 94l32 26z" />
    <glyph glyph-name="Gcircumflex" unicode="&#x11c;" horiz-adv-x="772" 
d="M438 280v40h280q0 -132 -68 -219q-88 -112 -251 -112q-148 0 -246.5 97t-98.5 246q0 147 100.5 245.5t247.5 98.5q115 0 209 -72q46 -36 80 -84l-35 -28q-24 41 -64 74q-84 70 -191 70q-128 0 -214.5 -89t-86.5 -217q0 -126 85 -213.5t213 -87.5q79 0 140.5 33.5
t91.5 79.5q40 62 44 138h-236zM400 786l-96 -64l-34 27l130 90l130 -90l-34 -27z" />
    <glyph glyph-name="gcircumflex" unicode="&#x11d;" horiz-adv-x="520" 
d="M408 408h40v-396q0 -115 -54.5 -178.5t-150.5 -63.5q-83 0 -139.5 46.5t-60.5 128.5h42q5 -63 48.5 -100t109.5 -37q45 0 78.5 18t49.5 41t25 56t10.5 51t1.5 38v58q-58 -81 -161 -81q-81 0 -141 57t-60 158q0 91 56 152t150 61q100 0 156 -80v71zM248 379
q-73 0 -116.5 -51.5t-43.5 -125.5q0 -75 43.5 -125t114.5 -50q74 0 119 51t45 128q0 73 -44.5 123t-117.5 50zM250 535l-90 -68l-32 25l122 94l122 -94l-32 -25z" />
    <glyph glyph-name="Gbreve" unicode="&#x11e;" horiz-adv-x="772" 
d="M438 280v40h280q0 -132 -68 -219q-88 -112 -251 -112q-148 0 -246.5 97t-98.5 246q0 147 100.5 245.5t247.5 98.5q115 0 209 -72q46 -36 80 -84l-35 -28q-24 41 -64 74q-84 70 -191 70q-128 0 -214.5 -89t-86.5 -217q0 -126 85 -213.5t213 -87.5q79 0 140.5 33.5
t91.5 79.5q40 62 44 138h-236zM273 826h40q6 -20 24 -34q24 -18 63 -18t63 18q18 14 24 34h40q-4 -33 -29 -58q-36 -36 -98 -36t-98 36q-25 25 -29 58z" />
    <glyph glyph-name="gbreve" unicode="&#x11f;" horiz-adv-x="520" 
d="M408 408h40v-396q0 -115 -54.5 -178.5t-150.5 -63.5q-83 0 -139.5 46.5t-60.5 128.5h42q5 -63 48.5 -100t109.5 -37q45 0 78.5 18t49.5 41t25 56t10.5 51t1.5 38v58q-58 -81 -161 -81q-81 0 -141 57t-60 158q0 91 56 152t150 61q100 0 156 -80v71zM248 379
q-73 0 -116.5 -51.5t-43.5 -125.5q0 -75 43.5 -125t114.5 -50q74 0 119 51t45 128q0 73 -44.5 123t-117.5 50zM125 573h38q5 -22 25 -37q26 -19 62 -19t62 19q20 15 25 37h38q-4 -33 -29 -58q-36 -36 -96 -36t-96 36q-25 25 -29 58z" />
    <glyph glyph-name="Gdotaccent" unicode="&#x120;" horiz-adv-x="772" 
d="M438 280v40h280q0 -132 -68 -219q-88 -112 -251 -112q-148 0 -246.5 97t-98.5 246q0 147 100.5 245.5t247.5 98.5q115 0 209 -72q46 -36 80 -84l-35 -28q-24 41 -64 74q-84 70 -191 70q-128 0 -214.5 -89t-86.5 -217q0 -126 85 -213.5t213 -87.5q79 0 140.5 33.5
t91.5 79.5q40 62 44 138h-236zM362 781q0 18 11.5 29.5t29.5 11.5t29.5 -11.5t11.5 -29.5t-11.5 -29.5t-29.5 -11.5t-29.5 11.5t-11.5 29.5z" />
    <glyph glyph-name="gdotaccent" unicode="&#x121;" horiz-adv-x="520" 
d="M408 408h40v-396q0 -115 -54.5 -178.5t-150.5 -63.5q-83 0 -139.5 46.5t-60.5 128.5h42q5 -63 48.5 -100t109.5 -37q45 0 78.5 18t49.5 41t25 56t10.5 51t1.5 38v58q-58 -81 -161 -81q-81 0 -141 57t-60 158q0 91 56 152t150 61q100 0 156 -80v71zM248 379
q-73 0 -116.5 -51.5t-43.5 -125.5q0 -75 43.5 -125t114.5 -50q74 0 119 51t45 128q0 73 -44.5 123t-117.5 50zM213 527q0 17 11 28t28 11t28 -11t11 -28t-11 -28t-28 -11t-28 11t-11 28z" />
    <glyph glyph-name="Gcommaaccent" unicode="&#x122;" horiz-adv-x="772" 
d="M438 280v40h280q0 -132 -68 -219q-88 -112 -251 -112q-148 0 -246.5 97t-98.5 246q0 147 100.5 245.5t247.5 98.5q115 0 209 -72q46 -36 80 -84l-35 -28q-24 41 -64 74q-84 70 -191 70q-128 0 -214.5 -89t-86.5 -217q0 -126 85 -213.5t213 -87.5q79 0 140.5 33.5
t91.5 79.5q40 62 44 138h-236zM329 -190l46 140l44 -14l-62 -136z" />
    <glyph glyph-name="gcommaaccent" unicode="&#x123;" horiz-adv-x="520" 
d="M408 408h40v-396q0 -115 -54.5 -178.5t-150.5 -63.5q-83 0 -139.5 46.5t-60.5 128.5h42q5 -63 48.5 -100t109.5 -37q45 0 78.5 18t49.5 41t25 56t10.5 51t1.5 38v58q-58 -81 -161 -81q-81 0 -141 57t-60 158q0 91 56 152t150 61q100 0 156 -80v71zM248 379
q-73 0 -116.5 -51.5t-43.5 -125.5q0 -75 43.5 -125t114.5 -50q74 0 119 51t45 128q0 73 -44.5 123t-117.5 50zM324 633l-46 -140l-44 14l62 136z" />
    <glyph glyph-name="Hcircumflex" unicode="&#x124;" horiz-adv-x="672" 
d="M134 667v-283h404v283h44v-667h-44v344h-404v-344h-44v667h44zM336 786l-96 -64l-34 27l130 90l130 -90l-34 -27z" />
    <glyph glyph-name="hcircumflex" unicode="&#x125;" horiz-adv-x="442" 
d="M72 0v729h40v-385q41 73 125 73q76 0 113 -57q20 -32 20 -103v-257h-40v257q0 57 -16 82q-24 40 -80 40q-68 0 -100 -57q-22 -39 -22 -110v-212h-40zM90 775l-90 -68l-32 25l122 94l122 -94l-32 -25z" />
    <glyph glyph-name="Hbar" unicode="&#x126;" horiz-adv-x="672" 
d="M134 667v-54h404v54h44v-54h54v-34h-54v-579h-44v344h-404v-344h-44v579h-54v34h54v54h44zM538 579h-404v-195h404v195z" />
    <glyph glyph-name="hbar" unicode="&#x127;" horiz-adv-x="442" 
d="M72 0v562h-72v38h72v129h40v-129h180v-38h-180v-218q41 73 125 73q76 0 113 -57q20 -32 20 -103v-257h-40v257q0 57 -16 82q-24 40 -80 40q-68 0 -100 -57q-22 -39 -22 -110v-212h-40z" />
    <glyph glyph-name="Imacron" unicode="&#x12a;" horiz-adv-x="224" 
d="M90 667h44v-667h-44v667zM10 750v44h204v-44h-204z" />
    <glyph glyph-name="imacron" unicode="&#x12b;" horiz-adv-x="184" 
d="M72 408h40v-408h-40v408zM12 493v39h160v-39h-160z" />
    <glyph glyph-name="Iogonek" unicode="&#x12e;" horiz-adv-x="224" 
d="M90 667h44v-667q-27 -18 -46 -42q-22 -29 -22 -55q0 -22 15 -35.5t45 -13.5q23 0 52 9l-9 -37q-22 -8 -45 -8q-45 0 -72.5 23.5t-27.5 59.5q0 33 23 62q16 20 43 37v667z" />
    <glyph glyph-name="iogonek" unicode="&#x12f;" horiz-adv-x="184" 
d="M72 408h40v-408q-27 -18 -46 -42q-22 -29 -22 -55q0 -22 15 -35.5t45 -13.5q23 0 52 9l-9 -36q-20 -8 -45 -8q-47 0 -71.5 25t-24.5 57q0 33 23 62q16 20 43 37v408zM92 507q-15 0 -25.5 10.5t-10.5 26.5t10.5 26.5t25.5 10.5t25.5 -10.5t10.5 -26.5t-10.5 -26.5
t-25.5 -10.5z" />
    <glyph glyph-name="Idotaccent" unicode="&#x130;" horiz-adv-x="224" 
d="M90 667h44v-667h-44v667zM71 781q0 18 11.5 29.5t29.5 11.5t29.5 -11.5t11.5 -29.5t-11.5 -29.5t-29.5 -11.5t-29.5 11.5t-11.5 29.5z" />
    <glyph glyph-name="dotlessi" unicode="&#x131;" horiz-adv-x="184" 
d="M72 408h40v-408h-40v408z" />
    <glyph glyph-name="Jcircumflex" unicode="&#x134;" horiz-adv-x="263" 
d="M129 667h44v-537q0 -76 -33 -110q-31 -31 -83 -31q-42 0 -73 25q-22 18 -39 45l31 26q13 -25 31 -38q24 -18 52 -18q29 0 48 19q22 22 22 75v544zM150 786l-96 -64l-34 27l130 90l130 -90l-34 -27z" />
    <glyph glyph-name="jcircumflex" unicode="&#x135;" horiz-adv-x="184" 
d="M72 408h40v-638h-40v638zM92 531l-70 -60l-30 26l100 86l100 -86l-30 -26z" />
    <glyph glyph-name="Kcommaaccent" unicode="&#x136;" horiz-adv-x="540" 
d="M134 667v-314l315 314h58l-323 -319l342 -348h-60l-314 318l-18 -17v-301h-44v667h44zM213 -190l46 140l44 -14l-62 -136z" />
    <glyph glyph-name="kcommaaccent" unicode="&#x137;" horiz-adv-x="396" 
d="M72 729h40v-496l168 175h52l-172 -177l228 -231h-54l-201 202l-21 -21v-181h-40v729zM140 -190l46 140l44 -14l-62 -136z" />
    <glyph glyph-name="Lacute" unicode="&#x139;" horiz-adv-x="334" 
d="M90 667h44v-627h186v-40h-230v667zM233 854l50 -25l-134 -126l-32 18z" />
    <glyph glyph-name="lacute" unicode="&#x13a;" horiz-adv-x="184" 
d="M72 729h40v-729h-40v729zM147 900l43 -25l-105 -128l-30 16z" />
    <glyph glyph-name="Lcommaaccent" unicode="&#x13b;" horiz-adv-x="334" 
d="M90 667h44v-627h186v-40h-230v667zM153 -190l46 140l44 -14l-62 -136z" />
    <glyph glyph-name="lcommaaccent" unicode="&#x13c;" horiz-adv-x="184" 
d="M72 729h40v-729h-40v729zM34 -190l46 140l44 -14l-62 -136z" />
    <glyph glyph-name="Lcaron" unicode="&#x13d;" horiz-adv-x="334" 
d="M90 667h44v-627h186v-40h-230v667zM232 520l46 160l44 -14l-62 -156z" />
    <glyph glyph-name="lcaron" unicode="&#x13e;" horiz-adv-x="210" 
d="M72 729h40v-729h-40v729zM150 520l46 160l44 -14l-62 -156z" />
    <glyph glyph-name="Ldot" unicode="&#x13f;" horiz-adv-x="334" 
d="M90 667h44v-627h186v-40h-230v667zM238 334q0 17 11 28t28 11t28 -11t11 -28t-11 -28t-28 -11t-28 11t-11 28z" />
    <glyph glyph-name="ldot" unicode="&#x140;" horiz-adv-x="272" 
d="M72 729h40v-729h-40v729zM189 365q0 17 11 28t28 11t28 -11t11 -28t-11 -28t-28 -11t-28 11t-11 28z" />
    <glyph glyph-name="Lslash" unicode="&#x141;" horiz-adv-x="334" 
d="M90 667h44v-281l100 64v-44l-100 -64v-302h186v-40h-230v318l-90 -58v44l90 58v305z" />
    <glyph glyph-name="lslash" unicode="&#x142;" horiz-adv-x="184" 
d="M72 729h40v-249l72 56v-44l-72 -56v-436h-40v412l-72 -56v44l72 56v273z" />
    <glyph glyph-name="Nacute" unicode="&#x143;" horiz-adv-x="784" 
d="M134 0h-44v674l560 -586v579h44v-684l-560 586v-569zM458 854l50 -25l-134 -126l-32 18z" />
    <glyph glyph-name="nacute" unicode="&#x144;" horiz-adv-x="442" 
d="M72 0v408h40v-64q41 73 125 73q76 0 113 -57q20 -32 20 -103v-257h-40v257q0 57 -16 82q-24 40 -80 40q-68 0 -100 -57q-22 -39 -22 -110v-212h-40zM276 620l43 -25l-105 -128l-30 16z" />
    <glyph glyph-name="Ncommaaccent" unicode="&#x145;" horiz-adv-x="784" 
d="M134 0h-44v674l560 -586v579h44v-684l-560 586v-569zM335 -190l46 140l44 -14l-62 -136z" />
    <glyph glyph-name="ncommaaccent" unicode="&#x146;" horiz-adv-x="442" 
d="M72 0v408h40v-64q41 73 125 73q76 0 113 -57q20 -32 20 -103v-257h-40v257q0 57 -16 82q-24 40 -80 40q-68 0 -100 -57q-22 -39 -22 -110v-212h-40zM163 -190l46 140l44 -14l-62 -136z" />
    <glyph glyph-name="Ncaron" unicode="&#x147;" horiz-adv-x="784" 
d="M134 0h-44v674l560 -586v579h44v-684l-560 586v-569zM392 775l96 64l34 -27l-130 -90l-130 90l34 27z" />
    <glyph glyph-name="ncaron" unicode="&#x148;" horiz-adv-x="442" 
d="M72 0v408h40v-64q41 73 125 73q76 0 113 -57q20 -32 20 -103v-257h-40v257q0 57 -16 82q-24 40 -80 40q-68 0 -100 -57q-22 -39 -22 -110v-212h-40zM240 517l90 68l32 -26l-122 -94l-122 94l32 26z" />
    <glyph glyph-name="Omacron" unicode="&#x14c;" horiz-adv-x="800" 
d="M400 676q146 0 246 -100t100 -244t-100 -243.5t-246 -99.5q-147 0 -246.5 99.5t-99.5 243.5t100 244t246 100zM400 29q128 0 214 87.5t86 215.5q0 129 -86 216.5t-214 87.5t-214 -87.5t-86 -216.5q0 -128 86 -215.5t214 -87.5zM265 750v44h270v-44h-270z" />
    <glyph glyph-name="omacron" unicode="&#x14d;" horiz-adv-x="520" 
d="M260 417q91 0 152.5 -61.5t61.5 -152.5t-61.5 -152.5t-152.5 -61.5t-152.5 61.5t-61.5 152.5t61.5 152.5t152.5 61.5zM260 27q73 0 122.5 51t49.5 125t-49.5 125t-122.5 51t-122.5 -51t-49.5 -125t49.5 -125t122.5 -51zM125 493v39h270v-39h-270z" />
    <glyph glyph-name="Obreve" unicode="&#x14e;" horiz-adv-x="800" 
d="M400 676q146 0 246 -100t100 -244t-100 -243.5t-246 -99.5q-147 0 -246.5 99.5t-99.5 243.5t100 244t246 100zM400 29q128 0 214 87.5t86 215.5q0 129 -86 216.5t-214 87.5t-214 -87.5t-86 -216.5q0 -128 86 -215.5t214 -87.5zM273 826h40q6 -20 24 -34q24 -18 63 -18
t63 18q18 14 24 34h40q-4 -33 -29 -58q-36 -36 -98 -36t-98 36q-25 25 -29 58z" />
    <glyph glyph-name="obreve" unicode="&#x14f;" horiz-adv-x="520" 
d="M260 417q91 0 152.5 -61.5t61.5 -152.5t-61.5 -152.5t-152.5 -61.5t-152.5 61.5t-61.5 152.5t61.5 152.5t152.5 61.5zM260 27q73 0 122.5 51t49.5 125t-49.5 125t-122.5 51t-122.5 -51t-49.5 -125t49.5 -125t122.5 -51zM135 573h38q5 -22 25 -37q26 -19 62 -19t62 19
q20 15 25 37h38q-4 -33 -29 -58q-36 -36 -96 -36t-96 36q-25 25 -29 58z" />
    <glyph glyph-name="Ohungarumlaut" unicode="&#x150;" horiz-adv-x="800" 
d="M400 676q146 0 246 -100t100 -244t-100 -243.5t-246 -99.5q-147 0 -246.5 99.5t-99.5 243.5t100 244t246 100zM400 29q128 0 214 87.5t86 215.5q0 129 -86 216.5t-214 87.5t-214 -87.5t-86 -216.5q0 -128 86 -215.5t214 -87.5zM390 854l52 -26l-100 -125l-36 15zM511 854
l52 -26l-100 -125l-36 15z" />
    <glyph glyph-name="ohungarumlaut" unicode="&#x151;" horiz-adv-x="520" 
d="M260 417q91 0 152.5 -61.5t61.5 -152.5t-61.5 -152.5t-152.5 -61.5t-152.5 61.5t-61.5 152.5t61.5 152.5t152.5 61.5zM260 27q73 0 122.5 51t49.5 125t-49.5 125t-122.5 51t-122.5 -51t-49.5 -125t49.5 -125t122.5 -51zM259 620l42 -25l-99 -128l-27 16zM370 620l42 -25
l-99 -128l-27 16z" />
    <glyph glyph-name="OE" unicode="&#x152;" horiz-adv-x="1072" 
d="M1018 667v-40h-275v-242h268v-40h-268v-305h275v-40h-319v171q-45 -85 -124 -133.5t-174 -48.5q-143 0 -245.5 101t-102.5 242q0 143 101.5 243.5t245.5 100.5q96 0 174.5 -48t124.5 -135v174h319zM401 636q-125 0 -213.5 -89t-88.5 -215q0 -124 88.5 -213.5t211.5 -89.5
t211.5 89.5t88.5 213.5q0 51 -19.5 103t-55 97.5t-94.5 74.5t-129 29z" />
    <glyph glyph-name="oe" unicode="&#x153;" horiz-adv-x="869" 
d="M823 201h-349q0 -77 46 -125.5t115 -48.5q50 0 86.5 26t55.5 68l33 -20q-7 -15 -17.5 -29.5t-32 -35.5t-55 -34t-74.5 -13q-16 0 -33 3t-46.5 13t-56.5 37t-44 68q-21 -40 -43 -60q-61 -61 -149 -61t-150.5 62.5t-62.5 150.5q0 89 62.5 152t151.5 63q82 0 146 -57
q24 -22 45 -63q22 56 69 88t108 32q85 0 140 -60t55 -156zM477 239h304q-9 65 -51.5 102.5t-100.5 37.5t-100 -37.5t-52 -102.5zM259 379q-72 0 -121.5 -51t-49.5 -125t49 -125t121 -51q73 0 123.5 50t50.5 123q0 76 -50 127.5t-123 51.5z" />
    <glyph glyph-name="Racute" unicode="&#x154;" horiz-adv-x="468" 
d="M420 0h-50l-216 315h-20v-315h-44v667h96q91 0 141 -34q69 -48 69 -143q0 -55 -27 -98.5t-85 -63.5q-38 -13 -82 -13zM134 627v-272h64q71 0 111.5 36t40.5 100q0 84 -59 116q-35 20 -102 20h-55zM300 854l50 -25l-134 -126l-32 18z" />
    <glyph glyph-name="racute" unicode="&#x155;" horiz-adv-x="260" 
d="M72 0v408h40v-53q27 62 90 62q24 0 43 -10l-20 -36q-11 8 -30 8q-29 0 -47.5 -16.5t-25 -46t-8.5 -49.5t-2 -48v-219h-40zM205 620l43 -25l-105 -128l-30 16z" />
    <glyph glyph-name="Rcommaaccent" unicode="&#x156;" horiz-adv-x="468" 
d="M420 0h-50l-216 315h-20v-315h-44v667h96q91 0 141 -34q69 -48 69 -143q0 -55 -27 -98.5t-85 -63.5q-38 -13 -82 -13zM134 627v-272h64q71 0 111.5 36t40.5 100q0 84 -59 116q-35 20 -102 20h-55zM177 -190l46 140l44 -14l-62 -136z" />
    <glyph glyph-name="rcommaaccent" unicode="&#x157;" horiz-adv-x="260" 
d="M72 0v408h40v-53q27 62 90 62q24 0 43 -10l-20 -36q-11 8 -30 8q-29 0 -47.5 -16.5t-25 -46t-8.5 -49.5t-2 -48v-219h-40zM72 -190l46 140l44 -14l-62 -136z" />
    <glyph glyph-name="Rcaron" unicode="&#x158;" horiz-adv-x="468" 
d="M420 0h-50l-216 315h-20v-315h-44v667h96q91 0 141 -34q69 -48 69 -143q0 -55 -27 -98.5t-85 -63.5q-38 -13 -82 -13zM134 627v-272h64q71 0 111.5 36t40.5 100q0 84 -59 116q-35 20 -102 20h-55zM210 775l96 64l34 -27l-130 -90l-130 90l34 27z" />
    <glyph glyph-name="rcaron" unicode="&#x159;" horiz-adv-x="260" 
d="M72 0v408h40v-53q27 62 90 62q24 0 43 -10l-20 -36q-11 8 -30 8q-29 0 -47.5 -16.5t-25 -46t-8.5 -49.5t-2 -48v-219h-40zM150 517l90 68l32 -26l-122 -94l-122 94l32 26z" />
    <glyph glyph-name="Sacute" unicode="&#x15a;" horiz-adv-x="514" 
d="M426 581l-32 -27q-42 82 -131 82q-57 0 -90.5 -36t-33.5 -88q0 -26 7.5 -45t27 -35t34.5 -24.5t48 -24.5q108 -52 133 -70q71 -49 71 -129q0 -83 -61 -139t-147 -56q-95 0 -155 70q-29 34 -43 73l38 18q12 -36 36 -64q45 -57 125 -57q68 0 114.5 44t46.5 110
q0 65 -65 105q-29 17 -113 58q-55 27 -80.5 44t-41.5 44q-21 35 -21 76q0 65 44 115.5t127 50.5q51 0 94 -24.5t68 -70.5zM336 854l50 -25l-134 -126l-32 18z" />
    <glyph glyph-name="sacute" unicode="&#x15b;" horiz-adv-x="334" 
d="M280 351l-34 -18q-20 46 -71 46q-32 0 -50.5 -20t-18.5 -45q0 -19 11 -32.5t23 -20t38 -16.5q4 -1 19.5 -7.5l20.5 -8.5t17.5 -7.5t18.5 -10t14.5 -11.5t14.5 -15q21 -26 21 -66q0 -65 -39.5 -97.5t-93.5 -32.5q-52 0 -90 29t-51 79l39 12q10 -39 38.5 -60.5t63.5 -21.5
q39 0 65 25.5t26 64.5q0 32 -20 49.5t-71 38.5q-70 29 -89 54q-18 24 -18 53q0 46 31 75.5t78 29.5q78 0 107 -66zM237 620l43 -25l-105 -128l-30 16z" />
    <glyph glyph-name="Scircumflex" unicode="&#x15c;" horiz-adv-x="514" 
d="M426 581l-32 -27q-42 82 -131 82q-57 0 -90.5 -36t-33.5 -88q0 -26 7.5 -45t27 -35t34.5 -24.5t48 -24.5q108 -52 133 -70q71 -49 71 -129q0 -83 -61 -139t-147 -56q-95 0 -155 70q-29 34 -43 73l38 18q12 -36 36 -64q45 -57 125 -57q68 0 114.5 44t46.5 110
q0 65 -65 105q-29 17 -113 58q-55 27 -80.5 44t-41.5 44q-21 35 -21 76q0 65 44 115.5t127 50.5q51 0 94 -24.5t68 -70.5zM270 786l-96 -64l-34 27l130 90l130 -90l-34 -27z" />
    <glyph glyph-name="scircumflex" unicode="&#x15d;" horiz-adv-x="334" 
d="M280 351l-34 -18q-20 46 -71 46q-32 0 -50.5 -20t-18.5 -45q0 -19 11 -32.5t23 -20t38 -16.5q4 -1 19.5 -7.5l20.5 -8.5t17.5 -7.5t18.5 -10t14.5 -11.5t14.5 -15q21 -26 21 -66q0 -65 -39.5 -97.5t-93.5 -32.5q-52 0 -90 29t-51 79l39 12q10 -39 38.5 -60.5t63.5 -21.5
q39 0 65 25.5t26 64.5q0 32 -20 49.5t-71 38.5q-70 29 -89 54q-18 24 -18 53q0 46 31 75.5t78 29.5q78 0 107 -66zM176 535l-90 -68l-32 25l122 94l122 -94l-32 -25z" />
    <glyph glyph-name="Scedilla" unicode="&#x15e;" horiz-adv-x="514" 
d="M426 581l-32 -27q-42 82 -131 82q-57 0 -90.5 -36t-33.5 -88q0 -26 7.5 -45t27 -35t34.5 -24.5t48 -24.5q108 -52 133 -70q71 -49 71 -129q0 -83 -61 -139t-147 -56q-95 0 -155 70q-29 34 -43 73l38 18q12 -36 36 -64q45 -57 125 -57q68 0 114.5 44t46.5 110
q0 65 -65 105q-29 17 -113 58q-55 27 -80.5 44t-41.5 44q-21 35 -21 76q0 65 44 115.5t127 50.5q51 0 94 -24.5t68 -70.5zM250 -50l46 -26l-108 -126l-30 18z" />
    <glyph glyph-name="scedilla" unicode="&#x15f;" horiz-adv-x="334" 
d="M280 351l-34 -18q-20 46 -71 46q-32 0 -50.5 -20t-18.5 -45q0 -19 11 -32.5t23 -20t38 -16.5q4 -1 19.5 -7.5l20.5 -8.5t17.5 -7.5t18.5 -10t14.5 -11.5t14.5 -15q21 -26 21 -66q0 -65 -39.5 -97.5t-93.5 -32.5q-52 0 -90 29t-51 79l39 12q10 -39 38.5 -60.5t63.5 -21.5
q39 0 65 25.5t26 64.5q0 32 -20 49.5t-71 38.5q-70 29 -89 54q-18 24 -18 53q0 46 31 75.5t78 29.5q78 0 107 -66zM170 -50l46 -20l-100 -124l-28 16z" />
    <glyph glyph-name="Scaron" unicode="&#x160;" horiz-adv-x="514" 
d="M426 581l-32 -27q-42 82 -131 82q-57 0 -90.5 -36t-33.5 -88q0 -26 7.5 -45t27 -35t34.5 -24.5t48 -24.5q108 -52 133 -70q71 -49 71 -129q0 -83 -61 -139t-147 -56q-95 0 -155 70q-29 34 -43 73l38 18q12 -36 36 -64q45 -57 125 -57q68 0 114.5 44t46.5 110
q0 65 -65 105q-29 17 -113 58q-55 27 -80.5 44t-41.5 44q-21 35 -21 76q0 65 44 115.5t127 50.5q51 0 94 -24.5t68 -70.5zM262 775l96 64l34 -27l-130 -90l-130 90l34 27z" />
    <glyph glyph-name="scaron" unicode="&#x161;" horiz-adv-x="334" 
d="M280 351l-34 -18q-20 46 -71 46q-32 0 -50.5 -20t-18.5 -45q0 -19 11 -32.5t23 -20t38 -16.5q4 -1 19.5 -7.5l20.5 -8.5t17.5 -7.5t18.5 -10t14.5 -11.5t14.5 -15q21 -26 21 -66q0 -65 -39.5 -97.5t-93.5 -32.5q-52 0 -90 29t-51 79l39 12q10 -39 38.5 -60.5t63.5 -21.5
q39 0 65 25.5t26 64.5q0 32 -20 49.5t-71 38.5q-70 29 -89 54q-18 24 -18 53q0 46 31 75.5t78 29.5q78 0 107 -66zM174 517l90 68l32 -26l-122 -94l-122 94l32 26z" />
    <glyph glyph-name="Tcedilla" unicode="&#x162;" horiz-adv-x="418" 
d="M404 627h-173v-627h-44v627h-173v40h390v-40zM210 -50l46 -26l-108 -126l-30 18z" />
    <glyph glyph-name="tcedilla" unicode="&#x163;" horiz-adv-x="194" 
d="M186 370h-71v-370h-40v370h-45v38h45v146h40v-146h71v-38zM88 -50l46 -20l-100 -124l-28 16z" />
    <glyph glyph-name="Tcaron" unicode="&#x164;" horiz-adv-x="418" 
d="M404 627h-173v-627h-44v627h-173v40h390v-40zM209 775l96 64l34 -27l-130 -90l-130 90l34 27z" />
    <glyph glyph-name="tcaron" unicode="&#x165;" horiz-adv-x="206" 
d="M186 370h-71v-370h-40v370h-45v38h45v146h40v-146h71v-38zM146 520l46 160l44 -14l-62 -156z" />
    <glyph glyph-name="Utilde" unicode="&#x168;" horiz-adv-x="634" 
d="M90 667h44v-417q0 -53 5.5 -84.5t22.5 -59.5q26 -42 69.5 -59.5t85.5 -17.5t85.5 17.5t69.5 59.5q17 28 22.5 59.5t5.5 84.5v417h44v-417q0 -62 -7 -99t-31 -72q-62 -90 -189 -90t-189 90q-24 35 -31 72t-7 99v417zM216 717l-29 22q11 25 23 38q20 22 45 22q22 0 64 -17
q47 -18 59 -18q13 0 25 12q11 13 15 26l29 -22q-9 -27 -28 -43q-19 -17 -46 -17q-18 0 -58 17q-43 18 -58 18q-17 0 -28 -14q-6 -7 -13 -24z" />
    <glyph glyph-name="utilde" unicode="&#x169;" horiz-adv-x="438" 
d="M72 408h40v-246q0 -71 26 -102q28 -33 81 -33t81 33q26 31 26 102v246h40v-257q0 -72 -31 -112q-39 -50 -116 -50t-116 50q-31 40 -31 112v257zM118 487l-26 19q9 25 23 38q19 19 46 19q22 0 72 -22q31 -13 47 -13t27 12q14 18 14 25l25 -20q-9 -24 -26 -40
q-20 -17 -45 -17q-18 0 -58 17q-43 18 -59 18q-17 0 -28 -12q-9 -10 -12 -24z" />
    <glyph glyph-name="Umacron" unicode="&#x16a;" horiz-adv-x="634" 
d="M90 667h44v-417q0 -53 5.5 -84.5t22.5 -59.5q26 -42 69.5 -59.5t85.5 -17.5t85.5 17.5t69.5 59.5q17 28 22.5 59.5t5.5 84.5v417h44v-417q0 -62 -7 -99t-31 -72q-62 -90 -189 -90t-189 90q-24 35 -31 72t-7 99v417zM182 750v44h270v-44h-270z" />
    <glyph glyph-name="umacron" unicode="&#x16b;" horiz-adv-x="438" 
d="M72 408h40v-246q0 -71 26 -102q28 -33 81 -33t81 33q26 31 26 102v246h40v-257q0 -72 -31 -112q-39 -50 -116 -50t-116 50q-31 40 -31 112v257zM84 493v39h270v-39h-270z" />
    <glyph glyph-name="Ubreve" unicode="&#x16c;" horiz-adv-x="634" 
d="M90 667h44v-417q0 -53 5.5 -84.5t22.5 -59.5q26 -42 69.5 -59.5t85.5 -17.5t85.5 17.5t69.5 59.5q17 28 22.5 59.5t5.5 84.5v417h44v-417q0 -62 -7 -99t-31 -72q-62 -90 -189 -90t-189 90q-24 35 -31 72t-7 99v417zM190 826h40q6 -20 24 -34q24 -18 63 -18t63 18
q18 14 24 34h40q-4 -33 -29 -58q-36 -36 -98 -36t-98 36q-25 25 -29 58z" />
    <glyph glyph-name="ubreve" unicode="&#x16d;" horiz-adv-x="438" 
d="M72 408h40v-246q0 -71 26 -102q28 -33 81 -33t81 33q26 31 26 102v246h40v-257q0 -72 -31 -112q-39 -50 -116 -50t-116 50q-31 40 -31 112v257zM94 573h38q5 -22 25 -37q26 -19 62 -19t62 19q20 15 25 37h38q-4 -33 -29 -58q-36 -36 -96 -36t-96 36q-25 25 -29 58z" />
    <glyph glyph-name="Uring" unicode="&#x16e;" horiz-adv-x="634" 
d="M90 667h44v-417q0 -53 5.5 -84.5t22.5 -59.5q26 -42 69.5 -59.5t85.5 -17.5t85.5 17.5t69.5 59.5q17 28 22.5 59.5t5.5 84.5v417h44v-417q0 -62 -7 -99t-31 -72q-62 -90 -189 -90t-189 90q-24 35 -31 72t-7 99v417zM237 787q0 33 23.5 56.5t56.5 23.5t56.5 -23.5
t23.5 -56.5t-23.5 -56.5t-56.5 -23.5t-56.5 23.5t-23.5 56.5zM276 787q0 -18 11.5 -29.5t29.5 -11.5t29.5 11.5t11.5 29.5t-11.5 29.5t-29.5 11.5t-29.5 -11.5t-11.5 -29.5z" />
    <glyph glyph-name="uring" unicode="&#x16f;" horiz-adv-x="438" 
d="M72 408h40v-246q0 -71 26 -102q28 -33 81 -33t81 33q26 31 26 102v246h40v-257q0 -72 -31 -112q-39 -50 -116 -50t-116 50q-31 40 -31 112v257zM142 549q0 33 22 55t55 22t55 -22t22 -55t-22 -55t-55 -22t-55 22t-22 55zM178 549q0 -18 11.5 -29.5t29.5 -11.5t29.5 11.5
t11.5 29.5t-11.5 29.5t-29.5 11.5t-29.5 -11.5t-11.5 -29.5z" />
    <glyph glyph-name="Uhungarumlaut" unicode="&#x170;" horiz-adv-x="634" 
d="M90 667h44v-417q0 -53 5.5 -84.5t22.5 -59.5q26 -42 69.5 -59.5t85.5 -17.5t85.5 17.5t69.5 59.5q17 28 22.5 59.5t5.5 84.5v417h44v-417q0 -62 -7 -99t-31 -72q-62 -90 -189 -90t-189 90q-24 35 -31 72t-7 99v417zM307 854l52 -26l-100 -125l-36 15zM428 854l52 -26
l-100 -125l-36 15z" />
    <glyph glyph-name="uhungarumlaut" unicode="&#x171;" horiz-adv-x="438" 
d="M72 408h40v-246q0 -71 26 -102q28 -33 81 -33t81 33q26 31 26 102v246h40v-257q0 -72 -31 -112q-39 -50 -116 -50t-116 50q-31 40 -31 112v257zM218 620l42 -25l-99 -128l-27 16zM329 620l42 -25l-99 -128l-27 16z" />
    <glyph glyph-name="Uogonek" unicode="&#x172;" horiz-adv-x="634" 
d="M90 667h44v-427q0 -54 9.5 -93t40.5 -69q51 -49 133 -49q84 0 135 51q22 22 33 54.5t13 55.5t2 60v417h44v-417q0 -62 -7 -99t-31 -72q-18 -27 -37.5 -41.5t-53.5 -33.5q-46 -24 -64 -45q-23 -26 -23 -56q0 -19 12 -33q14 -16 48 -16q30 0 52 9l-9 -37q-22 -8 -45 -8
q-49 0 -77 27q-23 22 -23 56q0 26 17 53q13 21 34 36q-63 0 -106.5 12.5t-79.5 48.5q-37 37 -49 80.5t-12 108.5v427z" />
    <glyph glyph-name="uogonek" unicode="&#x173;" horiz-adv-x="438" 
d="M72 408h40v-246q0 -71 26 -102q28 -33 81 -33t81 33q26 31 26 102v246h40v-257q0 -74 -31 -112q-16 -19 -54 -42q-34 -21 -51 -44q-19 -25 -19 -50q0 -21 12 -33q16 -16 48 -16q27 0 52 9l-9 -36q-24 -8 -45 -8q-47 0 -73 26q-23 23 -23 56q0 29 19 56q13 19 31 32
q-81 0 -120 50q-31 40 -31 112v257z" />
    <glyph glyph-name="Ydieresis" unicode="&#x178;" horiz-adv-x="516" 
d="M233 0v285l-219 382h50l192 -337l196 337h50l-225 -382v-285h-44zM127 780q0 16 11 27t27 11t27 -11t11 -27t-11 -27t-27 -11t-27 11t-11 27zM313 780q0 16 11 27t27 11t27 -11t11 -27t-11 -27t-27 -11t-27 11t-11 27z" />
    <glyph glyph-name="Zacute" unicode="&#x179;" horiz-adv-x="554" 
d="M517 667l-406 -627h395v-40h-469l406 627h-367v40h441zM356 854l50 -25l-134 -126l-32 18z" />
    <glyph glyph-name="zacute" unicode="&#x17a;" horiz-adv-x="452" 
d="M434 408l-330 -370h328v-38h-414l334 370h-282v38h364zM295 620l43 -25l-105 -128l-30 16z" />
    <glyph glyph-name="Zdotaccent" unicode="&#x17b;" horiz-adv-x="554" 
d="M517 667l-406 -627h395v-40h-469l406 627h-367v40h441zM249 781q0 18 11.5 29.5t29.5 11.5t29.5 -11.5t11.5 -29.5t-11.5 -29.5t-29.5 -11.5t-29.5 11.5t-11.5 29.5z" />
    <glyph glyph-name="zdotaccent" unicode="&#x17c;" horiz-adv-x="452" 
d="M434 408l-330 -370h328v-38h-414l334 370h-282v38h364zM201 527q0 17 11 28t28 11t28 -11t11 -28t-11 -28t-28 -11t-28 11t-11 28z" />
    <glyph glyph-name="Zcaron" unicode="&#x17d;" horiz-adv-x="554" 
d="M517 667l-406 -627h395v-40h-469l406 627h-367v40h441zM290 775l96 64l34 -27l-130 -90l-130 90l34 27z" />
    <glyph glyph-name="zcaron" unicode="&#x17e;" horiz-adv-x="452" 
d="M434 408l-330 -370h328v-38h-414l334 370h-282v38h364zM240 517l90 68l32 -26l-122 -94l-122 94l32 26z" />
    <glyph glyph-name="uni018F" unicode="&#x18f;" horiz-adv-x="773" 
d="M54 320h619v10q0 129 -86 217.5t-215 88.5q-109 0 -191 -70q-40 -33 -64 -74l-35 28q34 48 80 84q94 72 209 72q147 0 247.5 -98.5t100.5 -245.5q0 -149 -98.5 -246t-246.5 -97q-162 0 -251 112q-69 87 -69 219zM669 280h-569q4 -78 43 -138q30 -46 91.5 -79.5
t140.5 -33.5q116 0 197 72.5t97 178.5z" />
    <glyph glyph-name="florin" unicode="&#x192;" horiz-adv-x="548" 
d="M184 370l7 38h62l45 235q10 49 33 72q25 25 69 25q30 0 58 -14l-8 -36q-23 12 -46 12q-30 0 -46 -15t-21 -44l-44 -235h101l-7 -38h-101l-72 -385q-16 -89 -45 -118q-27 -27 -74 -27q-38 0 -68 14l8 37q29 -13 56 -13q32 0 49 17q18 18 31 84l75 391h-62z" />
    <glyph glyph-name="uni01CF" unicode="&#x1cf;" horiz-adv-x="224" 
d="M90 667h44v-667h-44v667zM112 779l80 60l35 -28l-115 -89l-115 89l35 28z" />
    <glyph glyph-name="uni01D0" unicode="&#x1d0;" horiz-adv-x="184" 
d="M72 408h40v-408h-40v408zM92 523l70 60l30 -26l-100 -86l-100 86l30 26z" />
    <glyph glyph-name="uni01DD" unicode="&#x1dd;" horiz-adv-x="483" 
d="M46 207h349q0 80 -47 126t-115 46q-48 0 -85 -25.5t-57 -67.5l-34 20q23 44 67 77.5t112 33.5q93 0 147 -60.5t54 -152.5q0 -101 -58.5 -158t-139.5 -57q-84 0 -138.5 59.5t-54.5 158.5zM392 169h-304q8 -62 49.5 -102t101.5 -40q61 0 103 40.5t50 101.5z" />
    <glyph glyph-name="Gcaron" unicode="&#x1e6;" horiz-adv-x="772" 
d="M438 280v40h280q0 -132 -68 -219q-88 -112 -251 -112q-148 0 -246.5 97t-98.5 246q0 147 100.5 245.5t247.5 98.5q115 0 209 -72q46 -36 80 -84l-35 -28q-24 41 -64 74q-84 70 -191 70q-128 0 -214.5 -89t-86.5 -217q0 -126 85 -213.5t213 -87.5q79 0 140.5 33.5
t91.5 79.5q40 62 44 138h-236zM386 775l96 64l34 -27l-130 -90l-130 90l34 27z" />
    <glyph glyph-name="gcaron" unicode="&#x1e7;" horiz-adv-x="520" 
d="M408 408h40v-396q0 -115 -54.5 -178.5t-150.5 -63.5q-83 0 -139.5 46.5t-60.5 128.5h42q5 -63 48.5 -100t109.5 -37q45 0 78.5 18t49.5 41t25 56t10.5 51t1.5 38v58q-58 -81 -161 -81q-81 0 -141 57t-60 158q0 91 56 152t150 61q100 0 156 -80v71zM248 379
q-73 0 -116.5 -51.5t-43.5 -125.5q0 -75 43.5 -125t114.5 -50q74 0 119 51t45 128q0 73 -44.5 123t-117.5 50zM260 517l90 68l32 -26l-122 -94l-122 94l32 26z" />
    <glyph glyph-name="AEacute" unicode="&#x1fc;" horiz-adv-x="852" 
d="M523 0l-89 219h-285l-87 -219h-48l269 667h289l17 -40h-275l99 -242h268l17 -40h-268l124 -305h273l18 -40h-322zM165 259h252l-127 314zM492 854l50 -25l-134 -126l-32 18z" />
    <glyph glyph-name="aeacute" unicode="&#x1fd;" horiz-adv-x="792" 
d="M747 198h-350q1 -76 46 -123.5t112 -47.5q94 0 147 92l34 -24q-68 -106 -182 -106q-116 0 -168 102q-17 -50 -61.5 -76t-107.5 -26q-82 0 -127 37.5t-45 89.5q0 49 42 89t137 40q83 0 131 -42q0 176 -142 176q-67 0 -139 -37v41q68 34 141 34q58 0 101 -29t62 -85
q26 53 72 83.5t103 30.5q79 0 135.5 -57t58.5 -162zM402 236h303q-9 62 -51.5 102.5t-101.5 40.5t-100.5 -41t-49.5 -102zM223 207q-66 0 -101 -26t-35 -65q0 -38 33.5 -63.5t96.5 -25.5q70 0 102.5 28.5t32.5 64.5q0 34 -31 60.5t-98 26.5zM451 620l43 -25l-105 -128
l-30 16z" />
    <glyph glyph-name="Scommaaccent" unicode="&#x218;" horiz-adv-x="514" 
d="M426 581l-32 -27q-42 82 -131 82q-57 0 -90.5 -36t-33.5 -88q0 -26 7.5 -45t27 -35t34.5 -24.5t48 -24.5q108 -52 133 -70q71 -49 71 -129q0 -83 -61 -139t-147 -56q-95 0 -155 70q-29 34 -43 73l38 18q12 -36 36 -64q45 -57 125 -57q68 0 114.5 44t46.5 110
q0 65 -65 105q-29 17 -113 58q-55 27 -80.5 44t-41.5 44q-21 35 -21 76q0 65 44 115.5t127 50.5q51 0 94 -24.5t68 -70.5zM193 -190l46 140l44 -14l-62 -136z" />
    <glyph glyph-name="scommaaccent" unicode="&#x219;" horiz-adv-x="334" 
d="M280 351l-34 -18q-20 46 -71 46q-32 0 -50.5 -20t-18.5 -45q0 -19 11 -32.5t23 -20t38 -16.5q4 -1 19.5 -7.5l20.5 -8.5t17.5 -7.5t18.5 -10t14.5 -11.5t14.5 -15q21 -26 21 -66q0 -65 -39.5 -97.5t-93.5 -32.5q-52 0 -90 29t-51 79l39 12q10 -39 38.5 -60.5t63.5 -21.5
q39 0 65 25.5t26 64.5q0 32 -20 49.5t-71 38.5q-70 29 -89 54q-18 24 -18 53q0 46 31 75.5t78 29.5q78 0 107 -66zM104 -190l46 140l44 -14l-62 -136z" />
    <glyph glyph-name="Tcommaaccent" unicode="&#x21a;" horiz-adv-x="418" 
d="M404 627h-173v-627h-44v627h-173v40h390v-40zM153 -190l46 140l44 -14l-62 -136z" />
    <glyph glyph-name="tcommaaccent" unicode="&#x21b;" horiz-adv-x="194" 
d="M186 370h-71v-370h-40v370h-45v38h45v146h40v-146h71v-38zM42 -190l46 140l44 -14l-62 -136z" />
    <glyph glyph-name="uni0228" unicode="&#x228;" horiz-adv-x="464" 
d="M410 667v-40h-276v-242h270v-40h-270v-305h276v-40h-320v667h320zM252 -50l46 -26l-108 -126l-30 18z" />
    <glyph glyph-name="uni0229" unicode="&#x229;" horiz-adv-x="483" 
d="M437 199h-349q0 -76 47.5 -124t114.5 -48q48 0 85 25.5t57 67.5l34 -20q-23 -44 -67 -77.5t-112 -33.5q-93 0 -147 60.5t-54 152.5q0 101 58.5 158t139.5 57q83 0 138 -61t55 -157zM91 237h304q-8 62 -49.5 102t-101.5 40q-61 0 -103 -40.5t-50 -101.5zM259 -50l46 -20
l-100 -124l-28 16z" />
    <glyph glyph-name="uni0237" unicode="&#x237;" horiz-adv-x="184" 
d="M72 408h40v-638h-40v638z" />
    <glyph glyph-name="uni0259" unicode="&#x259;" horiz-adv-x="483" 
d="M46 207h349q0 80 -47 126t-115 46q-48 0 -85 -25.5t-57 -67.5l-34 20q23 44 67 77.5t112 33.5q93 0 147 -60.5t54 -152.5q0 -101 -58.5 -158t-139.5 -57q-84 0 -138.5 59.5t-54.5 158.5zM392 169h-304q8 -62 49.5 -102t101.5 -40q61 0 103 40.5t50 101.5z" />
    <glyph glyph-name="afii57929" unicode="&#x2bc;" 
d="M192 520l46 160l44 -14l-62 -156z" />
    <glyph glyph-name="circumflex" unicode="&#x2c6;" 
d="M250 535l-90 -68l-32 25l122 94l122 -94l-32 -25z" />
    <glyph glyph-name="caron" unicode="&#x2c7;" 
d="M250 517l90 68l32 -26l-122 -94l-122 94l32 26z" />
    <glyph glyph-name="uni02C9" unicode="&#x2c9;" 
d="M115 493v39h270v-39h-270z" />
    <glyph glyph-name="breve" unicode="&#x2d8;" 
d="M125 573h38q5 -22 25 -37q26 -19 62 -19t62 19q20 15 25 37h38q-4 -33 -29 -58q-36 -36 -96 -36t-96 36q-25 25 -29 58z" />
    <glyph glyph-name="dotaccent" unicode="&#x2d9;" 
d="M211 527q0 17 11 28t28 11t28 -11t11 -28t-11 -28t-28 -11t-28 11t-11 28z" />
    <glyph glyph-name="ring" unicode="&#x2da;" 
d="M173 549q0 33 22 55t55 22t55 -22t22 -55t-22 -55t-55 -22t-55 22t-22 55zM209 549q0 -18 11.5 -29.5t29.5 -11.5t29.5 11.5t11.5 29.5t-11.5 29.5t-29.5 11.5t-29.5 -11.5t-11.5 -29.5z" />
    <glyph glyph-name="ogonek" unicode="&#x2db;" 
d="M358 -137l-9 -36q-20 -8 -45 -8q-47 0 -71.5 25t-24.5 57q0 33 23 62q16 20 43 37h40q-27 -18 -46 -42q-22 -29 -22 -55q0 -22 15 -35.5t45 -13.5q23 0 52 9z" />
    <glyph glyph-name="tilde" unicode="&#x2dc;" 
d="M149 487l-26 19q9 25 23 38q19 19 46 19q22 0 72 -22q31 -13 47 -13t27 12q14 18 14 25l25 -20q-9 -24 -26 -40q-20 -17 -45 -17q-18 0 -58 17q-43 18 -59 18q-17 0 -28 -12q-9 -10 -12 -24z" />
    <glyph glyph-name="hungarumlaut" unicode="&#x2dd;" 
d="M249 620l42 -25l-99 -128l-27 16zM360 620l42 -25l-99 -128l-27 16z" />
    <glyph glyph-name="acutecomb" unicode="&#x301;" horiz-adv-x="2" 
d="M-173 620l43 -25l-105 -128l-30 16z" />
    <glyph glyph-name="uni0394" unicode="&#x394;" horiz-adv-x="628" 
d="M614 0h-600l280 667h40zM314 603l-234 -563h468z" />
    <glyph glyph-name="uni0394" unicode="&#x2206;" horiz-adv-x="628" 
d="M614 0h-600l280 667h40zM314 603l-234 -563h468z" />
    <glyph glyph-name="uni03A9" unicode="&#x3a9;" horiz-adv-x="666" 
d="M28 40h204q-65 33 -116 92q-88 101 -88 222q0 62 23 124t68 109q85 89 214 89t214 -89q91 -93 91 -230q0 -124 -88 -225q-51 -59 -116 -92h204v-40h-256v44q86 46 138 109q72 87 72 198q0 127 -79 208q-75 77 -180 77q-107 0 -180 -77q-39 -41 -59 -97t-20 -112
q0 -110 72 -197q52 -63 138 -109v-44h-256v40z" />
    <glyph glyph-name="uni03A9" unicode="&#x2126;" horiz-adv-x="666" 
d="M28 40h204q-65 33 -116 92q-88 101 -88 222q0 62 23 124t68 109q85 89 214 89t214 -89q91 -93 91 -230q0 -124 -88 -225q-51 -59 -116 -92h204v-40h-256v44q86 46 138 109q72 87 72 198q0 127 -79 208q-75 77 -180 77q-107 0 -180 -77q-39 -41 -59 -97t-20 -112
q0 -110 72 -197q52 -63 138 -109v-44h-256v40z" />
    <glyph glyph-name="pi" unicode="&#x3c0;" horiz-adv-x="492" 
d="M134 0h-40v370h-72v38h448v-38h-72v-370h-40v370h-224v-370z" />
    <glyph glyph-name="afii10023" unicode="&#x401;" horiz-adv-x="464" 
d="M410 667v-40h-276v-242h270v-40h-270v-305h276v-40h-320v667h320zM121 780q0 16 11 27t27 11t27 -11t11 -27t-11 -27t-27 -11t-27 11t-11 27zM307 780q0 16 11 27t27 11t27 -11t11 -27t-11 -27t-27 -11t-27 11t-11 27z" />
    <glyph glyph-name="afii10051" unicode="&#x402;" horiz-adv-x="616" 
d="M424 627h-200v-262q69 23 137 23q115 0 167 -61q42 -49 42 -133q0 -110 -67 -163q-47 -37 -127 -37q-30 0 -68 6v40q28 -6 63 -6q70 0 107 33q46 41 46 125q0 65 -33 107q-41 49 -127 49q-71 0 -140 -23v-325h-44v627h-166v40h410v-40z" />
    <glyph glyph-name="afii10052" unicode="&#x403;" horiz-adv-x="400" 
d="M90 0v667h296v-40h-252v-627h-44zM316 854l50 -25l-134 -126l-32 18z" />
    <glyph glyph-name="afii10053" unicode="&#x404;" horiz-adv-x="678" 
d="M624 589v-58q-43 50 -101.5 77.5t-123.5 27.5q-115 0 -200.5 -77t-96.5 -195h442v-40h-444q3 -133 94.5 -214t205.5 -81q56 0 116 24.5t108 76.5v-58q-94 -83 -222 -83q-148 0 -248 101t-100 242q0 144 101 244t245 100q132 0 224 -87z" />
    <glyph glyph-name="afii10054" unicode="&#x405;" horiz-adv-x="514" 
d="M426 581l-32 -27q-42 82 -131 82q-57 0 -90.5 -36t-33.5 -88q0 -26 7.5 -45t27 -35t34.5 -24.5t48 -24.5q108 -52 133 -70q71 -49 71 -129q0 -83 -61 -139t-147 -56q-95 0 -155 70q-29 34 -43 73l38 18q12 -36 36 -64q45 -57 125 -57q68 0 114.5 44t46.5 110
q0 65 -65 105q-29 17 -113 58q-5 2 -22 10.5t-23.5 12t-20.5 12t-22 15t-17.5 17t-16.5 21.5q-21 35 -21 76q0 65 44 115.5t127 50.5q51 0 94 -24.5t68 -70.5z" />
    <glyph glyph-name="afii10055" unicode="&#x406;" horiz-adv-x="224" 
d="M90 667h44v-667h-44v667z" />
    <glyph glyph-name="afii10056" unicode="&#x407;" horiz-adv-x="224" 
d="M90 667h44v-667h-44v667zM10 780q0 16 11 27t27 11t27 -11t11 -27t-11 -27t-27 -11t-27 11t-11 27zM138 780q0 16 11 27t27 11t27 -11t11 -27t-11 -27t-27 -11t-27 11t-11 27z" />
    <glyph glyph-name="afii10057" unicode="&#x408;" horiz-adv-x="263" 
d="M129 667h44v-537q0 -76 -33 -110q-31 -31 -83 -31q-38 0 -73 25q-18 13 -38 45l30 26q13 -25 31 -38q24 -18 52 -18q32 0 48 19q22 24 22 82v537z" />
    <glyph glyph-name="afii10058" unicode="&#x409;" horiz-adv-x="922" 
d="M154 667h376v-287h116q230 0 230 -183q0 -83 -53.5 -140t-162.5 -57h-174v627h-288v-388q0 -50 -1.5 -77.5t-12.5 -65.5t-33 -62q-36 -40 -97 -40q-16 0 -40 6v40q20 -6 37 -6q39 0 65 26q18 18 26.5 51t10 57.5t1.5 70.5v428zM530 340v-300h112q101 0 146 44
q42 40 42 113q0 87 -69 123q-39 20 -127 20h-104z" />
    <glyph glyph-name="afii10059" unicode="&#x40a;" horiz-adv-x="974" 
d="M134 667v-287h404v287h44v-287h116q230 0 230 -183q0 -83 -53.5 -140t-162.5 -57h-174v340h-404v-340h-44v667h44zM582 340v-300h112q101 0 146 44q42 40 42 113q0 87 -69 123q-39 20 -127 20h-104z" />
    <glyph glyph-name="afii10060" unicode="&#x40b;" horiz-adv-x="670" 
d="M424 627h-200v-243h170q91 0 136 -22q44 -21 57 -55.5t13 -93.5v-213h-44v213q0 19 -1 31t-6 30t-16.5 32t-30.5 23q-31 15 -122 15h-156v-344h-44v627h-166v40h410v-40z" />
    <glyph glyph-name="afii10061" unicode="&#x40c;" horiz-adv-x="540" 
d="M134 667v-314l315 314h58l-323 -319l342 -348h-60l-314 318l-18 -17v-301h-44v667h44zM336 854l50 -25l-134 -126l-32 18z" />
    <glyph glyph-name="afii10062" unicode="&#x40e;" horiz-adv-x="550" 
d="M14 667h50l231 -432l195 432h46l-305 -667h-46l85 186zM145 803l35 19q29 -64 105 -64t105 64l35 -19q-21 -46 -60.5 -65.5t-79.5 -19.5t-79.5 19.5t-60.5 65.5z" />
    <glyph glyph-name="afii10145" unicode="&#x40f;" horiz-adv-x="666" 
d="M90 0v667h44v-627h398v627h44v-667h-221v-150h-44v150h-221z" />
    <glyph glyph-name="afii10017" unicode="&#x410;" horiz-adv-x="586" 
d="M524 0l-89 219h-284l-89 -219h-48l281 687l277 -687h-48zM167 259h252l-125 316z" />
    <glyph glyph-name="afii10018" unicode="&#x411;" horiz-adv-x="534" 
d="M90 0v667h321v-40h-277v-247h116q230 0 230 -183q0 -83 -53.5 -140t-162.5 -57h-174zM134 340v-300h112q101 0 146 44q42 40 42 113q0 87 -69 123q-40 20 -127 20h-104z" />
    <glyph glyph-name="afii10019" unicode="&#x412;" horiz-adv-x="534" 
d="M90 0v667h146q86 0 135 -45.5t49 -121.5q0 -98 -78 -146q64 -10 101 -56t37 -111q0 -86 -57.5 -136.5t-149.5 -50.5h-183zM134 627v-262h106q57 0 91 28q44 36 44 102q0 67 -45 104q-36 28 -111 28h-85zM134 325v-285h112q31 0 49 1.5t46.5 10.5t49.5 28q43 38 43 102
q0 91 -71 124q-43 19 -125 19h-104z" />
    <glyph glyph-name="afii10020" unicode="&#x413;" horiz-adv-x="400" 
d="M90 0v667h296v-40h-252v-627h-44z" />
    <glyph glyph-name="afii10021" unicode="&#x414;" horiz-adv-x="610" 
d="M144 667h376v-627h76v-174h-42v134h-498v-134h-42v174q34 0 62 25t44 65q24 61 24 175v362zM188 627v-322q0 -123 -24 -186q-17 -45 -51 -79h363v587h-288z" />
    <glyph glyph-name="afii10022" unicode="&#x415;" horiz-adv-x="464" 
d="M410 667v-40h-276v-242h270v-40h-270v-305h276v-40h-320v667h320z" />
    <glyph glyph-name="afii10024" unicode="&#x416;" horiz-adv-x="796" 
d="M376 667h44v-314l282 314h58l-296 -323l318 -344h-58l-291 314l-13 -13v-301h-44v301l-13 13l-291 -314h-58l318 344l-296 323h58l282 -314v314z" />
    <glyph glyph-name="afii10025" unicode="&#x417;" horiz-adv-x="554" 
d="M136 554l-32 27q58 95 181 95q76 0 121 -43q48 -44 48 -120q0 -99 -88 -146q64 -16 99 -64t35 -112q0 -105 -76 -160q-58 -42 -145 -42q-83 0 -140 40.5t-85 100.5l42 20q25 -60 78.5 -90.5t107.5 -30.5q68 0 115 35q57 42 57 127q0 70 -47.5 109t-130.5 39h-60v40h60
q53 0 92.5 36.5t39.5 97.5q0 52 -31 86q-34 37 -97 37q-91 0 -144 -82z" />
    <glyph glyph-name="afii10026" unicode="&#x418;" horiz-adv-x="700" 
d="M566 0v556l-476 -573v684h44v-566l476 573v-674h-44z" />
    <glyph glyph-name="afii10027" unicode="&#x419;" horiz-adv-x="700" 
d="M566 0v556l-476 -573v684h44v-566l476 573v-674h-44zM210 803l35 19q29 -64 105 -64t105 64l35 -19q-21 -46 -60.5 -65.5t-79.5 -19.5t-79.5 19.5t-60.5 65.5z" />
    <glyph glyph-name="afii10028" unicode="&#x41a;" horiz-adv-x="540" 
d="M134 667v-314l315 314h58l-323 -319l342 -348h-60l-314 318l-18 -17v-301h-44v667h44z" />
    <glyph glyph-name="afii10029" unicode="&#x41b;" horiz-adv-x="620" 
d="M154 667h376v-667h-44v627h-288v-388q0 -50 -1.5 -77.5t-12.5 -65.5t-33 -62q-36 -40 -97 -40q-16 0 -40 6v40q20 -6 37 -6q39 0 65 26q18 18 26.5 51t10 57.5t1.5 70.5v428z" />
    <glyph glyph-name="afii10030" unicode="&#x41c;" horiz-adv-x="896" 
d="M127 0h-44l76 690l289 -617l289 617l76 -690h-44l-59 536l-262 -560l-262 560z" />
    <glyph glyph-name="afii10031" unicode="&#x41d;" horiz-adv-x="672" 
d="M134 667v-283h404v283h44v-667h-44v344h-404v-344h-44v667h44z" />
    <glyph glyph-name="afii10032" unicode="&#x41e;" horiz-adv-x="800" 
d="M400 676q146 0 246 -100t100 -244t-100 -243.5t-246 -99.5t-246 99.5t-100 243.5t100 244t246 100zM400 29q128 0 214 87.5t86 215.5q0 129 -86 216.5t-214 87.5t-214 -87.5t-86 -216.5q0 -128 86 -215.5t214 -87.5z" />
    <glyph glyph-name="afii10033" unicode="&#x41f;" horiz-adv-x="672" 
d="M90 667h492v-667h-44v627h-404v-627h-44v667z" />
    <glyph glyph-name="afii10034" unicode="&#x420;" horiz-adv-x="446" 
d="M220 317h-86v-317h-44v667h129q85 0 140 -45.5t55 -128.5q0 -82 -53 -129t-141 -47zM134 627v-270h88q66 0 106 36.5t40 98.5q0 63 -40.5 99t-112.5 36h-81z" />
    <glyph glyph-name="afii10035" unicode="&#x421;" horiz-adv-x="678" 
d="M624 589v-58q-43 50 -101.5 77.5t-123.5 27.5q-127 0 -213 -89t-86 -217q0 -71 27.5 -130t72 -95.5t96.5 -56t104 -19.5q56 0 116 24.5t108 76.5v-58q-94 -83 -222 -83q-148 0 -248 101t-100 242q0 144 101 244t245 100q132 0 224 -87z" />
    <glyph glyph-name="afii10036" unicode="&#x422;" horiz-adv-x="418" 
d="M404 627h-173v-627h-44v627h-173v40h390v-40z" />
    <glyph glyph-name="afii10037" unicode="&#x423;" horiz-adv-x="550" 
d="M14 667h50l231 -432l195 432h46l-305 -667h-46l85 186z" />
    <glyph glyph-name="afii10038" unicode="&#x424;" horiz-adv-x="820" 
d="M388 0v94h-28q-71 0 -126.5 17t-88.5 43t-54.5 62t-29 69.5t-7.5 68.5t7.5 68.5t29 69.5t54.5 62t88.5 43t126.5 17h28v80h44v-80h28q71 0 126.5 -17t88.5 -43t54.5 -62t29 -69.5t7.5 -68.5t-7.5 -68.5t-29 -69.5t-54.5 -62t-88.5 -43t-126.5 -17h-28v-94h-44zM388 134
v440h-30q-73 0 -126.5 -20.5t-80.5 -54.5t-39 -69.5t-12 -75.5t12 -75.5t39 -69.5t80.5 -54.5t126.5 -20.5h30zM432 574v-440h30q73 0 126.5 20.5t80.5 54.5t39 69.5t12 75.5t-12 75.5t-39 69.5t-80.5 54.5t-126.5 20.5h-30z" />
    <glyph glyph-name="afii10039" unicode="&#x425;" horiz-adv-x="470" 
d="M23 0l183 340l-175 327h48l151 -285l152 285h48l-174 -327l183 -340h-48l-161 300l-159 -300h-48z" />
    <glyph glyph-name="afii10040" unicode="&#x426;" horiz-adv-x="666" 
d="M90 0v667h44v-627h398v627h44v-627h76v-174h-42v134h-520z" />
    <glyph glyph-name="afii10041" unicode="&#x427;" horiz-adv-x="580" 
d="M446 0v300q-112 -7 -170 -7q-91 0 -136 22q-44 21 -57 55t-13 94v203h44v-203q0 -20 1 -31.5t5.5 -29.5t16.5 -32t31 -23q31 -15 122 -15q69 0 156 7v327h44v-667h-44z" />
    <glyph glyph-name="afii10042" unicode="&#x428;" horiz-adv-x="920" 
d="M90 0v667h44v-627h304v627h44v-627h304v627h44v-667h-740z" />
    <glyph glyph-name="afii10043" unicode="&#x429;" horiz-adv-x="920" 
d="M90 0v667h44v-627h304v627h44v-627h304v627h44v-627h76v-174h-42v134h-774z" />
    <glyph glyph-name="afii10044" unicode="&#x42a;" horiz-adv-x="610" 
d="M174 0v627h-160v40h204v-287h116q230 0 230 -183q0 -83 -53.5 -140t-162.5 -57h-174zM218 340v-300h112q101 0 146 44q42 40 42 113q0 87 -69 123q-39 20 -127 20h-104z" />
    <glyph glyph-name="afii10045" unicode="&#x42b;" horiz-adv-x="690" 
d="M90 0v667h44v-287h116q230 0 230 -183q0 -83 -53.5 -140t-162.5 -57h-174zM134 340v-300h112q101 0 146 44q42 40 42 113q0 87 -69 123q-39 20 -127 20h-104zM556 667h44v-667h-44v667z" />
    <glyph glyph-name="afii10046" unicode="&#x42c;" horiz-adv-x="526" 
d="M90 0v667h44v-287h116q230 0 230 -183q0 -83 -53.5 -140t-162.5 -57h-174zM134 340v-300h112q101 0 146 44q42 40 42 113q0 87 -69 123q-39 20 -127 20h-104z" />
    <glyph glyph-name="afii10047" unicode="&#x42d;" horiz-adv-x="678" 
d="M54 72v58q48 -52 108 -76.5t116 -24.5q114 0 205 81t95 214h-444v40h442q-11 118 -96.5 195t-200.5 77q-65 0 -123.5 -27.5t-101.5 -77.5v58q92 87 224 87q144 0 245 -100t101 -244q0 -141 -100 -242t-248 -101q-128 0 -222 83z" />
    <glyph glyph-name="afii10048" unicode="&#x42e;" horiz-adv-x="960" 
d="M134 372h102q15 132 110 218t224 86q142 0 239 -100t97 -244t-97 -243.5t-239 -99.5t-238 100t-98 243h-100v-332h-44v667h44v-295zM570 29q125 0 207.5 87.5t82.5 215.5t-83 216t-207 88t-207 -88t-83 -216t82.5 -215.5t207.5 -87.5z" />
    <glyph glyph-name="afii10049" unicode="&#x42f;" horiz-adv-x="470" 
d="M34 0l202 299q-38 1 -75 15q-13 5 -26.5 13.5t-34 27t-33.5 52t-13 76.5q0 59 26 98.5t61 59.5q44 26 125 26h114v-667h-44v299h-50l-200 -299h-52zM336 627h-70q-58 0 -91 -16q-35 -16 -55 -50t-20 -78q0 -70 44 -109q39 -35 116 -35h76v288z" />
    <glyph glyph-name="afii10065" unicode="&#x430;" horiz-adv-x="516" 
d="M404 337v71h40v-408h-40v73q-55 -84 -159 -84q-83 0 -141 59t-58 156q0 95 55 154t144 59q102 0 159 -80zM247 379q-65 0 -112 -46.5t-47 -125.5q0 -73 43 -126.5t117 -53.5q73 0 115.5 52.5t42.5 127.5q0 83 -49 127.5t-110 44.5z" />
    <glyph glyph-name="afii10066" unicode="&#x431;" horiz-adv-x="520" 
d="M87 311h2q23 53 72.5 79.5t106.5 26.5q93 0 149.5 -59t56.5 -154q0 -98 -61 -156.5t-154 -58.5q-88 0 -143 51q-70 66 -70 218q0 246 128 329q12 8 26 14.5t24.5 10.5t28.5 8.5t26 6l28.5 5.5t24.5 5q74 16 90 53h50q-11 -25 -27.5 -42.5t-40 -28t-39 -15t-41.5 -10.5
q-99 -20 -143 -55q-46 -37 -68.5 -100t-25.5 -128zM259 27q86 0 129.5 53.5t43.5 123.5t-44 122.5t-120 52.5q-82 0 -129 -53t-47 -122q0 -67 39 -118q45 -59 128 -59z" />
    <glyph glyph-name="afii10067" unicode="&#x432;" horiz-adv-x="414" 
d="M72 408h133q57 0 87 -24q36 -29 36 -78q0 -56 -45 -85q28 -4 50 -23q35 -31 35 -82q0 -57 -41 -88q-36 -28 -100 -28h-155v408zM112 230h93q37 0 58 17q25 20 25 54q0 33 -25 53q-20 16 -58 16h-93v-140zM112 38h115q46 0 70 18q29 22 29 61q0 36 -27 57q-24 18 -72 18
h-115v-154z" />
    <glyph glyph-name="afii10068" unicode="&#x433;" horiz-adv-x="300" 
d="M72 0v408h220v-38h-180v-370h-40z" />
    <glyph glyph-name="afii10069" unicode="&#x434;" horiz-adv-x="440" 
d="M100 408h268v-370h60v-148h-38v110h-344v-110h-38v148q50 3 75 54q17 35 17 110v206zM328 38v332h-188v-180q0 -108 -52 -152h240z" />
    <glyph glyph-name="afii10070" unicode="&#x435;" horiz-adv-x="483" 
d="M437 199h-349q0 -76 47.5 -124t114.5 -48q48 0 85 25.5t57 67.5l34 -20q-23 -44 -67 -77.5t-112 -33.5q-93 0 -147 60.5t-54 152.5q0 101 58.5 158t139.5 57q83 0 138 -61t55 -157zM91 237h304q-8 62 -49.5 102t-101.5 40q-61 0 -103 -40.5t-50 -101.5z" />
    <glyph glyph-name="afii10072" unicode="&#x436;" horiz-adv-x="560" 
d="M260 408h40v-194l184 194h52l-190 -196l206 -212h-54l-178 186l-20 -20v-166h-40v166l-20 20l-178 -186h-54l206 212l-190 196h52l184 -194v194z" />
    <glyph glyph-name="afii10073" unicode="&#x437;" horiz-adv-x="400" 
d="M105 322l-33 23q42 72 129 72q59 0 90 -29q33 -29 33 -79q0 -60 -47 -85q27 -6 48 -27q29 -29 29 -78q0 -63 -48 -100q-40 -30 -104 -30q-66 0 -107 31q-33 27 -49 59l36 23q15 -33 43 -52q31 -23 77 -23q51 0 78 23q32 26 32 70q0 39 -28 60q-24 18 -75 18h-42v38h31
q39 0 61 17q25 20 25 52t-21 53q-23 21 -63 21q-64 0 -95 -57z" />
    <glyph glyph-name="afii10074" unicode="&#x438;" horiz-adv-x="474" 
d="M72 408h40v-327l290 350v-431h-40v325l-290 -350v433z" />
    <glyph glyph-name="afii10075" unicode="&#x439;" horiz-adv-x="474" 
d="M72 408h40v-327l290 350v-431h-40v325l-290 -350v433zM118 573l34 17q8 -31 33.5 -52t62.5 -21t62.5 21t33.5 52l34 -17q-30 -94 -130 -94t-130 94z" />
    <glyph glyph-name="afii10076" unicode="&#x43a;" horiz-adv-x="396" 
d="M72 408h40v-194l206 194h54l-208 -194l224 -214h-58l-196 187l-22 -21v-166h-40v408z" />
    <glyph glyph-name="afii10077" unicode="&#x43b;" horiz-adv-x="430" 
d="M358 408v-408h-40v370h-188v-236q0 -67 -24 -99q-27 -37 -78 -37q-6 0 -20 2v38q10 -2 15 -2q34 0 53 27q14 22 14 71v274h268z" />
    <glyph glyph-name="afii10078" unicode="&#x43c;" horiz-adv-x="566" 
d="M24 0l96 433l163 -368l163 368l96 -433h-42l-66 319l-151 -344l-151 344l-66 -319h-42z" />
    <glyph glyph-name="afii10079" unicode="&#x43d;" horiz-adv-x="454" 
d="M72 0v408h40v-180h230v180h40v-408h-40v190h-230v-190h-40z" />
    <glyph glyph-name="afii10080" unicode="&#x43e;" horiz-adv-x="520" 
d="M260 417q91 0 152.5 -61.5t61.5 -152.5t-61.5 -152.5t-152.5 -61.5t-152.5 61.5t-61.5 152.5t61.5 152.5t152.5 61.5zM260 27q73 0 122.5 51t49.5 125t-49.5 125t-122.5 51t-122.5 -51t-49.5 -125t49.5 -125t122.5 -51z" />
    <glyph glyph-name="afii10081" unicode="&#x43f;" horiz-adv-x="448" 
d="M72 0v408h304v-408h-40v370h-224v-370h-40z" />
    <glyph glyph-name="afii10082" unicode="&#x440;" horiz-adv-x="516" 
d="M112 73v-303h-40v638h40v-71q59 80 160 80q90 0 144 -59.5t54 -150.5q0 -93 -54.5 -155.5t-145.5 -62.5q-46 0 -83 18.5t-51 34t-24 31.5zM269 27q75 0 117 51t42 129q0 81 -46 126.5t-112 45.5q-65 0 -112.5 -45t-47.5 -125q0 -79 42 -130.5t117 -51.5z" />
    <glyph glyph-name="afii10083" unicode="&#x441;" horiz-adv-x="442" 
d="M399 365v-53q-58 67 -141 67q-74 0 -122 -50.5t-48 -126.5q0 -82 51 -128.5t117 -46.5q81 0 148 73v-54q-64 -57 -149 -57q-92 0 -150.5 60.5t-58.5 151.5q0 93 58 154.5t154 61.5q79 0 141 -52z" />
    <glyph glyph-name="afii10084" unicode="&#x442;" horiz-adv-x="340" 
d="M150 0v370h-142v38h324v-38h-142v-370h-40z" />
    <glyph glyph-name="afii10085" unicode="&#x443;" horiz-adv-x="428" 
d="M106 -230l96 223l-194 415h46l171 -363l149 363h46l-268 -638h-46z" />
    <glyph glyph-name="afii10086" unicode="&#x444;" horiz-adv-x="600" 
d="M280 -230v223q-102 0 -165 53q-69 58 -69 158q0 101 69 159q62 51 165 51v253h40v-253q103 0 165 -51q69 -58 69 -159q0 -100 -69 -158q-63 -53 -165 -53v-223h-40zM280 31v345q-86 0 -137 -42q-55 -46 -55 -130q0 -85 55 -130q53 -43 137 -43zM320 376v-345q84 0 137 43
q55 45 55 130q0 84 -55 130q-51 42 -137 42z" />
    <glyph glyph-name="afii10087" unicode="&#x445;" horiz-adv-x="400" 
d="M8 0l165 214l-151 194h49l129 -168l127 168h49l-148 -194l164 -214h-49l-143 188l-143 -188h-49z" />
    <glyph glyph-name="afii10088" unicode="&#x446;" horiz-adv-x="444" 
d="M72 0v408h40v-370h220v370h40v-370h60v-148h-38v110h-322z" />
    <glyph glyph-name="afii10089" unicode="&#x447;" horiz-adv-x="412" 
d="M300 0v169q-66 -10 -107 -10q-65 0 -96 22q-37 27 -37 104v123h40v-123q0 -56 27 -75q19 -13 61 -13q47 0 112 10v201h40v-408h-40z" />
    <glyph glyph-name="afii10090" unicode="&#x448;" horiz-adv-x="644" 
d="M72 0v408h40v-370h190v370h40v-370h190v370h40v-408h-500z" />
    <glyph glyph-name="afii10091" unicode="&#x449;" horiz-adv-x="644" 
d="M72 0v408h40v-370h190v370h40v-370h190v370h40v-370h60v-148h-38v110h-522z" />
    <glyph glyph-name="afii10092" unicode="&#x44a;" horiz-adv-x="416" 
d="M8 408h140v-170h97q70 0 104 -38q29 -32 29 -81q0 -55 -36 -88q-33 -31 -98 -31h-136v370h-100v38zM148 38h96q42 0 64 19q28 23 28 62q0 41 -29 63q-24 18 -65 18h-94v-162z" />
    <glyph glyph-name="afii10093" unicode="&#x44b;" 
d="M72 408h40v-170h97q70 0 104 -38q29 -32 29 -81q0 -55 -36 -88q-33 -31 -98 -31h-136v408zM112 38h96q42 0 64 19q28 23 28 62q0 41 -29 63q-24 18 -65 18h-94v-162zM388 408h40v-408h-40v408z" />
    <glyph glyph-name="afii10094" unicode="&#x44c;" horiz-adv-x="380" 
d="M72 408h40v-170h97q70 0 104 -38q29 -32 29 -81q0 -55 -36 -88q-33 -31 -98 -31h-136v408zM112 38h96q42 0 64 19q28 23 28 62q0 41 -29 63q-24 18 -65 18h-94v-162z" />
    <glyph glyph-name="afii10095" unicode="&#x44d;" horiz-adv-x="412" 
d="M38 10v42q45 -25 110 -25q83 0 132 53q41 43 44 110h-239v38h239q-8 74 -67 118q-46 33 -112 33q-63 0 -103 -21v40q50 19 103 19q95 0 153 -51q68 -59 68 -161q0 -99 -61 -158q-60 -58 -157 -58q-67 0 -110 21z" />
    <glyph glyph-name="afii10096" unicode="&#x44e;" horiz-adv-x="640" 
d="M112 228h70q9 82 66.5 135.5t139.5 53.5q88 0 147 -61.5t59 -152.5t-59 -152.5t-147 -61.5q-82 0 -142 55.5t-64 145.5h-70v-190h-40v408h40v-180zM388 27q70 0 117 50.5t47 125.5t-47 125.5t-117 50.5t-117 -50.5t-47 -125.5t47 -125.5t117 -50.5z" />
    <glyph glyph-name="afii10097" unicode="&#x44f;" horiz-adv-x="386" 
d="M28 0l130 178q-47 2 -80 30q-34 30 -34 81q0 59 37 90q33 29 97 29h136v-408h-40v176h-70l-128 -176h-48zM274 214v156h-96q-42 0 -65 -18q-27 -23 -27 -62q0 -38 26 -58q24 -18 66 -18h96z" />
    <glyph glyph-name="afii10071" unicode="&#x451;" horiz-adv-x="483" 
d="M437 199h-349q0 -76 47.5 -124t114.5 -48q48 0 85 25.5t57 67.5l34 -20q-23 -44 -67 -77.5t-112 -33.5q-93 0 -147 60.5t-54 152.5q0 101 58.5 158t139.5 57q83 0 138 -61t55 -157zM91 237h304q-8 62 -49.5 102t-101.5 40q-61 0 -103 -40.5t-50 -101.5zM127 526
q0 15 10.5 25.5t25.5 10.5t25.5 -10.5t10.5 -25.5t-10.5 -25.5t-25.5 -10.5t-25.5 10.5t-10.5 25.5zM293 526q0 15 10.5 25.5t25.5 10.5t25.5 -10.5t10.5 -25.5t-10.5 -25.5t-25.5 -10.5t-25.5 10.5t-10.5 25.5z" />
    <glyph glyph-name="afii10099" unicode="&#x452;" horiz-adv-x="442" 
d="M72 0v522h-72v38h72v169h40v-169h180v-38h-180v-218q41 73 125 73q76 0 113 -57q20 -32 20 -103v-312q0 -75 -35 -109q-27 -26 -72 -26q-17 0 -35 6v37q13 -5 28 -5q32 0 50 17q24 23 24 87v305q0 57 -16 82q-24 40 -80 40q-68 0 -100 -57q-22 -39 -22 -110v-172h-40z
" />
    <glyph glyph-name="afii10100" unicode="&#x453;" horiz-adv-x="300" 
d="M72 0v408h220v-38h-180v-370h-40zM235 620l43 -25l-105 -128l-30 16z" />
    <glyph glyph-name="afii10101" unicode="&#x454;" horiz-adv-x="441" 
d="M398 365v-53q-58 67 -141 67q-68 0 -115.5 -43.5t-53.5 -107.5h238v-38h-238q2 -72 51.5 -117.5t115.5 -45.5q81 0 148 73v-54q-64 -57 -149 -57q-91 0 -149.5 60.5t-58.5 151.5q0 93 57.5 154.5t153.5 61.5q79 0 141 -52z" />
    <glyph glyph-name="afii10102" unicode="&#x455;" horiz-adv-x="334" 
d="M280 351l-34 -18q-20 46 -71 46q-32 0 -50.5 -20t-18.5 -45q0 -19 11 -32.5t23 -20t38 -16.5q4 -1 19.5 -7.5l20.5 -8.5t17.5 -7.5t18.5 -10t14.5 -11.5t14.5 -15q21 -26 21 -66q0 -65 -39.5 -97.5t-93.5 -32.5q-52 0 -90 29t-51 79l39 12q10 -39 38.5 -60.5t63.5 -21.5
q39 0 65 25.5t26 64.5q0 32 -20 49.5t-71 38.5q-70 29 -89 54q-18 24 -18 53q0 46 31 75.5t78 29.5q78 0 107 -66z" />
    <glyph glyph-name="afii10103" unicode="&#x456;" horiz-adv-x="184" 
d="M72 408h40v-408h-40v408zM92 507q-15 0 -25.5 10.5t-10.5 26.5t10.5 26.5t25.5 10.5t25.5 -10.5t10.5 -26.5t-10.5 -26.5t-25.5 -10.5z" />
    <glyph glyph-name="afii10104" unicode="&#x457;" horiz-adv-x="184" 
d="M71 408h40v-408h-40v408zM8 545q0 15 10.5 25.5t25.5 10.5t25.5 -10.5t10.5 -25.5t-10.5 -25.5t-25.5 -10.5t-25.5 10.5t-10.5 25.5zM104 545q0 15 10.5 25.5t25.5 10.5t25.5 -10.5t10.5 -25.5t-10.5 -25.5t-25.5 -10.5t-25.5 10.5t-10.5 25.5z" />
    <glyph glyph-name="afii10105" unicode="&#x458;" horiz-adv-x="184" 
d="M72 408h40v-638h-40v638zM92 507q-15 0 -25.5 10.5t-10.5 26.5t10.5 26.5t25.5 10.5t25.5 -10.5t10.5 -26.5t-10.5 -26.5t-25.5 -10.5z" />
    <glyph glyph-name="afii10106" unicode="&#x459;" horiz-adv-x="626" 
d="M358 408v-170h97q70 0 104 -38q29 -32 29 -81q0 -55 -36 -88q-33 -31 -98 -31h-136v370h-188v-236q0 -67 -24 -99q-27 -37 -78 -37q-6 0 -20 2v38q10 -2 15 -2q34 0 53 27q14 22 14 71v274h268zM358 38h96q42 0 64 19q28 23 28 62q0 41 -29 63q-24 18 -65 18h-94v-162z
" />
    <glyph glyph-name="afii10107" unicode="&#x45a;" horiz-adv-x="650" 
d="M72 0v408h40v-170h230v170h40v-170h97q70 0 104 -38q29 -32 29 -81q0 -55 -36 -88q-33 -31 -98 -31h-136v200h-230v-200h-40zM382 38h96q42 0 64 19q28 23 28 62q0 41 -29 63q-24 18 -65 18h-94v-162z" />
    <glyph glyph-name="afii10108" unicode="&#x45b;" horiz-adv-x="442" 
d="M72 0v522h-72v38h72v169h40v-169h180v-38h-180v-218q41 73 125 73q76 0 113 -57q20 -32 20 -103v-217h-40v217q0 57 -16 82q-24 40 -80 40q-68 0 -100 -57q-22 -39 -22 -110v-172h-40z" />
    <glyph glyph-name="afii10109" unicode="&#x45c;" horiz-adv-x="396" 
d="M72 408h40v-194l206 194h54l-208 -194l224 -214h-58l-196 187l-22 -21v-166h-40v408zM253 620l43 -25l-105 -128l-30 16z" />
    <glyph glyph-name="afii10110" unicode="&#x45e;" horiz-adv-x="428" 
d="M106 -230l96 223l-194 415h46l171 -363l149 363h46l-268 -638h-46zM90 573l34 17q8 -31 33.5 -52t62.5 -21t62.5 21t33.5 52l34 -17q-30 -94 -130 -94t-130 94z" />
    <glyph glyph-name="afii10193" unicode="&#x45f;" horiz-adv-x="444" 
d="M72 0v408h40v-370h220v370h40v-408h-130v-120h-40v120h-130z" />
    <glyph glyph-name="afii10146" unicode="&#x462;" horiz-adv-x="610" 
d="M174 0v527h-160v40h160v127h44v-127h200v-40h-200v-147h116q230 0 230 -183q0 -83 -53.5 -140t-162.5 -57h-174zM218 340v-300h112q101 0 146 44q42 40 42 113q0 87 -69 123q-39 20 -127 20h-104z" />
    <glyph glyph-name="afii10194" unicode="&#x463;" horiz-adv-x="416" 
d="M8 408h100v259h40v-259h120v-38h-120v-132h97q70 0 104 -38q29 -32 29 -81q0 -55 -36 -88q-33 -31 -98 -31h-136v370h-100v38zM148 38h96q42 0 64 19q28 23 28 62q0 41 -29 63q-24 18 -65 18h-94v-162z" />
    <glyph glyph-name="afii10147" unicode="&#x472;" horiz-adv-x="800" 
d="M400 676q146 0 246 -100t100 -244t-100 -243.5t-246 -99.5t-246 99.5t-100 243.5t100 244t246 100zM400 29q130 0 212.5 85.5t87.5 205.5h-600q5 -120 87.5 -205.5t212.5 -85.5zM101 360h598q-11 123 -97 199.5t-202 76.5t-202 -76.5t-97 -199.5z" />
    <glyph glyph-name="afii10195" unicode="&#x473;" horiz-adv-x="520" 
d="M260 417q91 0 152.5 -61.5t61.5 -152.5t-61.5 -152.5t-152.5 -61.5t-152.5 61.5t-61.5 152.5t61.5 152.5t152.5 61.5zM431 189h-342q4 -71 54 -116.5t117 -45.5t117 45.5t54 116.5zM89 227h342q-9 71 -59.5 111.5t-111.5 40.5t-111.5 -40.5t-59.5 -111.5z" />
    <glyph glyph-name="afii10148" unicode="&#x474;" horiz-adv-x="510" 
d="M14 667h48l196 -568l190 568h48l-238 -694z" />
    <glyph glyph-name="afii10196" unicode="&#x475;" horiz-adv-x="390" 
d="M8 408h44l144 -339l142 339h44l-186 -433z" />
    <glyph glyph-name="afii10050" unicode="&#x490;" horiz-adv-x="400" 
d="M90 0v667h254v133h42v-173h-252v-627h-44z" />
    <glyph glyph-name="afii10098" unicode="&#x491;" horiz-adv-x="300" 
d="M72 0v408h182v110h38v-148h-180v-370h-40z" />
    <glyph glyph-name="uni0492" unicode="&#x492;" horiz-adv-x="400" 
d="M90 0v345h-90v40h90v282h296v-40h-252v-242h136v-40h-136v-345h-44z" />
    <glyph glyph-name="uni0493" unicode="&#x493;" horiz-adv-x="300" 
d="M72 0v200h-72v38h72v170h220v-38h-180v-132h100v-38h-100v-200h-40z" />
    <glyph glyph-name="uni0494" unicode="&#x494;" horiz-adv-x="526" 
d="M386 627h-252v-262q69 23 137 23q115 0 167 -61q42 -49 42 -133q0 -110 -67 -163q-47 -37 -127 -37q-30 0 -68 6v40q28 -6 63 -6q70 0 107 33q46 41 46 125q0 65 -33 107q-41 49 -127 49q-71 0 -140 -23v-325h-44v667h296v-40z" />
    <glyph glyph-name="uni0495" unicode="&#x495;" horiz-adv-x="380" 
d="M72 0v408h220v-38h-180v-134h30q71 0 120 -35q72 -52 72 -166q0 -108 -70 -178q-52 -52 -129 -65v40q60 13 101 56q56 59 56 149q0 43 -16 79.5t-45 56.5q-37 25 -89 25h-30v-198h-40z" />
    <glyph glyph-name="uni0496" unicode="&#x496;" horiz-adv-x="796" 
d="M376 667h44v-314l282 314h58l-296 -323l281 -304h37v-174h-42v134h-16l-291 314l-13 -13v-301h-44v301l-13 13l-291 -314h-58l318 344l-296 323h58l282 -314v314z" />
    <glyph glyph-name="uni0497" unicode="&#x497;" horiz-adv-x="560" 
d="M260 408h40v-194l184 194h52l-190 -196l169 -174h37v-148h-38v110h-16l-178 186l-20 -20v-166h-40v166l-20 20l-178 -186h-54l206 212l-190 196h52l184 -194v194z" />
    <glyph glyph-name="uni0498" unicode="&#x498;" horiz-adv-x="554" 
d="M136 554l-32 27q29 47 74 71q44 24 104 24q78 0 124 -43q48 -44 48 -120q0 -50 -26 -91q-25 -39 -62 -55q50 -12 85 -47q49 -51 49 -127q0 -92 -57 -147q-54 -52 -144 -56v-140h-44v141q-72 2 -128 47q-45 36 -73 92l42 20q21 -43 58 -75q55 -46 128 -46q35 0 71.5 13
t59.5 36q41 41 41 113q0 68 -48 109q-46 39 -130 39h-60v40h50q67 0 107 41q35 35 35 93q0 52 -31 86q-34 37 -98 37q-54 0 -94 -29q-29 -21 -49 -53z" />
    <glyph glyph-name="uni0499" unicode="&#x499;" horiz-adv-x="400" 
d="M105 322l-33 23q42 72 129 72q59 0 90 -29q33 -29 33 -79q0 -60 -47 -85q27 -6 48 -27q29 -29 29 -79q0 -63 -48 -99q-38 -29 -86 -30v-109h-40v110q-46 3 -83 29q-31 20 -51 60l36 23q15 -33 43 -52q31 -23 77 -23q51 0 78 23q32 26 32 70q0 39 -28 60q-24 18 -75 18
h-42v38h31q39 0 61 17q25 20 25 52t-21 53q-23 21 -63 21q-64 0 -95 -57z" />
    <glyph glyph-name="uni049A" unicode="&#x49a;" horiz-adv-x="540" 
d="M90 667h44v-314l315 314h58l-323 -319l303 -308h39v-174h-42v134h-18l-314 318l-18 -17v-301h-44v667z" />
    <glyph glyph-name="uni049B" unicode="&#x49b;" horiz-adv-x="396" 
d="M72 408h40v-194l206 194h54l-208 -194l184 -176h40v-148h-38v110h-20l-196 187l-22 -21v-166h-40v408z" />
    <glyph glyph-name="uni049C" unicode="&#x49c;" horiz-adv-x="600" 
d="M90 667h44v-303h72v140h40v-140l269 303h52l-287 -319l306 -348h-54l-286 324v-160h-40v160h-72v-324h-44v667z" />
    <glyph glyph-name="uni049D" unicode="&#x49d;" horiz-adv-x="400" 
d="M72 408h40v-178h43v100h38v-100l149 178h46l-162 -194l166 -214h-50l-149 192v-120h-38v120h-43v-192h-40v408z" />
    <glyph glyph-name="uni04A0" unicode="&#x4a0;" horiz-adv-x="624" 
d="M174 0v627h-160v40h204v-314l315 314h58l-323 -319l342 -348h-60l-314 318l-18 -17v-301h-44z" />
    <glyph glyph-name="uni04A1" unicode="&#x4a1;" horiz-adv-x="432" 
d="M108 0v370h-100v38h140v-194l206 194h54l-208 -194l224 -214h-58l-196 187l-22 -21v-166h-40z" />
    <glyph glyph-name="uni04A2" unicode="&#x4a2;" horiz-adv-x="672" 
d="M90 0v667h44v-283h404v283h44v-627h76v-174h-42v134h-78v344h-404v-344h-44z" />
    <glyph glyph-name="uni04A3" unicode="&#x4a3;" horiz-adv-x="454" 
d="M72 0v408h40v-180h230v180h40v-370h60v-148h-38v110h-62v190h-230v-190h-40z" />
    <glyph glyph-name="uni04A4" unicode="&#x4a4;" horiz-adv-x="848" 
d="M90 0v667h44v-283h404v283h296v-40h-252v-627h-44v344h-404v-344h-44z" />
    <glyph glyph-name="uni04A5" unicode="&#x4a5;" horiz-adv-x="570" 
d="M72 0v408h40v-180h230v180h220v-38h-180v-370h-40v190h-230v-190h-40z" />
    <glyph glyph-name="uni04AA" unicode="&#x4aa;" horiz-adv-x="678" 
d="M624 589v-58q-45 53 -105.5 79t-119.5 26q-125 0 -213 -90q-86 -88 -86 -216q0 -125 84 -210q89 -91 218 -91q124 0 222 101v-58q-89 -77 -193 -82v-140h-44v141q-133 2 -232 99q-101 99 -101 242q0 146 102 246q98 98 244 98q132 0 224 -87z" />
    <glyph glyph-name="uni04AB" unicode="&#x4ab;" horiz-adv-x="442" 
d="M399 365v-53q-58 67 -139 67q-76 0 -124 -50q-48 -51 -48 -127t47 -125q48 -50 121 -50q84 0 148 73v-54q-54 -48 -123 -56v-110h-40v110q-81 3 -137 60q-58 60 -58 151q0 97 60 157q57 59 150 59q80 0 143 -52z" />
    <glyph glyph-name="uni04AE" unicode="&#x4ae;" horiz-adv-x="516" 
d="M233 0v285l-219 382h50l192 -337l196 337h50l-225 -382v-285h-44z" />
    <glyph glyph-name="uni04AF" unicode="&#x4af;" horiz-adv-x="390" 
d="M8 408h44l143 -339l143 339h44l-167 -387v-251h-40v251z" />
    <glyph glyph-name="uni04B0" unicode="&#x4b0;" horiz-adv-x="516" 
d="M233 0v245h-200v40h200l-219 382h50l192 -337l196 337h50l-225 -382h200v-40h-200v-245h-44z" />
    <glyph glyph-name="uni04B1" unicode="&#x4b1;" horiz-adv-x="390" 
d="M8 408h44l143 -339l143 339h44l-167 -387v-21h120v-38h-120v-192h-40v192h-120v38h120v21z" />
    <glyph glyph-name="uni04B2" unicode="&#x4b2;" horiz-adv-x="470" 
d="M23 0l183 340l-175 327h48l151 -285l152 285h48l-174 -327l161 -300h22v-174h-42v134h-6l-161 300l-159 -300h-48z" />
    <glyph glyph-name="uni04B3" unicode="&#x4b3;" horiz-adv-x="400" 
d="M8 0l165 214l-151 194h49l129 -168l127 168h49l-148 -194l135 -176h29v-148h-38v110h-11l-143 188l-143 -188h-49z" />
    <glyph glyph-name="uni04B6" unicode="&#x4b6;" horiz-adv-x="580" 
d="M446 0v300q-112 -7 -170 -7q-91 0 -136 22q-44 21 -57 55t-13 94v203h44v-203q0 -20 1 -31.5t5.5 -29.5t16.5 -32t31 -23q31 -15 122 -15q69 0 156 7v327h44v-627h76v-174h-42v134h-78z" />
    <glyph glyph-name="uni04B7" unicode="&#x4b7;" horiz-adv-x="412" 
d="M300 0v169q-66 -10 -107 -10q-65 0 -96 22q-37 27 -37 104v123h40v-123q0 -56 27 -75q19 -13 61 -13q47 0 112 10v201h40v-370h60v-148h-38v110h-62z" />
    <glyph glyph-name="uni04B8" unicode="&#x4b8;" horiz-adv-x="580" 
d="M446 0v300q-11 -1 -140 -7v-129h-40v129q-82 0 -126 22q-44 21 -57 55t-13 94v203h44v-203q0 -20 1 -31.5t5.5 -29.5t16.5 -32t31 -23q32 -15 98 -15v171h40v-171q50 0 140 7v327h44v-667h-44z" />
    <glyph glyph-name="uni04B9" unicode="&#x4b9;" horiz-adv-x="420" 
d="M308 0v169q-39 -8 -84 -10v-80h-38v80q-58 0 -89 22q-37 27 -37 104v123h40v-123q0 -57 27 -75q20 -13 59 -13v120h38v-120q45 2 84 10v201h40v-408h-40z" />
    <glyph glyph-name="uni04BA" unicode="&#x4ba;" horiz-adv-x="580" 
d="M134 667v-283h170q91 0 136 -22q44 -21 57 -55.5t13 -93.5v-213h-44v213q0 19 -1 31t-5.5 30t-16.5 32t-31 23q-31 15 -122 15h-156v-344h-44v667h44z" />
    <glyph glyph-name="uni04BB" unicode="&#x4bb;" horiz-adv-x="442" 
d="M72 0v729h40v-385q41 73 125 73q76 0 113 -57q20 -32 20 -103v-257h-40v257q0 57 -16 82q-24 40 -80 40q-68 0 -100 -57q-22 -39 -22 -110v-212h-40z" />
    <glyph glyph-name="uni04C0" unicode="&#x4c0;" horiz-adv-x="184" 
d="M72 667h40v-667h-40v667z" />
    <glyph glyph-name="uni04C1" unicode="&#x4c1;" horiz-adv-x="796" 
d="M376 667h44v-314l282 314h58l-296 -323l318 -344h-58l-291 314l-13 -13v-301h-44v301l-13 13l-291 -314h-58l318 344l-296 323h58l282 -314v314zM258 803l35 19q29 -64 105 -64t105 64l35 -19q-21 -46 -60.5 -65.5t-79.5 -19.5t-79.5 19.5t-60.5 65.5z" />
    <glyph glyph-name="uni04C2" unicode="&#x4c2;" horiz-adv-x="560" 
d="M260 408h40v-194l184 194h52l-190 -196l206 -212h-54l-178 186l-20 -20v-166h-40v166l-20 20l-178 -186h-54l206 212l-190 196h52l184 -194v194zM150 573l34 17q8 -31 33.5 -52t62.5 -21t62.5 21t33.5 52l34 -17q-30 -94 -130 -94t-130 94z" />
    <glyph glyph-name="uni04C3" unicode="&#x4c3;" horiz-adv-x="537" 
d="M90 667h44v-314l315 314h58l-296 -298q76 0 116 -7t76 -32q91 -62 91 -226q0 -151 -66 -213q-54 -51 -145 -51q-29 0 -60 6v40q28 -6 58 -6q74 0 116 42q51 52 51 178q0 130 -66 187q-50 43 -139 43q-47 0 -109 -11v-319h-44v667z" />
    <glyph glyph-name="uni04C4" unicode="&#x4c4;" horiz-adv-x="397" 
d="M72 408h40v-194l206 194h54l-208 -193q64 0 108 -26q80 -47 80 -161q0 -102 -70 -171q-55 -53 -129 -65v40q61 14 101 56q56 59 56 141q0 99 -69 135q-37 19 -94 19h-35v-183h-40v408z" />
    <glyph glyph-name="uni04C7" unicode="&#x4c7;" horiz-adv-x="672" 
d="M90 0v667h44v-283h404v283h44v-758q0 -80 -38 -115q-26 -24 -70 -24q-25 0 -46 7v41q16 -6 37 -6q32 0 50 18q23 23 23 91v423h-404v-344h-44z" />
    <glyph glyph-name="uni04C8" unicode="&#x4c8;" horiz-adv-x="454" 
d="M72 0v408h40v-180h230v180h40v-499q0 -79 -38 -115q-26 -24 -66 -24q-22 0 -38 6v37q20 -5 30 -5q30 0 47 17q25 24 25 92v273h-230v-190h-40z" />
    <glyph glyph-name="uni04D0" unicode="&#x4d0;" horiz-adv-x="586" 
d="M524 0l-89 219h-284l-89 -219h-48l281 687l277 -687h-48zM167 259h252l-125 316zM153 803l35 19q29 -64 105 -64t105 64l35 -19q-21 -46 -60.5 -65.5t-79.5 -19.5t-79.5 19.5t-60.5 65.5z" />
    <glyph glyph-name="uni04D1" unicode="&#x4d1;" horiz-adv-x="516" 
d="M404 337v71h40v-408h-40v73q-55 -84 -159 -84q-83 0 -141 59t-58 156q0 95 55 154t144 59q102 0 159 -80zM247 379q-65 0 -112 -46.5t-47 -125.5q0 -73 43 -126.5t117 -53.5q73 0 115.5 52.5t42.5 127.5q0 83 -49 127.5t-110 44.5zM128 573l34 17q8 -31 33.5 -52
t62.5 -21t62.5 21t33.5 52l34 -17q-30 -94 -130 -94t-130 94z" />
    <glyph glyph-name="uni04D2" unicode="&#x4d2;" horiz-adv-x="586" 
d="M524 0l-89 219h-284l-89 -219h-48l281 687l277 -687h-48zM167 259h252l-125 316zM162 780q0 16 11 27t27 11t27 -11t11 -27t-11 -27t-27 -11t-27 11t-11 27zM348 780q0 16 11 27t27 11t27 -11t11 -27t-11 -27t-27 -11t-27 11t-11 27z" />
    <glyph glyph-name="uni04D3" unicode="&#x4d3;" horiz-adv-x="516" 
d="M404 337v71h40v-408h-40v73q-55 -84 -159 -84q-83 0 -141 59t-58 156q0 95 55 154t144 59q102 0 159 -80zM247 379q-65 0 -112 -46.5t-47 -125.5q0 -73 43 -126.5t117 -53.5q73 0 115.5 52.5t42.5 127.5q0 83 -49 127.5t-110 44.5zM135 526q0 15 10.5 25.5t25.5 10.5
t25.5 -10.5t10.5 -25.5t-10.5 -25.5t-25.5 -10.5t-25.5 10.5t-10.5 25.5zM301 526q0 15 10.5 25.5t25.5 10.5t25.5 -10.5t10.5 -25.5t-10.5 -25.5t-25.5 -10.5t-25.5 10.5t-10.5 25.5z" />
    <glyph glyph-name="uni04D4" unicode="&#x4d4;" horiz-adv-x="852" 
d="M523 0l-89 219h-285l-87 -219h-48l269 667h289l17 -40h-275l99 -242h268l17 -40h-268l124 -305h273l18 -40h-322zM165 259h252l-127 314z" />
    <glyph glyph-name="uni04D5" unicode="&#x4d5;" horiz-adv-x="792" 
d="M747 198h-350q1 -76 46 -123.5t112 -47.5q94 0 147 92l34 -24q-68 -106 -182 -106q-116 0 -168 102q-17 -50 -61.5 -76t-107.5 -26q-82 0 -127 37.5t-45 89.5q0 49 42 89t137 40q83 0 131 -42q0 176 -142 176q-67 0 -139 -37v41q68 34 141 34q58 0 101 -29t62 -85
q26 53 72 83.5t103 30.5q79 0 135.5 -57t58.5 -162zM402 236h303q-9 62 -51.5 102.5t-101.5 40.5t-100.5 -41t-49.5 -102zM223 207q-66 0 -101 -26t-35 -65q0 -38 33.5 -63.5t96.5 -25.5q70 0 102.5 28.5t32.5 64.5q0 34 -31 60.5t-98 26.5z" />
    <glyph glyph-name="uni04D6" unicode="&#x4d6;" horiz-adv-x="464" 
d="M410 667v-40h-276v-242h270v-40h-270v-305h276v-40h-320v667h320zM110 803l35 19q29 -64 105 -64t105 64l35 -19q-21 -46 -60.5 -65.5t-79.5 -19.5t-79.5 19.5t-60.5 65.5z" />
    <glyph glyph-name="uni04D7" unicode="&#x4d7;" horiz-adv-x="483" 
d="M437 199h-349q0 -76 47.5 -124t114.5 -48q48 0 85 25.5t57 67.5l34 -20q-23 -44 -67 -77.5t-112 -33.5q-93 0 -147 60.5t-54 152.5q0 101 58.5 158t139.5 57q83 0 138 -61t55 -157zM91 237h304q-8 62 -49.5 102t-101.5 40q-61 0 -103 -40.5t-50 -101.5zM112 573l34 17
q8 -31 33.5 -52t62.5 -21t62.5 21t33.5 52l34 -17q-30 -94 -130 -94t-130 94z" />
    <glyph glyph-name="uni04D8" unicode="&#x4d8;" horiz-adv-x="773" 
d="M54 320h619v10q0 129 -86 217.5t-215 88.5q-109 0 -191 -70q-40 -33 -64 -74l-35 28q34 48 80 84q94 72 209 72q147 0 247.5 -98.5t100.5 -245.5q0 -149 -98.5 -246t-246.5 -97q-162 0 -251 112q-69 87 -69 219zM669 280h-569q4 -78 43 -138q30 -46 91.5 -79.5
t140.5 -33.5q116 0 197 72.5t97 178.5z" />
    <glyph glyph-name="afii10846" unicode="&#x4d9;" horiz-adv-x="483" 
d="M46 207h349q0 80 -47 126t-115 46q-48 0 -85 -25.5t-57 -67.5l-34 20q23 44 67 77.5t112 33.5q93 0 147 -60.5t54 -152.5q0 -101 -58.5 -158t-139.5 -57q-84 0 -138.5 59.5t-54.5 158.5zM392 169h-304q8 -62 49.5 -102t101.5 -40q61 0 103 40.5t50 101.5z" />
    <glyph glyph-name="uni04DA" unicode="&#x4da;" horiz-adv-x="773" 
d="M54 320h619v10q0 129 -86 217.5t-215 88.5q-109 0 -191 -70q-40 -33 -64 -74l-35 28q34 48 80 84q94 72 209 72q147 0 247.5 -98.5t100.5 -245.5q0 -149 -98.5 -246t-246.5 -97q-162 0 -251 112q-69 87 -69 219zM669 280h-569q4 -78 43 -138q30 -46 91.5 -79.5
t140.5 -33.5q116 0 197 72.5t97 178.5zM245 780q0 16 11 27t27 11t27 -11t11 -27t-11 -27t-27 -11t-27 11t-11 27zM431 780q0 16 11 27t27 11t27 -11t11 -27t-11 -27t-27 -11t-27 11t-11 27z" />
    <glyph glyph-name="uni04DB" unicode="&#x4db;" horiz-adv-x="483" 
d="M46 207h349q0 80 -47 126t-115 46q-48 0 -85 -25.5t-57 -67.5l-34 20q23 44 67 77.5t112 33.5q93 0 147 -60.5t54 -152.5q0 -101 -58.5 -158t-139.5 -57q-84 0 -138.5 59.5t-54.5 158.5zM392 169h-304q8 -62 49.5 -102t101.5 -40q61 0 103 40.5t50 101.5zM121 526
q0 15 10.5 25.5t25.5 10.5t25.5 -10.5t10.5 -25.5t-10.5 -25.5t-25.5 -10.5t-25.5 10.5t-10.5 25.5zM287 526q0 15 10.5 25.5t25.5 10.5t25.5 -10.5t10.5 -25.5t-10.5 -25.5t-25.5 -10.5t-25.5 10.5t-10.5 25.5z" />
    <glyph glyph-name="uni04DC" unicode="&#x4dc;" horiz-adv-x="796" 
d="M376 667h44v-314l282 314h58l-296 -323l318 -344h-58l-291 314l-13 -13v-301h-44v301l-13 13l-291 -314h-58l318 344l-296 323h58l282 -314v314zM267 780q0 16 11 27t27 11t27 -11t11 -27t-11 -27t-27 -11t-27 11t-11 27zM453 780q0 16 11 27t27 11t27 -11t11 -27
t-11 -27t-27 -11t-27 11t-11 27z" />
    <glyph glyph-name="uni04DD" unicode="&#x4dd;" horiz-adv-x="560" 
d="M260 408h40v-194l184 194h52l-190 -196l206 -212h-54l-178 186l-20 -20v-166h-40v166l-20 20l-178 -186h-54l206 212l-190 196h52l184 -194v194zM161 526q0 15 10.5 25.5t25.5 10.5t25.5 -10.5t10.5 -25.5t-10.5 -25.5t-25.5 -10.5t-25.5 10.5t-10.5 25.5zM327 526
q0 15 10.5 25.5t25.5 10.5t25.5 -10.5t10.5 -25.5t-10.5 -25.5t-25.5 -10.5t-25.5 10.5t-10.5 25.5z" />
    <glyph glyph-name="uni04DE" unicode="&#x4de;" horiz-adv-x="554" 
d="M136 554l-32 27q58 95 181 95q76 0 121 -43q48 -44 48 -120q0 -99 -88 -146q64 -16 99 -64t35 -112q0 -105 -76 -160q-58 -42 -145 -42q-83 0 -140 40.5t-85 100.5l42 20q25 -60 78.5 -90.5t107.5 -30.5q68 0 115 35q57 42 57 127q0 70 -47.5 109t-130.5 39h-60v40h60
q53 0 92.5 36.5t39.5 97.5q0 52 -31 86q-34 37 -97 37q-91 0 -144 -82zM154 780q0 16 11 27t27 11t27 -11t11 -27t-11 -27t-27 -11t-27 11t-11 27zM340 780q0 16 11 27t27 11t27 -11t11 -27t-11 -27t-27 -11t-27 11t-11 27z" />
    <glyph glyph-name="uni04DF" unicode="&#x4df;" horiz-adv-x="400" 
d="M105 322l-33 23q42 72 129 72q59 0 90 -29q33 -29 33 -79q0 -60 -47 -85q27 -6 48 -27q29 -29 29 -78q0 -63 -48 -100q-40 -30 -104 -30q-66 0 -107 31q-33 27 -49 59l36 23q15 -33 43 -52q31 -23 77 -23q51 0 78 23q32 26 32 70q0 39 -28 60q-24 18 -75 18h-42v38h31
q39 0 61 17q25 20 25 52t-21 53q-23 21 -63 21q-64 0 -95 -57zM81 526q0 15 10.5 25.5t25.5 10.5t25.5 -10.5t10.5 -25.5t-10.5 -25.5t-25.5 -10.5t-25.5 10.5t-10.5 25.5zM247 526q0 15 10.5 25.5t25.5 10.5t25.5 -10.5t10.5 -25.5t-10.5 -25.5t-25.5 -10.5t-25.5 10.5
t-10.5 25.5z" />
    <glyph glyph-name="uni04E2" unicode="&#x4e2;" horiz-adv-x="700" 
d="M566 0v556l-476 -573v684h44v-566l476 573v-674h-44zM215 750v44h270v-44h-270z" />
    <glyph glyph-name="uni04E3" unicode="&#x4e3;" horiz-adv-x="474" 
d="M72 408h40v-327l290 350v-431h-40v325l-290 -350v433zM102 493v39h270v-39h-270z" />
    <glyph glyph-name="uni04E4" unicode="&#x4e4;" horiz-adv-x="700" 
d="M566 0v556l-476 -573v684h44v-566l476 573v-674h-44zM219 780q0 16 11 27t27 11t27 -11t11 -27t-11 -27t-27 -11t-27 11t-11 27zM405 780q0 16 11 27t27 11t27 -11t11 -27t-11 -27t-27 -11t-27 11t-11 27z" />
    <glyph glyph-name="uni04E5" unicode="&#x4e5;" horiz-adv-x="474" 
d="M72 408h40v-327l290 350v-431h-40v325l-290 -350v433zM118 526q0 15 10.5 25.5t25.5 10.5t25.5 -10.5t10.5 -25.5t-10.5 -25.5t-25.5 -10.5t-25.5 10.5t-10.5 25.5zM284 526q0 15 10.5 25.5t25.5 10.5t25.5 -10.5t10.5 -25.5t-10.5 -25.5t-25.5 -10.5t-25.5 10.5
t-10.5 25.5z" />
    <glyph glyph-name="uni04E6" unicode="&#x4e6;" horiz-adv-x="800" 
d="M400 676q146 0 246 -100t100 -244t-100 -243.5t-246 -99.5t-246 99.5t-100 243.5t100 244t246 100zM400 29q128 0 214 87.5t86 215.5q0 129 -86 216.5t-214 87.5t-214 -87.5t-86 -216.5q0 -128 86 -215.5t214 -87.5zM269 780q0 16 11 27t27 11t27 -11t11 -27t-11 -27
t-27 -11t-27 11t-11 27zM455 780q0 16 11 27t27 11t27 -11t11 -27t-11 -27t-27 -11t-27 11t-11 27z" />
    <glyph glyph-name="uni04E7" unicode="&#x4e7;" horiz-adv-x="520" 
d="M260 417q91 0 152.5 -61.5t61.5 -152.5t-61.5 -152.5t-152.5 -61.5t-152.5 61.5t-61.5 152.5t61.5 152.5t152.5 61.5zM260 27q73 0 122.5 51t49.5 125t-49.5 125t-122.5 51t-122.5 -51t-49.5 -125t49.5 -125t122.5 -51zM141 526q0 15 10.5 25.5t25.5 10.5t25.5 -10.5
t10.5 -25.5t-10.5 -25.5t-25.5 -10.5t-25.5 10.5t-10.5 25.5zM307 526q0 15 10.5 25.5t25.5 10.5t25.5 -10.5t10.5 -25.5t-10.5 -25.5t-25.5 -10.5t-25.5 10.5t-10.5 25.5z" />
    <glyph glyph-name="uni04E8" unicode="&#x4e8;" horiz-adv-x="800" 
d="M400 676q146 0 246 -100t100 -244t-100 -243.5t-246 -99.5t-246 99.5t-100 243.5t100 244t246 100zM400 29q130 0 212.5 85.5t87.5 205.5h-600q5 -120 87.5 -205.5t212.5 -85.5zM101 360h598q-11 123 -97 199.5t-202 76.5t-202 -76.5t-97 -199.5z" />
    <glyph glyph-name="uni04E9" unicode="&#x4e9;" horiz-adv-x="520" 
d="M260 417q91 0 152.5 -61.5t61.5 -152.5t-61.5 -152.5t-152.5 -61.5t-152.5 61.5t-61.5 152.5t61.5 152.5t152.5 61.5zM431 189h-342q4 -71 54 -116.5t117 -45.5t117 45.5t54 116.5zM89 227h342q-9 71 -59.5 111.5t-111.5 40.5t-111.5 -40.5t-59.5 -111.5z" />
    <glyph glyph-name="uni04EA" unicode="&#x4ea;" horiz-adv-x="800" 
d="M400 676q146 0 246 -100t100 -244t-100 -243.5t-246 -99.5t-246 99.5t-100 243.5t100 244t246 100zM400 29q130 0 212.5 85.5t87.5 205.5h-600q5 -120 87.5 -205.5t212.5 -85.5zM101 360h598q-11 123 -97 199.5t-202 76.5t-202 -76.5t-97 -199.5zM269 780q0 16 11 27
t27 11t27 -11t11 -27t-11 -27t-27 -11t-27 11t-11 27zM455 780q0 16 11 27t27 11t27 -11t11 -27t-11 -27t-27 -11t-27 11t-11 27z" />
    <glyph glyph-name="uni04EB" unicode="&#x4eb;" horiz-adv-x="520" 
d="M260 417q91 0 152.5 -61.5t61.5 -152.5t-61.5 -152.5t-152.5 -61.5t-152.5 61.5t-61.5 152.5t61.5 152.5t152.5 61.5zM431 189h-342q4 -71 54 -116.5t117 -45.5t117 45.5t54 116.5zM89 227h342q-9 71 -59.5 111.5t-111.5 40.5t-111.5 -40.5t-59.5 -111.5zM141 526
q0 15 10.5 25.5t25.5 10.5t25.5 -10.5t10.5 -25.5t-10.5 -25.5t-25.5 -10.5t-25.5 10.5t-10.5 25.5zM307 526q0 15 10.5 25.5t25.5 10.5t25.5 -10.5t10.5 -25.5t-10.5 -25.5t-25.5 -10.5t-25.5 10.5t-10.5 25.5z" />
    <glyph glyph-name="uni04EE" unicode="&#x4ee;" horiz-adv-x="550" 
d="M14 667h50l231 -432l195 432h46l-305 -667h-46l85 186zM150 750v44h270v-44h-270z" />
    <glyph glyph-name="uni04EF" unicode="&#x4ef;" horiz-adv-x="428" 
d="M106 -230l96 223l-194 415h46l171 -363l149 363h46l-268 -638h-46zM79 493v39h270v-39h-270z" />
    <glyph glyph-name="uni04F0" unicode="&#x4f0;" horiz-adv-x="550" 
d="M14 667h50l231 -432l195 432h46l-305 -667h-46l85 186zM153 780q0 16 11 27t27 11t27 -11t11 -27t-11 -27t-27 -11t-27 11t-11 27zM339 780q0 16 11 27t27 11t27 -11t11 -27t-11 -27t-27 -11t-27 11t-11 27z" />
    <glyph glyph-name="uni04F1" unicode="&#x4f1;" horiz-adv-x="428" 
d="M106 -230l96 223l-194 415h46l171 -363l149 363h46l-268 -638h-46zM101 526q0 15 10.5 25.5t25.5 10.5t25.5 -10.5t10.5 -25.5t-10.5 -25.5t-25.5 -10.5t-25.5 10.5t-10.5 25.5zM267 526q0 15 10.5 25.5t25.5 10.5t25.5 -10.5t10.5 -25.5t-10.5 -25.5t-25.5 -10.5
t-25.5 10.5t-10.5 25.5z" />
    <glyph glyph-name="uni04F2" unicode="&#x4f2;" horiz-adv-x="550" 
d="M14 667h50l231 -432l195 432h46l-305 -667h-46l85 186zM265 854l52 -26l-100 -125l-36 15zM386 854l52 -26l-100 -125l-36 15z" />
    <glyph glyph-name="uni04F3" unicode="&#x4f3;" horiz-adv-x="428" 
d="M106 -230l96 223l-194 415h46l171 -363l149 363h46l-268 -638h-46zM213 620l42 -25l-99 -128l-27 16zM324 620l42 -25l-99 -128l-27 16z" />
    <glyph glyph-name="uni04F4" unicode="&#x4f4;" horiz-adv-x="580" 
d="M446 0v300q-112 -7 -170 -7q-91 0 -136 22q-44 21 -57 55t-13 94v203h44v-203q0 -20 1 -31.5t5.5 -29.5t16.5 -32t31 -23q31 -15 122 -15q69 0 156 7v327h44v-667h-44zM159 780q0 16 11 27t27 11t27 -11t11 -27t-11 -27t-27 -11t-27 11t-11 27zM345 780q0 16 11 27t27 11
t27 -11t11 -27t-11 -27t-27 -11t-27 11t-11 27z" />
    <glyph glyph-name="uni04F5" unicode="&#x4f5;" horiz-adv-x="412" 
d="M300 0v169q-66 -10 -107 -10q-65 0 -96 22q-37 27 -37 104v123h40v-123q0 -56 27 -75q19 -13 61 -13q47 0 112 10v201h40v-408h-40zM87 526q0 15 10.5 25.5t25.5 10.5t25.5 -10.5t10.5 -25.5t-10.5 -25.5t-25.5 -10.5t-25.5 10.5t-10.5 25.5zM253 526q0 15 10.5 25.5
t25.5 10.5t25.5 -10.5t10.5 -25.5t-10.5 -25.5t-25.5 -10.5t-25.5 10.5t-10.5 25.5z" />
    <glyph glyph-name="uni04F8" unicode="&#x4f8;" horiz-adv-x="690" 
d="M90 0v667h44v-287h116q230 0 230 -183q0 -83 -53.5 -140t-162.5 -57h-174zM134 340v-300h112q101 0 146 44q42 40 42 113q0 87 -69 123q-39 20 -127 20h-104zM556 667h44v-667h-44v667zM214 780q0 16 11 27t27 11t27 -11t11 -27t-11 -27t-27 -11t-27 11t-11 27zM400 780
q0 16 11 27t27 11t27 -11t11 -27t-11 -27t-27 -11t-27 11t-11 27z" />
    <glyph glyph-name="uni04F9" unicode="&#x4f9;" 
d="M72 408h40v-170h97q70 0 104 -38q29 -32 29 -81q0 -55 -36 -88q-33 -31 -98 -31h-136v408zM112 38h96q42 0 64 19q28 23 28 62q0 41 -29 63q-24 18 -65 18h-94v-162zM388 408h40v-408h-40v408zM131 526q0 15 10.5 25.5t25.5 10.5t25.5 -10.5t10.5 -25.5t-10.5 -25.5
t-25.5 -10.5t-25.5 10.5t-10.5 25.5zM297 526q0 15 10.5 25.5t25.5 10.5t25.5 -10.5t10.5 -25.5t-10.5 -25.5t-25.5 -10.5t-25.5 10.5t-10.5 25.5z" />
    <glyph glyph-name="uni1E9E" unicode="&#x1e9e;" horiz-adv-x="560" 
d="M90 0v500q0 81 58 133q48 43 126 43q66 0 113 -31q64 -42 62 -119l-143 -135q84 -11 137 -55q63 -51 63 -129q0 -83 -67 -143q-31 -28 -82 -44t-97 -20v40q93 5 148 52q52 45 52 110q0 36 -19 67t-49 50q-52 32 -132 38v40l142 137q-3 45 -38 76q-30 26 -91 26
q-60 0 -95 -31q-44 -39 -44 -109v-496h-44z" />
    <glyph glyph-name="uni2010" unicode="&#x2010;" horiz-adv-x="300" 
d="M50 184v46h200v-46h-200z" />
    <glyph glyph-name="uni2011" unicode="&#x2011;" horiz-adv-x="300" 
d="M50 184v46h200v-46h-200z" />
    <glyph glyph-name="figuredash" unicode="&#x2012;" horiz-adv-x="540" 
d="M70 319v38h400v-38h-400z" />
    <glyph glyph-name="endash" unicode="&#x2013;" horiz-adv-x="540" 
d="M70 188v38h400v-38h-400z" />
    <glyph glyph-name="emdash" unicode="&#x2014;" horiz-adv-x="740" 
d="M70 188v38h600v-38h-600z" />
    <glyph glyph-name="afii00208" unicode="&#x2015;" horiz-adv-x="740" 
d="M70 188v38h600v-38h-600z" />
    <glyph glyph-name="quoteleft" unicode="&#x2018;" horiz-adv-x="228" 
d="M164 667l-60 -202l-40 12l74 200z" />
    <glyph glyph-name="quoteright" unicode="&#x2019;" horiz-adv-x="228" 
d="M64 477l60 202l40 -12l-74 -200z" />
    <glyph glyph-name="quotesinglbase" unicode="&#x201a;" horiz-adv-x="254" 
d="M64 -137l60 202l40 -12l-74 -200z" />
    <glyph glyph-name="quotedblleft" unicode="&#x201c;" horiz-adv-x="344" 
d="M164 667l-60 -202l-40 12l74 200zM280 667l-60 -202l-40 12l74 200z" />
    <glyph glyph-name="quotedblright" unicode="&#x201d;" horiz-adv-x="344" 
d="M64 477l60 202l40 -12l-74 -200zM180 477l60 202l40 -12l-74 -200z" />
    <glyph glyph-name="quotedblbase" unicode="&#x201e;" horiz-adv-x="370" 
d="M64 -137l60 202l40 -12l-74 -200zM180 -137l60 202l40 -12l-74 -200z" />
    <glyph glyph-name="dagger" unicode="&#x2020;" horiz-adv-x="548" 
d="M252 489v240h44v-240h160v-40h-160v-609h-44v609h-160v40h160z" />
    <glyph glyph-name="daggerdbl" unicode="&#x2021;" horiz-adv-x="548" 
d="M296 -160h-44v264h-160v40h160v305h-160v40h160v240h44v-240h160v-40h-160v-305h160v-40h-160v-264z" />
    <glyph glyph-name="bullet" unicode="&#x2022;" horiz-adv-x="1000" 
d="M360 340q0 58 41 99t99 41t99 -41t41 -99t-41 -99t-99 -41t-99 41t-41 99z" />
    <glyph glyph-name="ellipsis" unicode="&#x2026;" horiz-adv-x="606" 
d="M64 30q0 16 10.5 26.5t26.5 10.5t26.5 -10.5t10.5 -26.5t-10.5 -26.5t-26.5 -10.5t-26.5 10.5t-10.5 26.5zM266 30q0 16 10.5 26.5t26.5 10.5t26.5 -10.5t10.5 -26.5t-10.5 -26.5t-26.5 -10.5t-26.5 10.5t-10.5 26.5zM468 30q0 16 10.5 26.5t26.5 10.5t26.5 -10.5
t10.5 -26.5t-10.5 -26.5t-26.5 -10.5t-26.5 10.5t-10.5 26.5z" />
    <glyph glyph-name="perthousand" unicode="&#x2030;" horiz-adv-x="930" 
d="M169 673q61 0 98 -37t37 -94t-37 -94t-98 -37t-98 37t-37 94t37 94t98 37zM169 447q45 0 70 29t25 66t-25 66t-70 29t-70 -29t-25 -66t25 -66t70 -29zM92 1l394 681l30 -16l-394 -681zM439 256q61 0 98 -37t37 -94t-37 -94t-98 -37t-98 37t-37 94t37 94t98 37zM439 30
q45 0 70 29t25 66t-25 66t-70 29t-70 -29t-25 -66t25 -66t70 -29zM761 256q61 0 98 -37t37 -94t-37 -94t-98 -37t-98 37t-37 94t37 94t98 37zM761 30q45 0 70 29t25 66t-25 66t-70 29t-70 -29t-25 -66t25 -66t70 -29z" />
    <glyph glyph-name="guilsinglleft" unicode="&#x2039;" horiz-adv-x="242" 
d="M188 333l-108 -126l108 -126l-26 -24l-130 150l130 150z" />
    <glyph glyph-name="guilsinglright" unicode="&#x203a;" horiz-adv-x="242" 
d="M54 81l108 126l-108 126l26 24l130 -150l-130 -150z" />
    <glyph glyph-name="fraction" unicode="&#x2044;" horiz-adv-x="124" 
d="M-150 1l394 681l30 -16l-394 -681z" />
    <glyph glyph-name="uni2080" unicode="&#x2080;" horiz-adv-x="330" 
d="M165 405q53 0 94 -48q51 -61 51 -157q0 -94 -51 -157q-40 -48 -94 -48t-94 48q-51 63 -51 157q0 96 51 157q41 48 94 48zM165 31q39 0 67 36q38 49 38 133q0 82 -38 132q-29 37 -67 37t-67 -37q-38 -50 -38 -132q0 -84 38 -133q28 -36 67 -36z" />
    <glyph glyph-name="uni2081" unicode="&#x2081;" horiz-adv-x="330" 
d="M152 0v364h-62l12 36h88v-400h-38z" />
    <glyph glyph-name="uni2082" unicode="&#x2082;" horiz-adv-x="330" 
d="M283 0h-246l146 169q32 38 41 53q21 33 21 70q0 34 -21.5 55.5t-58.5 21.5q-39 0 -62 -25q-21 -23 -21 -57h-36q0 50 32 84t88 34q52 0 85.5 -32t33.5 -81q0 -42 -26 -83q-2 -2 -9 -12l-13 -18.5t-10 -12.5l-110 -130h166v-36z" />
    <glyph glyph-name="uni2083" unicode="&#x2083;" horiz-adv-x="330" 
d="M48 98h36q2 -22 12 -37q22 -30 62 -30q33 0 55.5 24t22.5 60q0 46 -40 65q-21 10 -56 10v36q34 0 58 17q33 24 33 61q0 28 -17 46.5t-48 18.5t-49 -19q-18 -18 -18 -45h-36q2 43 29 72q25 28 74 28q48 0 76.5 -29t28.5 -71q0 -71 -63 -96q32 -10 50 -36t18 -61
q0 -51 -34 -84t-84 -33q-63 0 -96 52q-14 23 -14 51z" />
    <glyph glyph-name="uni2084" unicode="&#x2084;" horiz-adv-x="330" 
d="M250 413v-301h56v-36h-56v-76h-38v76h-204zM78 112h134v190z" />
    <glyph glyph-name="uni2085" unicode="&#x2085;" horiz-adv-x="330" 
d="M282 400v-36h-134l-30 -96q18 4 26 4q54 0 95 -35.5t41 -102.5q0 -64 -41 -101.5t-101 -37.5q-83 0 -120 66l38 10q26 -40 82 -40q45 0 73.5 28.5t28.5 74.5t-27.5 74t-72.5 28q-41 0 -75 -18l58 182h159z" />
    <glyph glyph-name="uni2086" unicode="&#x2086;" horiz-adv-x="330" 
d="M181 405l28 -21l-83 -119q20 10 46 10q56 0 95.5 -39.5t39.5 -100.5t-40 -100.5t-103 -39.5q-68 0 -104.5 42.5t-36.5 96.5q0 49 32 93zM165 31q43 0 72.5 29t29.5 74q0 46 -29 75.5t-73 29.5t-73 -29.5t-29 -75.5q0 -45 28.5 -74t73.5 -29z" />
    <glyph glyph-name="uni2087" unicode="&#x2087;" horiz-adv-x="329" 
d="M13 19l234 345h-218v36h290l-272 -404z" />
    <glyph glyph-name="uni2088" unicode="&#x2088;" horiz-adv-x="330" 
d="M115 208q-56 29 -56 92q0 45 30 75t76 30t76 -30t30 -75q0 -63 -56 -92q68 -24 68 -102q0 -50 -34 -80.5t-84 -30.5t-84 30.5t-34 80.5q0 78 68 102zM165 226q30 0 49 23t19 51q0 26 -18.5 47.5t-49.5 21.5t-49.5 -21.5t-18.5 -47.5q0 -28 19 -51t49 -23zM165 31
q36 0 57 22t21 56q0 36 -21.5 58.5t-56.5 22.5t-56.5 -22.5t-21.5 -58.5q0 -34 21 -56t57 -22z" />
    <glyph glyph-name="uni2089" unicode="&#x2089;" horiz-adv-x="330" 
d="M149 -5l-28 21l83 119q-20 -10 -46 -10q-56 0 -95.5 39.5t-39.5 100.5t40 100.5t103 39.5q68 0 104.5 -42.5t36.5 -96.5q0 -49 -32 -93zM165 369q-43 0 -72.5 -29t-29.5 -74q0 -46 29 -75.5t73 -29.5t73 29.5t29 75.5q0 45 -28.5 74t-73.5 29z" />
    <glyph glyph-name="Euro" unicode="&#x20ac;" horiz-adv-x="548" 
d="M504 629l-20 -37q-64 44 -145 44q-49 0 -89.5 -19t-67.5 -50.5t-44.5 -65t-26.5 -70.5h325l-16 -40h-316q-4 -27 -4 -60q0 -15 2 -43h278l-16 -40h-256q3 -19 8.5 -38.5t16 -46t27.5 -49t39.5 -42.5t55.5 -31.5t73 -11.5q103 0 176 71v-58q-75 -53 -175 -53
q-58 0 -104.5 19t-74.5 47t-48 65.5t-28 67.5t-12 60h-68l16 40h46q-2 28 -2 43q0 33 4 60h-64l16 40h55q23 109 98.5 177t180.5 68q89 0 160 -47z" />
    <glyph glyph-name="uni20B4" unicode="&#x20b4;" horiz-adv-x="548" 
d="M140 554l-32 27q33 41 75 66q51 29 112 29q70 0 108 -38t38 -92q0 -66 -49 -115h90v-40h-127l-117 -103h244v-40h-281q-41 -47 -41 -109q0 -52 31 -81q29 -29 84 -29q56 0 103 42q38 34 54 79l38 -18q-21 -47 -61 -86q-60 -57 -138 -57q-69 0 -109 35q-48 41 -48 117
q0 57 37 107h-85v40h114l117 103h-231v40h267q62 50 62 112q0 38 -22 63q-26 30 -78 30q-51 0 -93 -26q-33 -20 -62 -56z" />
    <glyph glyph-name="uni20B6" unicode="&#x20b6;" horiz-adv-x="548" 
d="M142 357v310h129q97 0 149 -54q46 -48 46 -120q0 -76 -47 -123q-51 -53 -147 -53h-86v-90h167v-40h-167v-187h-44v187h-75v40h75v90h-75v40h75zM186 627v-270h88q68 0 109 39q37 36 37 96q0 62 -39 98q-40 37 -114 37h-81z" />
    <glyph glyph-name="uni20B6" unicode="&#x20cf;" horiz-adv-x="548" 
d="M142 357v310h129q97 0 149 -54q46 -48 46 -120q0 -76 -47 -123q-51 -53 -147 -53h-86v-90h167v-40h-167v-187h-44v187h-75v40h75v90h-75v40h75zM186 627v-270h88q68 0 109 39q37 36 37 96q0 62 -39 98q-40 37 -114 37h-81z" />
    <glyph glyph-name="uni20B6" unicode="&#x20ce;" horiz-adv-x="548" 
d="M142 357v310h129q97 0 149 -54q46 -48 46 -120q0 -76 -47 -123q-51 -53 -147 -53h-86v-90h167v-40h-167v-187h-44v187h-75v40h75v90h-75v40h75zM186 627v-270h88q68 0 109 39q37 36 37 96q0 62 -39 98q-40 37 -114 37h-81z" />
    <glyph glyph-name="uni20B6" unicode="&#x20cd;" horiz-adv-x="548" 
d="M142 357v310h129q97 0 149 -54q46 -48 46 -120q0 -76 -47 -123q-51 -53 -147 -53h-86v-90h167v-40h-167v-187h-44v187h-75v40h75v90h-75v40h75zM186 627v-270h88q68 0 109 39q37 36 37 96q0 62 -39 98q-40 37 -114 37h-81z" />
    <glyph glyph-name="uni20B6" unicode="&#x20cc;" horiz-adv-x="548" 
d="M142 357v310h129q97 0 149 -54q46 -48 46 -120q0 -76 -47 -123q-51 -53 -147 -53h-86v-90h167v-40h-167v-187h-44v187h-75v40h75v90h-75v40h75zM186 627v-270h88q68 0 109 39q37 36 37 96q0 62 -39 98q-40 37 -114 37h-81z" />
    <glyph glyph-name="uni20B6" unicode="&#x20cb;" horiz-adv-x="548" 
d="M142 357v310h129q97 0 149 -54q46 -48 46 -120q0 -76 -47 -123q-51 -53 -147 -53h-86v-90h167v-40h-167v-187h-44v187h-75v40h75v90h-75v40h75zM186 627v-270h88q68 0 109 39q37 36 37 96q0 62 -39 98q-40 37 -114 37h-81z" />
    <glyph glyph-name="uni20B6" unicode="&#x20ca;" horiz-adv-x="548" 
d="M142 357v310h129q97 0 149 -54q46 -48 46 -120q0 -76 -47 -123q-51 -53 -147 -53h-86v-90h167v-40h-167v-187h-44v187h-75v40h75v90h-75v40h75zM186 627v-270h88q68 0 109 39q37 36 37 96q0 62 -39 98q-40 37 -114 37h-81z" />
    <glyph glyph-name="uni20B6" unicode="&#x20c9;" horiz-adv-x="548" 
d="M142 357v310h129q97 0 149 -54q46 -48 46 -120q0 -76 -47 -123q-51 -53 -147 -53h-86v-90h167v-40h-167v-187h-44v187h-75v40h75v90h-75v40h75zM186 627v-270h88q68 0 109 39q37 36 37 96q0 62 -39 98q-40 37 -114 37h-81z" />
    <glyph glyph-name="uni20B6" unicode="&#x20c8;" horiz-adv-x="548" 
d="M142 357v310h129q97 0 149 -54q46 -48 46 -120q0 -76 -47 -123q-51 -53 -147 -53h-86v-90h167v-40h-167v-187h-44v187h-75v40h75v90h-75v40h75zM186 627v-270h88q68 0 109 39q37 36 37 96q0 62 -39 98q-40 37 -114 37h-81z" />
    <glyph glyph-name="uni20B6" unicode="&#x20c7;" horiz-adv-x="548" 
d="M142 357v310h129q97 0 149 -54q46 -48 46 -120q0 -76 -47 -123q-51 -53 -147 -53h-86v-90h167v-40h-167v-187h-44v187h-75v40h75v90h-75v40h75zM186 627v-270h88q68 0 109 39q37 36 37 96q0 62 -39 98q-40 37 -114 37h-81z" />
    <glyph glyph-name="uni20B6" unicode="&#x20c6;" horiz-adv-x="548" 
d="M142 357v310h129q97 0 149 -54q46 -48 46 -120q0 -76 -47 -123q-51 -53 -147 -53h-86v-90h167v-40h-167v-187h-44v187h-75v40h75v90h-75v40h75zM186 627v-270h88q68 0 109 39q37 36 37 96q0 62 -39 98q-40 37 -114 37h-81z" />
    <glyph glyph-name="uni20B6" unicode="&#x20c5;" horiz-adv-x="548" 
d="M142 357v310h129q97 0 149 -54q46 -48 46 -120q0 -76 -47 -123q-51 -53 -147 -53h-86v-90h167v-40h-167v-187h-44v187h-75v40h75v90h-75v40h75zM186 627v-270h88q68 0 109 39q37 36 37 96q0 62 -39 98q-40 37 -114 37h-81z" />
    <glyph glyph-name="uni20B6" unicode="&#x20c4;" horiz-adv-x="548" 
d="M142 357v310h129q97 0 149 -54q46 -48 46 -120q0 -76 -47 -123q-51 -53 -147 -53h-86v-90h167v-40h-167v-187h-44v187h-75v40h75v90h-75v40h75zM186 627v-270h88q68 0 109 39q37 36 37 96q0 62 -39 98q-40 37 -114 37h-81z" />
    <glyph glyph-name="uni20B6" unicode="&#x20c3;" horiz-adv-x="548" 
d="M142 357v310h129q97 0 149 -54q46 -48 46 -120q0 -76 -47 -123q-51 -53 -147 -53h-86v-90h167v-40h-167v-187h-44v187h-75v40h75v90h-75v40h75zM186 627v-270h88q68 0 109 39q37 36 37 96q0 62 -39 98q-40 37 -114 37h-81z" />
    <glyph glyph-name="uni20B6" unicode="&#x20c2;" horiz-adv-x="548" 
d="M142 357v310h129q97 0 149 -54q46 -48 46 -120q0 -76 -47 -123q-51 -53 -147 -53h-86v-90h167v-40h-167v-187h-44v187h-75v40h75v90h-75v40h75zM186 627v-270h88q68 0 109 39q37 36 37 96q0 62 -39 98q-40 37 -114 37h-81z" />
    <glyph glyph-name="uni20B6" unicode="&#x20c1;" horiz-adv-x="548" 
d="M142 357v310h129q97 0 149 -54q46 -48 46 -120q0 -76 -47 -123q-51 -53 -147 -53h-86v-90h167v-40h-167v-187h-44v187h-75v40h75v90h-75v40h75zM186 627v-270h88q68 0 109 39q37 36 37 96q0 62 -39 98q-40 37 -114 37h-81z" />
    <glyph glyph-name="uni20B6" unicode="&#x20c0;" horiz-adv-x="548" 
d="M142 357v310h129q97 0 149 -54q46 -48 46 -120q0 -76 -47 -123q-51 -53 -147 -53h-86v-90h167v-40h-167v-187h-44v187h-75v40h75v90h-75v40h75zM186 627v-270h88q68 0 109 39q37 36 37 96q0 62 -39 98q-40 37 -114 37h-81z" />
    <glyph glyph-name="uni20B6" unicode="&#x20bf;" horiz-adv-x="548" 
d="M142 357v310h129q97 0 149 -54q46 -48 46 -120q0 -76 -47 -123q-51 -53 -147 -53h-86v-90h167v-40h-167v-187h-44v187h-75v40h75v90h-75v40h75zM186 627v-270h88q68 0 109 39q37 36 37 96q0 62 -39 98q-40 37 -114 37h-81z" />
    <glyph glyph-name="uni20B6" unicode="&#x20be;" horiz-adv-x="548" 
d="M142 357v310h129q97 0 149 -54q46 -48 46 -120q0 -76 -47 -123q-51 -53 -147 -53h-86v-90h167v-40h-167v-187h-44v187h-75v40h75v90h-75v40h75zM186 627v-270h88q68 0 109 39q37 36 37 96q0 62 -39 98q-40 37 -114 37h-81z" />
    <glyph glyph-name="uni20B6" unicode="&#x20bd;" horiz-adv-x="548" 
d="M142 357v310h129q97 0 149 -54q46 -48 46 -120q0 -76 -47 -123q-51 -53 -147 -53h-86v-90h167v-40h-167v-187h-44v187h-75v40h75v90h-75v40h75zM186 627v-270h88q68 0 109 39q37 36 37 96q0 62 -39 98q-40 37 -114 37h-81z" />
    <glyph glyph-name="uni20B6" unicode="&#x20bc;" horiz-adv-x="548" 
d="M142 357v310h129q97 0 149 -54q46 -48 46 -120q0 -76 -47 -123q-51 -53 -147 -53h-86v-90h167v-40h-167v-187h-44v187h-75v40h75v90h-75v40h75zM186 627v-270h88q68 0 109 39q37 36 37 96q0 62 -39 98q-40 37 -114 37h-81z" />
    <glyph glyph-name="uni20B6" unicode="&#x20bb;" horiz-adv-x="548" 
d="M142 357v310h129q97 0 149 -54q46 -48 46 -120q0 -76 -47 -123q-51 -53 -147 -53h-86v-90h167v-40h-167v-187h-44v187h-75v40h75v90h-75v40h75zM186 627v-270h88q68 0 109 39q37 36 37 96q0 62 -39 98q-40 37 -114 37h-81z" />
    <glyph glyph-name="uni20B6" unicode="&#x20ba;" horiz-adv-x="548" 
d="M142 357v310h129q97 0 149 -54q46 -48 46 -120q0 -76 -47 -123q-51 -53 -147 -53h-86v-90h167v-40h-167v-187h-44v187h-75v40h75v90h-75v40h75zM186 627v-270h88q68 0 109 39q37 36 37 96q0 62 -39 98q-40 37 -114 37h-81z" />
    <glyph glyph-name="uni20B6" unicode="&#x20b9;" horiz-adv-x="548" 
d="M142 357v310h129q97 0 149 -54q46 -48 46 -120q0 -76 -47 -123q-51 -53 -147 -53h-86v-90h167v-40h-167v-187h-44v187h-75v40h75v90h-75v40h75zM186 627v-270h88q68 0 109 39q37 36 37 96q0 62 -39 98q-40 37 -114 37h-81z" />
    <glyph glyph-name="uni20B6" unicode="&#x20b7;" horiz-adv-x="548" 
d="M142 357v310h129q97 0 149 -54q46 -48 46 -120q0 -76 -47 -123q-51 -53 -147 -53h-86v-90h167v-40h-167v-187h-44v187h-75v40h75v90h-75v40h75zM186 627v-270h88q68 0 109 39q37 36 37 96q0 62 -39 98q-40 37 -114 37h-81z" />
    <glyph glyph-name="uni20B8" unicode="&#x20b8;" horiz-adv-x="548" 
d="M469 537h-173v-537h-44v537h-173v40h390v-40zM469 627h-390v40h390v-40z" />
    <glyph glyph-name="afii61352" unicode="&#x2116;" horiz-adv-x="940" 
d="M134 0h-44v674l448 -564v557h44v-684l-448 564v-547zM773 667q61 0 98 -37t37 -94t-37 -94t-98 -37t-98 37t-37 94t37 94t98 37zM773 441q45 0 70 29t25 66t-25 66t-70 29t-70 -29t-25 -66t25 -66t70 -29zM658 279v46h230v-46h-230z" />
    <glyph glyph-name="uni2117" unicode="&#x2117;" horiz-adv-x="740" 
d="M297 505h71q54 0 82 -26q27 -25 27 -71t-27 -73q-29 -29 -92 -29h-27v-171h-34v370zM331 474v-137h32q44 0 62 19q17 17 17 50q0 34 -17 51t-56 17h-38zM713 334q0 -65 -27 -132t-77 -116q-98 -96 -239 -96t-239 96q-50 49 -77 116t-27 132t27 131.5t77 115.5
q98 96 239 96t239 -96q50 -49 77 -115.5t27 -131.5zM370 647q-122 0 -210 -84q-45 -43 -72 -104.5t-27 -124.5q0 -64 27 -125.5t72 -104.5q88 -84 210 -84t210 84q45 43 72 104.5t27 125.5q0 63 -27 124.5t-72 104.5q-88 84 -210 84z" />
    <glyph glyph-name="trademark" unicode="&#x2122;" horiz-adv-x="720" 
d="M226 631h-93v-344h-40v344h-93v36h226v-36zM303 287h-38l45 410l163 -348l164 348l45 -410h-38l-31 277l-140 -299l-140 299z" />
    <glyph glyph-name="partialdiff" unicode="&#x2202;" horiz-adv-x="516" 
d="M105 636l5 37q65 -7 124 -33q119 -53 183 -178q53 -103 53 -229q0 -89 -37 -149q-29 -47 -76.5 -71t-97.5 -24q-93 0 -153 65.5t-60 157.5q0 94 61 159.5t155 65.5t147 -78h2q-16 66 -61 132q-54 77 -138 115q-50 23 -107 30zM428 218q0 78 -45.5 129.5t-120.5 51.5
t-124.5 -53.5t-49.5 -135.5q0 -85 52 -134t119 -49q68 0 118.5 51.5t50.5 139.5z" />
    <glyph glyph-name="product" unicode="&#x220f;" horiz-adv-x="678" 
d="M34 710v40h610v-40h-77v-920h77v-40h-202v40h81v920h-369v-920h80v-40h-200v40h76v920h-76z" />
    <glyph glyph-name="summation" unicode="&#x2211;" horiz-adv-x="666" 
d="M32 750h554v-215h-40v175h-465l253 -439l-256 -481h476v173h40v-213h-562v46l252 476l-252 432v46z" />
    <glyph glyph-name="minus" unicode="&#x2212;" 
d="M33 310v38h434v-38h-434z" />
    <glyph glyph-name="uni2215" unicode="&#x2215;" horiz-adv-x="468" 
d="M-34 -158l504 901l32 -16l-504 -901z" />
    <glyph glyph-name="uni2219" unicode="&#x2219;" horiz-adv-x="200" 
d="M52 340q0 20 14 34t34 14t34 -14t14 -34t-14 -34t-34 -14t-34 14t-14 34z" />
    <glyph glyph-name="radical" unicode="&#x221a;" horiz-adv-x="668" 
d="M427 827h241v-38h-208l-244 -789h-43l-96 315h-77v38h109l84 -286h3z" />
    <glyph glyph-name="infinity" unicode="&#x221e;" horiz-adv-x="667" 
d="M334 312q-27 -50 -72.5 -85t-97.5 -35q-63 0 -103.5 42t-40.5 108q0 64 41 105t104 41q50 0 95 -34t73 -85q27 49 71 84t100 35q64 0 103.5 -41.5t39.5 -106.5q0 -66 -39.5 -107t-103.5 -41q-56 0 -100 35.5t-70 84.5zM354 341q24 -49 64.5 -81t83.5 -32q47 0 76 32.5
t29 79.5q0 49 -29.5 80.5t-76.5 31.5q-79 0 -147 -111zM313 340q-23 42 -61.5 77t-86.5 35q-46 0 -75.5 -31t-29.5 -80q0 -50 29.5 -81.5t76.5 -31.5q77 0 147 112z" />
    <glyph glyph-name="integral" unicode="&#x222b;" 
d="M378 739l-12 -36q-19 11 -42 11q-25 0 -38 -13q-16 -16 -16 -68v-766q0 -72 -27 -96q-23 -21 -67 -21q-26 0 -54 11l12 36q19 -11 42 -11q25 0 38 13q16 16 16 68v766q0 72 27 96q23 21 67 21q26 0 54 -11z" />
    <glyph glyph-name="approxequal" unicode="&#x2248;" 
d="M39 342l-27 16q18 38 47 67q37 35 85 35q37 0 113 -40q72 -37 103 -37q38 0 65 27q19 19 36 51l27 -16q-18 -36 -39 -58q-40 -42 -95 -42q-44 0 -138 52q-46 25 -75 25q-37 0 -64 -26q-22 -21 -38 -54zM39 195l-27 16q18 38 47 67q37 35 85 35q37 0 113 -40
q72 -37 103 -37q38 0 65 27q19 19 36 51l27 -16q-18 -36 -39 -58q-40 -42 -95 -42q-44 0 -138 52q-46 25 -75 25q-37 0 -64 -26q-22 -21 -38 -54z" />
    <glyph glyph-name="notequal" unicode="&#x2260;" 
d="M33 381v38h243l55 117h36l-55 -117h155v-38h-173l-49 -104h222v-38h-240l-58 -123h-36l58 123h-158v38h176l49 104h-225z" />
    <glyph glyph-name="lessequal" unicode="&#x2264;" 
d="M33 378l434 192v-41l-390 -170l390 -170v-41l-434 192v38zM33 118h434v-38h-434v38z" />
    <glyph glyph-name="greaterequal" unicode="&#x2265;" 
d="M467 340l-434 -192v41l390 170l-390 170v41l434 -192v-38zM33 118h434v-38h-434v38z" />
    <glyph glyph-name="dotmath" unicode="&#x22c5;" horiz-adv-x="200" 
d="M52 340q0 20 14 34t34 14t34 -14t14 -34t-14 -34t-34 -14t-34 14t-14 34z" />
    <glyph glyph-name="lozenge" unicode="&#x25ca;" horiz-adv-x="700" 
d="M90 334l260 360l260 -360l-260 -360zM564 334l-214 294l-214 -294l214 -294z" />
    <glyph glyph-name="openbullet" unicode="&#x25e6;" 
d="M250 667q60 0 97.5 -37t37.5 -94t-37.5 -94t-97.5 -37t-97.5 37t-37.5 94t37.5 94t97.5 37zM250 639q-46 0 -74.5 -29.5t-28.5 -73.5t28.5 -73.5t74.5 -29.5t74.5 29.5t28.5 73.5t-28.5 73.5t-74.5 29.5z" />
    <glyph glyph-name="uniF400" unicode="&#xf400;" horiz-adv-x="2" 
d="M-173 620l43 -25l-105 -128l-30 16z" />
    <glyph glyph-name="uniF401" unicode="&#xf401;" horiz-adv-x="2" 
d="M-182 854l50 -25l-134 -126l-32 18z" />
    <glyph glyph-name="uniF406" unicode="&#xf406;" 
d="M123 826h40q6 -20 24 -34q24 -18 63 -18t63 18q18 14 24 34h40q-4 -33 -29 -58q-36 -36 -98 -36t-98 36q-25 25 -29 58z" />
    <glyph glyph-name="uniF407" unicode="&#xf407;" 
d="M270 -50l46 -26l-108 -126l-30 18z" />
    <glyph glyph-name="uniF408" unicode="&#xf408;" 
d="M250 786l-96 -64l-34 27l130 90l130 -90l-34 -27z" />
    <glyph glyph-name="uniF409" unicode="&#xf409;" 
d="M193 -190l46 140l44 -14l-62 -136z" />
    <glyph glyph-name="uniF40A" unicode="&#xf40a;" 
d="M193 520l46 160l44 -14l-62 -156z" />
    <glyph glyph-name="uniF40B" unicode="&#xf40b;" 
d="M209 781q0 18 11.5 29.5t29.5 11.5t29.5 -11.5t11.5 -29.5t-11.5 -29.5t-29.5 -11.5t-29.5 11.5t-11.5 29.5z" />
    <glyph glyph-name="uniF40C" unicode="&#xf40c;" 
d="M170 787q0 33 23.5 56.5t56.5 23.5t56.5 -23.5t23.5 -56.5t-23.5 -56.5t-56.5 -23.5t-56.5 23.5t-23.5 56.5zM209 787q0 -18 11.5 -29.5t29.5 -11.5t29.5 11.5t11.5 29.5t-11.5 29.5t-29.5 11.5t-29.5 -11.5t-11.5 -29.5z" />
    <glyph glyph-name="uniF40D" unicode="&#xf40d;" 
d="M149 717l-29 22q11 25 23 38q20 22 45 22q22 0 64 -17q47 -18 59 -18q13 0 25 12q11 13 15 26l29 -22q-9 -27 -28 -43q-19 -17 -46 -17q-18 0 -58 17q-43 18 -58 18q-17 0 -28 -14q-6 -7 -13 -24z" />
    <glyph glyph-name="uniF40E" unicode="&#xf40e;" 
d="M360 -137l-9 -37q-22 -8 -45 -8q-45 0 -72.5 23.5t-27.5 59.5q0 33 23 62q16 20 43 37h44q-27 -18 -46 -42q-22 -29 -22 -55q0 -22 15 -35.5t45 -13.5q23 0 52 9z" />
    <glyph glyph-name="uniF4C6" unicode="&#xf4c6;" horiz-adv-x="580" 
d="M490 667v-758q0 -80 -38 -115q-26 -24 -69 -24q-27 0 -47 7v41q16 -6 37 -6q32 0 50 18q23 23 23 91v379q-112 -7 -170 -7q-91 0 -136 22q-44 21 -57 55t-13 94v203h44v-203q0 -20 1 -31.5t5.5 -29.5t16.5 -32t31 -23q31 -15 122 -15q69 0 156 7v327h44z" />
    <glyph glyph-name="uniF4C7" unicode="&#xf4c7;" horiz-adv-x="412" 
d="M300 408h40v-499q0 -79 -38 -115q-27 -24 -68 -24q-20 0 -36 6v37q17 -5 31 -5q29 0 46 17q25 24 25 92v252q-60 -10 -106 -10q-66 0 -97 22q-37 27 -37 104v123h40v-123q0 -56 27 -75q22 -13 62 -13q39 0 111 10v201z" />
    <glyph glyph-name="uniF4CC" unicode="&#xf4cc;" horiz-adv-x="550" 
d="M14 667h50l231 -432l195 432h46l-305 -667h-46l85 186zM341 854l50 -25l-134 -126l-32 18z" />
    <glyph glyph-name="uniF4CD" unicode="&#xf4cd;" horiz-adv-x="428" 
d="M106 -230l96 223l-194 415h46l171 -363l149 363h46l-268 -638h-46zM269 620l43 -25l-105 -128l-30 16z" />
    <glyph glyph-name="dollar.fitted" unicode="&#xf5f5;" horiz-adv-x="429" 
d="M382 581l-32 -27q-5 12 -13.5 25t-34 32.5t-56.5 24.5v-270q70 -32 99 -53q71 -49 71 -129q0 -68 -47 -124t-123 -68v-99h-40v96q-93 0 -153 70q-29 34 -43 73l38 18q12 -36 36 -64q44 -55 122 -57v310l-25 12q-48 23 -72 40.5t-39 42.5q-21 35 -21 76q0 68 44 115.5
t113 50.5v89h40v-89q93 -11 136 -95zM246 319v-287q56 12 90 55t34 96q0 65 -65 105zM206 386v250q-51 -3 -81 -40t-30 -84q0 -44 27 -73.5t84 -52.5z" />
    <glyph glyph-name="Euro.fitted" unicode="&#xf5f6;" horiz-adv-x="552" 
d="M526 629l-20 -37q-64 44 -145 44q-49 0 -89.5 -19t-67.5 -50.5t-44.5 -65t-26.5 -70.5h325l-16 -40h-316q-4 -27 -4 -60q0 -15 2 -43h278l-16 -40h-256q3 -19 8.5 -38.5t16 -46t27.5 -49t39.5 -42.5t55.5 -31.5t73 -11.5q103 0 176 71v-58q-75 -53 -175 -53
q-58 0 -104.5 19t-74.5 47t-48 65.5t-28 67.5t-12 60h-68l16 40h46q-2 28 -2 43q0 33 4 60h-64l16 40h55q23 109 98.5 177t180.5 68q89 0 160 -47z" />
    <glyph glyph-name="cent.fitted" unicode="&#xf5f7;" horiz-adv-x="379" 
d="M235 655v-102q68 0 129 -51v-53q-58 62 -129 66v-350q76 3 134 72v-54q-61 -53 -134 -56v-114h-38v114q-83 11 -134.5 69.5t-51.5 141.5q0 86 51.5 144.5t134.5 69.5v103h38zM197 165v349q-71 -13 -107.5 -63.5t-36.5 -111.5q0 -60 37.5 -111.5t106.5 -62.5z" />
    <glyph glyph-name="sterling.fitted" unicode="&#xf5f8;" horiz-adv-x="477" 
d="M49 273v40h98l-21 35q-26 44 -40 70q-23 46 -23 84q0 72 51 122q52 50 128 50q70 0 116 -45q53 -53 53 -140h-44q0 75 -42 113q-35 32 -84 32q-58 0 -96 -39q-36 -37 -36 -88q0 -39 27 -89q10 -19 46 -77l17 -28h121v-40h-108q22 -44 22 -88q0 -55 -46 -115l65 -22
q51 -17 72 -17q33 0 57 21t37 48l36 -22q-19 -37 -52 -64t-73 -27q-12 0 -28 3.5t-27 7l-34 11t-31 10.5q-51 17 -74 17q-41 0 -91 -46l-24 32q53 57 119 57q50 52 50 106q0 44 -27 88h-114z" />
    <glyph glyph-name="yen.fitted" unicode="&#xf5f9;" horiz-adv-x="512" 
d="M482 391h-145l-61 -103h206v-40h-207v-248h-44v248h-200v40h198l-59 103h-139v40h116l-134 236h51l190 -335l194 335h51l-139 -236h122v-40z" />
    <glyph glyph-name="florin.fitted" unicode="&#xf5fa;" horiz-adv-x="430" 
d="M153 370l7 38h62l45 235q10 49 33 72q25 25 69 25q30 0 58 -14l-8 -36q-23 12 -46 12q-30 0 -46 -15t-21 -44l-44 -235h101l-7 -38h-101l-72 -385q-16 -89 -45 -118q-27 -27 -74 -27q-38 0 -68 14l8 37q29 -13 56 -13q32 0 49 17q18 18 31 84l75 391h-62z" />
    <glyph glyph-name="uni20B4.fitted" unicode="&#xf5fb;" horiz-adv-x="452" 
d="M91 554l-32 27q33 41 75 66q51 29 112 29q70 0 108 -38t38 -92q0 -66 -49 -115h90v-40h-127l-117 -103h244v-40h-281q-41 -47 -41 -109q0 -52 31 -81q29 -29 84 -29q56 0 103 42q38 34 54 79l38 -18q-21 -47 -61 -86q-60 -57 -138 -57q-69 0 -109 35q-48 41 -48 117
q0 57 37 107h-85v40h114l117 103h-231v40h267q62 50 62 112q0 38 -22 63q-26 30 -78 30q-51 0 -93 -26q-33 -20 -62 -56z" />
    <glyph glyph-name="uni20B6.fitted" unicode="&#xf5fc;" horiz-adv-x="422" 
d="M91 357v310h129q97 0 149 -54q46 -48 46 -120q0 -76 -47 -123q-51 -53 -147 -53h-86v-90h167v-40h-167v-187h-44v187h-75v40h75v90h-75v40h75zM135 627v-270h88q68 0 109 39q37 36 37 96q0 62 -39 98q-40 37 -114 37h-81z" />
    <glyph glyph-name="uni20B8.fitted" unicode="&#xf5fd;" horiz-adv-x="396" 
d="M393 537h-173v-537h-44v537h-173v40h390v-40zM393 627h-390v40h390v-40z" />
    <glyph glyph-name="currency.fitted" unicode="&#xf5fe;" horiz-adv-x="578" 
d="M55 90l-24 25l90 89q-56 62 -56 146q0 83 53 143l-90 90l24 24l90 -89q61 56 147 56t147 -56l90 89l24 -24l-90 -90q54 -59 54 -144q0 -78 -55 -143l91 -91l-24 -24l-91 91q-61 -55 -144 -55q-84 0 -146 53zM476 350q0 77 -55 132.5t-132 55.5t-131.5 -55.5t-54.5 -132.5
t54.5 -132t131.5 -55t132 55t55 132z" />
    <glyph glyph-name="uniF639" unicode="&#xf639;" horiz-adv-x="536" 
d="M268 676q90 0 157 -81q85 -101 85 -262t-85 -262q-69 -82 -157 -82t-157 82q-85 101 -85 262t85 262q67 81 157 81zM268 29q69 0 124 68q72 89 72 236t-72 236q-54 67 -124 67t-124 -67q-72 -89 -72 -236t72 -236q55 -68 124 -68z" />
    <glyph glyph-name="uniF63A" unicode="&#xf63a;" horiz-adv-x="454" 
d="M434 0h-411l256 282q53 60 73 90q39 60 39 114q0 64 -43.5 107t-111.5 43q-72 0 -115 -49q-39 -43 -39 -109h-44q0 85 53 140q56 58 148 58q86 0 142 -54.5t56 -135.5q0 -71 -48 -137q-23 -32 -59 -72l-214 -237h318v-40z" />
    <glyph glyph-name="uniF63B" unicode="&#xf63b;" horiz-adv-x="429" 
d="M21 162h44q2 -39 22 -71q19 -27 52 -44.5t66 -17.5q61 0 105.5 46t44.5 109q0 82 -63 122q-31 20 -85 20v40q54 0 90 31q49 41 49 109q0 56 -34 93t-94 37q-62 0 -96 -39q-32 -35 -34 -89h-42q1 71 49 120q47 48 123 48q80 0 127 -48t47 -119q0 -50 -25 -94.5t-80 -66.5
q53 -17 83.5 -61t30.5 -102q0 -83 -57 -139.5t-139 -56.5q-47 0 -91 23t-69 64q-24 39 -24 86z" />
    <glyph glyph-name="uniF63C" unicode="&#xf63c;" horiz-adv-x="514" 
d="M404 689v-522h93v-40h-93v-127h-44v127h-359zM79 167h281v392z" />
    <glyph glyph-name="uniF63D" unicode="&#xf63d;" horiz-adv-x="473" 
d="M453 667v-40h-224l-56 -180q24 6 45 6q105 0 168.5 -65t63.5 -166q0 -105 -68.5 -169t-168.5 -64q-136 0 -200 110l39 16q58 -86 162 -86q83 0 136.5 54t53.5 138q0 85 -52.5 138.5t-135.5 53.5q-57 0 -104 -29l86 283h255z" />
    <glyph glyph-name="uniF63E" unicode="&#xf63e;" horiz-adv-x="509" 
d="M283 676l34 -26l-148 -210q43 18 91 18q100 0 166 -66t66 -167t-67 -168.5t-171 -67.5q-102 0 -169 66.5t-67 170.5q0 73 43 136zM255 29q82 0 136.5 56t54.5 139q0 85 -54 139.5t-137 54.5t-137 -55t-54 -139t54.5 -139.5t136.5 -55.5z" />
    <glyph glyph-name="uniF63F" unicode="&#xf63f;" horiz-adv-x="522" 
d="M11 14l432 613h-405v40h483l-477 -678z" />
    <glyph glyph-name="uniF640" unicode="&#xf640;" horiz-adv-x="440" 
d="M304 346q52 -20 80.5 -66t28.5 -103q0 -85 -56 -136.5t-137 -51.5t-137 51.5t-56 136.5q0 57 28.5 103t80.5 66q-93 49 -93 154q0 75 51 125.5t126 50.5t126 -50.5t51 -125.5q0 -105 -93 -154zM220 365q54 0 92.5 38.5t38.5 96.5q0 59 -38 97.5t-93 38.5t-93 -38.5
t-38 -97.5q0 -58 38.5 -96.5t92.5 -38.5zM220 29q66 0 106.5 42.5t40.5 105.5q0 66 -41 108t-106 42t-106 -42t-41 -108q0 -63 40.5 -105.5t106.5 -42.5z" />
    <glyph glyph-name="uniF641" unicode="&#xf641;" horiz-adv-x="508" 
d="M226 -11l-34 26l148 211q-43 -18 -91 -18q-100 0 -166 66t-66 167t67 168t171 67q102 0 169 -67t67 -169q0 -73 -43 -136zM254 636q-82 0 -136.5 -56t-54.5 -138q0 -85 54.5 -139.5t136.5 -54.5q83 0 137 55t54 139q0 83 -54.5 138.5t-136.5 55.5z" />
    <glyph glyph-name="uniF6BA" unicode="&#xf6ba;" horiz-adv-x="300" 
d="M50 315v46h200v-46h-200z" />
    <glyph glyph-name="uniF6BB" unicode="&#xf6bb;" horiz-adv-x="540" 
d="M70 319v38h400v-38h-400z" />
    <glyph glyph-name="uniF6BC" unicode="&#xf6bc;" horiz-adv-x="740" 
d="M70 319v38h600v-38h-600z" />
    <glyph glyph-name="uniF6C3" unicode="&#xf6c3;" 
d="M192 -190l46 140l44 -14l-62 -136z" />
    <glyph glyph-name="uniF6C9" unicode="&#xf6c9;" 
d="M316 854l50 -25l-134 -126l-32 18z" />
    <glyph glyph-name="uniF6CA" unicode="&#xf6ca;" 
d="M250 775l96 64l34 -27l-130 -90l-130 90l34 27z" />
    <glyph glyph-name="uniF6CB" unicode="&#xf6cb;" 
d="M119 780q0 16 11 27t27 11t27 -11t11 -27t-11 -27t-27 -11t-27 11t-11 27zM305 780q0 16 11 27t27 11t27 -11t11 -27t-11 -27t-27 -11t-27 11t-11 27z" />
    <glyph glyph-name="uniF6CE" unicode="&#xf6ce;" 
d="M268 703l-134 126l50 25l116 -133z" />
    <glyph glyph-name="uniF6CF" unicode="&#xf6cf;" 
d="M240 854l52 -26l-100 -125l-36 15zM361 854l52 -26l-100 -125l-36 15z" />
    <glyph glyph-name="uniF6D0" unicode="&#xf6d0;" 
d="M115 750v44h270v-44h-270z" />
    <glyph glyph-name="uniF6D1" unicode="&#xf6d1;" 
d="M110 803l35 19q29 -64 105 -64t105 64l35 -19q-21 -46 -60.5 -65.5t-79.5 -19.5t-79.5 19.5t-60.5 65.5z" />
    <glyph glyph-name="uniF6D4" unicode="&#xf6d4;" 
d="M120 573l34 17q8 -31 33.5 -52t62.5 -21t62.5 21t33.5 52l34 -17q-30 -94 -130 -94t-130 94z" />
    <glyph glyph-name="uniF6DC" unicode="&#xf6dc;" horiz-adv-x="188" 
d="M104 0v627h-104l20 40h128v-667h-44z" />
    <glyph glyph-name="uniF6DE" unicode="&#xf6de;" horiz-adv-x="555" 
d="M52 188v38h450v-38h-450z" />
    <glyph glyph-name="nbspace" horiz-adv-x="233" 
 />
    <glyph glyph-name="hyphenminus" horiz-adv-x="300" 
d="M50 184v46h200v-46h-200z" />
    <glyph glyph-name="dotlessi1" horiz-adv-x="184" 
d="M72 408h40v-408h-40v408z" />
    </font>
</defs>
</svg>
